<svg width="2082" height="2000" viewBox="0 0 2082 2000" fill="none" xmlns="http://www.w3.org/2000/svg">
<g clip-path="url(#clip0_72_24109)">
<path d="M1897.05 617.513C1900.04 595.787 1869.38 577.917 1846.34 576.058C1835.35 575.172 1823.94 576.854 1813.53 573.222C1790.98 565.365 1781.97 536.229 1759.96 526.948C1743.51 520.007 1724.57 526.186 1708.63 534.211C1692.67 542.241 1676.91 552.34 1659.09 553.48C1643.59 554.474 1626.76 548.725 1613.2 556.298C1603.1 561.94 1597.81 573.584 1588.49 580.451C1579.38 587.173 1567.5 588.597 1556.19 589.212C1544.88 589.828 1533.17 589.939 1522.88 594.651C1512.59 599.367 1504.07 610.254 1506.21 621.369L1897.05 617.513" fill="#E7E8E5"/>
<path d="M951.449 418.073C954.44 396.347 923.776 378.476 900.738 376.618C889.748 375.731 878.336 377.409 867.927 373.786C845.375 365.924 836.369 336.789 814.363 327.507C797.909 320.571 778.971 326.741 763.02 334.771C747.073 342.8 731.311 352.899 713.492 354.04C697.993 355.034 681.159 349.285 667.6 356.854C657.497 362.499 652.204 374.143 642.888 381.011C633.774 387.732 621.889 389.156 610.585 389.772C599.281 390.387 587.577 390.499 577.28 395.211C566.987 399.927 558.471 410.809 560.606 421.928L951.449 418.073Z" fill="#E7E8E5"/>
<path d="M530.231 1098.5C533.222 1076.77 502.558 1058.9 479.52 1057.04C468.53 1056.16 457.118 1057.84 446.709 1054.21C424.159 1046.35 415.147 1017.21 393.143 1007.93C376.692 1000.99 357.751 1007.17 341.801 1015.2C325.853 1023.22 310.092 1033.33 292.273 1034.47C276.773 1035.46 259.943 1029.71 246.383 1037.28C236.276 1042.92 230.985 1054.57 221.669 1061.44C212.558 1068.16 200.672 1069.58 189.368 1070.2C178.063 1070.81 166.357 1070.93 156.064 1075.64C145.768 1080.35 137.253 1091.24 139.39 1102.36L530.231 1098.5Z" fill="#E7E8E5"/>
<path d="M1313.23 804.82C1315.06 791.545 1296.32 780.619 1282.24 779.488C1275.53 778.946 1268.56 779.974 1262.19 777.754C1248.41 772.951 1242.91 755.15 1229.46 749.479C1219.41 745.236 1207.84 749.009 1198.09 753.915C1188.34 758.82 1178.71 764.995 1167.83 765.692C1158.35 766.295 1148.07 762.783 1139.78 767.413C1133.61 770.856 1130.38 777.973 1124.68 782.173C1119.11 786.278 1111.85 787.147 1104.95 787.521C1098.04 787.9 1090.88 787.969 1084.59 790.848C1078.3 793.731 1073.1 800.379 1074.4 807.173L1313.23 804.82" fill="#E7E8E5"/>
<path d="M2081.85 1998.88C2081.85 1999.5 1618.12 2000 1046.2 2000C474.089 2000 10.4512 1999.5 10.4512 1998.88C10.4512 1998.26 474.089 1997.75 1046.2 1997.75C1618.12 1997.75 2081.85 1998.26 2081.85 1998.88" fill="#17282F"/>
<path d="M1342.89 1675.11L1668.21 1997.85L1731.73 1997.68L1754.32 1675.11H1342.89Z" fill="#DADBD8"/>
<path d="M1607.42 1705.67L1279.62 1997.85L1508.6 1997.51L1701.56 1835.19L1607.42 1705.67Z" fill="#DADBD8"/>
<path d="M1576.59 870.733L1980.66 1245.27L1987.79 856.774L1576.59 870.733Z" fill="#DADBD8"/>
<path d="M1848.84 886.895L755.963 1997.68H971.32L1947.31 1013.15L1848.84 886.895Z" fill="#DADBD8"/>
<path d="M430.719 1298.22L821.846 1686.26L842.148 1298.22H430.719Z" fill="#DADBD8"/>
<path d="M702.257 1323.61L0 1997.68H226.28L796.394 1453.14L702.257 1323.61Z" fill="#DADBD8"/>
<path d="M771.716 1165.01L1330.11 1718.98V1165.01H771.716Z" fill="#FF8F06"/>
<path d="M1140.15 1177.5C1127.52 1187.61 323.696 1997.68 323.696 1997.68H669.993L1301.93 1362.02L1140.15 1177.5Z" fill="#FF8F06"/>
<path d="M429.647 223.486C429.647 253.986 404.923 278.707 374.423 278.707C343.924 278.707 319.2 253.986 319.2 223.486C319.2 192.987 343.924 168.261 374.423 168.261C404.923 168.261 429.647 192.987 429.647 223.486Z" fill="#FF8F06"/>
<path d="M366.556 346.965C366.237 346.965 365.977 336.767 365.977 324.189C365.977 311.607 366.237 301.409 366.556 301.409C366.877 301.409 367.138 311.607 367.138 324.189C367.138 336.767 366.877 346.965 366.556 346.965Z" fill="#FF8F06"/>
<path d="M334.734 288.569C335.013 288.728 329.819 298.242 323.134 309.822C316.45 321.397 310.804 330.648 310.526 330.489C310.249 330.33 315.441 320.816 322.129 309.237C328.813 297.666 334.455 288.41 334.734 288.569Z" fill="#FF8F06"/>
<path d="M302.073 268.233C302.273 268.483 296.499 273.405 289.177 279.227C281.852 285.049 275.756 289.563 275.556 289.309C275.356 289.06 281.13 284.137 288.455 278.315C295.775 272.497 301.875 267.983 302.073 268.233Z" fill="#FF8F06"/>
<path d="M421.648 324.525C421.482 324.555 420.986 322.399 420.193 318.923C419.398 315.446 418.271 310.652 416.863 305.402C415.447 300.153 414.019 295.445 412.961 292.037C411.906 288.634 411.252 286.521 411.41 286.461C411.553 286.409 412.479 288.418 413.74 291.77C415 295.123 416.562 299.821 417.984 305.101C419.403 310.381 420.406 315.231 420.998 318.763C421.589 322.292 421.798 324.504 421.648 324.525" fill="#FF8F06"/>
<path d="M477.661 284.778C477.45 285.023 470.139 278.978 461.34 271.284C452.532 263.59 445.569 257.153 445.78 256.916C445.991 256.671 453.297 262.712 462.101 270.41C470.905 278.104 477.872 284.541 477.661 284.778Z" fill="#FF8F06"/>
<path d="M499.115 230.16C499.077 230.328 496.542 229.884 492.454 229.204C488.362 228.52 482.708 227.647 476.426 226.924C470.143 226.205 464.433 225.779 460.298 225.517C456.158 225.25 453.589 225.112 453.594 224.94C453.594 224.79 456.167 224.639 460.328 224.695C464.489 224.746 470.242 225.048 476.559 225.771C482.871 226.493 488.543 227.505 492.609 228.395C496.676 229.286 499.146 230.013 499.115 230.16Z" fill="#FF8F06"/>
<path d="M499.185 176.45C499.258 176.764 487.304 179.944 472.484 183.554C457.656 187.164 445.582 189.836 445.504 189.526C445.427 189.212 457.381 186.032 472.209 182.422C487.028 178.812 499.107 176.136 499.185 176.45Z" fill="#FF8F06"/>
<path d="M436.782 113.871C437.049 114.047 431.33 123.174 424.009 134.25C416.684 145.33 410.532 154.164 410.263 153.988C409.997 153.811 415.714 144.689 423.037 133.609C430.362 122.533 436.516 113.694 436.782 113.871Z" fill="#FF8F06"/>
<path d="M374.854 100.798C375.02 100.807 375.001 103.707 374.932 108.38C374.867 113.057 374.773 119.512 374.783 126.642C374.79 133.776 374.897 140.235 374.976 144.913C375.052 149.586 375.075 152.482 374.91 152.49C374.758 152.499 374.442 149.616 374.154 144.943C373.864 140.265 373.628 133.798 373.618 126.646C373.611 119.495 373.835 113.027 374.112 108.35C374.39 103.672 374.699 100.79 374.854 100.798" fill="#FF8F06"/>
<path d="M327.955 159.208C327.682 159.375 321.864 150.352 314.964 139.061C308.062 127.766 302.69 118.475 302.964 118.312C303.238 118.144 309.054 127.159 315.956 138.459C322.856 149.75 328.231 159.04 327.955 159.208Z" fill="#FF8F06"/>
<path d="M299.942 183.016C299.908 183.167 297.659 182.839 294.069 182.086C290.479 181.329 285.55 180.124 280.18 178.545C274.808 176.957 270.016 175.296 266.59 173.98C263.163 172.667 261.099 171.72 261.152 171.578C261.21 171.419 263.376 172.095 266.863 173.205C270.347 174.32 275.159 175.851 280.508 177.431C285.858 179.006 290.731 180.331 294.262 181.286C297.792 182.241 299.977 182.857 299.942 183.016" fill="#FF8F06"/>
<path d="M287.702 225.444C287.733 225.763 279.843 226.787 270.079 227.72C260.316 228.663 252.376 229.162 252.346 228.843C252.315 228.525 260.204 227.501 269.968 226.567C279.732 225.629 287.671 225.126 287.702 225.444Z" fill="#FF8F06"/>
<path d="M1932.79 1439.09C1935.04 1422.73 1911.95 1409.28 1894.61 1407.88C1886.34 1407.21 1877.74 1408.47 1869.91 1405.74C1852.93 1399.82 1846.14 1377.89 1829.58 1370.9C1817.19 1365.67 1802.93 1370.33 1790.92 1376.37C1778.91 1382.41 1767.04 1390.02 1753.63 1390.88C1741.96 1391.63 1729.28 1387.3 1719.07 1393C1711.47 1397.25 1707.49 1406.01 1700.47 1411.18C1693.61 1416.24 1684.66 1417.32 1676.15 1417.78C1667.64 1418.24 1658.82 1418.33 1651.07 1421.88C1643.32 1425.43 1636.91 1433.62 1638.52 1441.99L1932.79 1439.09" fill="white"/>
<path d="M1932.79 1439.09C1932.81 1439.11 1932.34 1439.15 1931.37 1439.19C1930.29 1439.22 1928.87 1439.26 1927.06 1439.31C1923.11 1439.39 1917.49 1439.5 1910.29 1439.64C1895.51 1439.86 1874.28 1440.19 1847.96 1440.59C1794.83 1441.23 1721.18 1442.11 1638.53 1443.11L1637.6 1443.12L1637.42 1442.2C1636.46 1437.32 1638.21 1432.15 1641.27 1428.24C1644.33 1424.28 1648.74 1421.3 1653.51 1419.7C1664.54 1415.95 1675.91 1417.53 1686.35 1415.59C1691.57 1414.68 1696.62 1412.9 1700.6 1409.67C1704.63 1406.45 1707.63 1402.06 1711.25 1398.12C1713.06 1396.16 1715.02 1394.26 1717.34 1392.78C1719.65 1391.32 1722.21 1390.27 1724.84 1389.69C1730.12 1388.55 1735.38 1388.93 1740.42 1389.31C1745.46 1389.7 1750.4 1390.21 1755.19 1389.67C1759.99 1389.18 1764.63 1387.81 1769.04 1386.04C1777.91 1382.49 1785.92 1377.48 1794.33 1373.64C1802.7 1369.87 1811.63 1367.16 1820.5 1367.82C1824.9 1368.18 1829.19 1369.41 1832.9 1371.54C1836.62 1373.65 1839.76 1376.44 1842.55 1379.34C1848.13 1385.17 1852.51 1391.48 1857.63 1396.57C1862.63 1401.74 1868.69 1405.39 1875.11 1406.29C1881.5 1407.31 1887.74 1406.76 1893.58 1407.18C1905.37 1408.12 1914.75 1412.81 1921.38 1417.58C1928.04 1422.51 1931.58 1428.29 1932.56 1432.53C1933.52 1436.79 1932.67 1439.21 1932.79 1439.09C1932.59 1439 1933.17 1436.8 1932.12 1432.65C1931.03 1428.55 1927.48 1423.02 1920.87 1418.28C1914.29 1413.71 1904.97 1409.23 1893.5 1408.43C1887.77 1408.06 1881.53 1408.69 1874.88 1407.7C1868.17 1406.83 1861.65 1402.95 1856.52 1397.7C1851.23 1392.51 1846.79 1386.2 1841.3 1380.54C1838.57 1377.73 1835.53 1375.08 1832.02 1373.11C1828.52 1371.12 1824.51 1370 1820.36 1369.67C1811.98 1369.08 1803.34 1371.69 1795.15 1375.44C1786.92 1379.22 1778.89 1384.29 1769.81 1387.96C1765.29 1389.78 1760.46 1391.23 1755.42 1391.76C1750.35 1392.34 1745.27 1391.82 1740.25 1391.45C1735.24 1391.07 1730.16 1390.75 1725.31 1391.8C1720.43 1392.82 1716.26 1395.72 1712.86 1399.61C1709.38 1403.39 1706.35 1407.88 1701.99 1411.4C1697.63 1414.94 1692.16 1416.83 1686.74 1417.78C1675.85 1419.76 1664.57 1418.25 1654.25 1421.81C1649.79 1423.31 1645.84 1426.01 1643.04 1429.61C1640.27 1433.16 1638.8 1437.66 1639.61 1441.78L1638.51 1440.87C1720.87 1440.24 1794.26 1439.68 1847.2 1439.27C1873.62 1439.15 1894.93 1439.06 1909.77 1438.99C1917.07 1438.99 1922.77 1438.99 1926.78 1438.99C1928.64 1439 1930.11 1439.01 1931.22 1439.02C1932.24 1439.04 1932.76 1439.06 1932.79 1439.09" fill="#17282F"/>
<path d="M1008.3 1799.25C1011.29 1777.52 980.624 1759.65 957.585 1757.79C946.6 1756.91 935.184 1758.58 924.775 1754.96C902.227 1747.1 893.216 1717.96 871.211 1708.68C854.756 1701.74 835.819 1707.92 819.872 1715.95C803.92 1723.97 788.158 1734.07 770.34 1735.21C754.84 1736.2 738.011 1730.46 724.448 1738.03C714.344 1743.67 709.052 1755.32 699.74 1762.18C690.626 1768.91 678.741 1770.33 667.433 1770.95C656.129 1771.56 644.425 1771.67 634.128 1776.39C623.835 1781.1 615.319 1791.98 617.453 1803.1L1008.3 1799.25Z" fill="white"/>
<path d="M1008.3 1799.25C1008.3 1799.25 1007.68 1799.31 1006.39 1799.35C1005 1799.38 1003.1 1799.43 1000.64 1799.48C995.452 1799.57 987.956 1799.7 978.33 1799.87C958.756 1800.14 930.528 1800.53 895.505 1801.02C825.035 1801.83 727.232 1802.96 617.466 1804.22L616.541 1804.23L616.36 1803.31C615.108 1796.95 617.38 1790.2 621.403 1785.06C625.418 1779.86 631.197 1775.96 637.492 1773.84C652.019 1768.89 667.11 1770.99 681.047 1768.4C688.01 1767.18 694.795 1764.8 700.14 1760.45C705.54 1756.14 709.533 1750.28 714.314 1745.08C716.711 1742.48 719.297 1739.98 722.335 1738.05C725.368 1736.12 728.729 1734.74 732.184 1733.98C739.125 1732.49 746.083 1732.98 752.766 1733.48C759.457 1734 766.053 1734.67 772.456 1733.96C778.868 1733.29 785.064 1731.46 790.946 1729.1C802.758 1724.37 813.4 1717.71 824.536 1712.62C835.625 1707.6 847.432 1704.03 859.136 1704.89C864.932 1705.37 870.595 1706.97 875.483 1709.79C880.389 1712.57 884.537 1716.25 888.238 1720.08C895.634 1727.8 901.465 1736.19 908.29 1742.96C914.964 1749.83 923.075 1754.72 931.651 1755.91C940.179 1757.26 948.471 1756.52 956.212 1757.07C964.001 1757.55 971.032 1759.61 977.19 1762.05C983.356 1764.54 988.661 1767.57 993.068 1770.8C997.457 1774.06 1000.85 1777.61 1003.33 1781C1005.86 1784.39 1007.15 1787.8 1007.92 1790.56C1008.52 1793.36 1008.72 1795.57 1008.5 1797.08C1008.39 1798.56 1008.3 1799.25 1008.3 1799.25C1008.3 1799.25 1008.27 1798.43 1008.29 1797C1008.4 1795.58 1008.15 1793.41 1007.48 1790.67C1006.05 1785.21 1001.33 1777.82 992.551 1771.5C988.167 1768.38 982.9 1765.44 976.798 1763.05C970.701 1760.69 963.76 1758.74 956.135 1758.32C948.506 1757.83 940.218 1758.64 931.423 1757.32C922.55 1756.17 913.983 1751.05 907.175 1744.09C900.187 1737.21 894.296 1728.83 886.998 1721.29C883.345 1717.54 879.305 1714 874.606 1711.35C869.924 1708.69 864.549 1707.18 858.994 1706.75C847.785 1705.95 836.266 1709.44 825.353 1714.42C814.398 1719.44 803.739 1726.16 791.717 1731.01C785.722 1733.44 779.341 1735.35 772.676 1736.05C765.993 1736.81 759.268 1736.12 752.598 1735.62C745.945 1735.12 739.168 1734.69 732.653 1736.1C729.417 1736.82 726.324 1738.1 723.518 1739.88C720.712 1741.67 718.26 1744.04 715.936 1746.56C711.285 1751.61 707.261 1757.57 701.53 1762.18C695.802 1766.84 688.608 1769.33 681.443 1770.59C667.045 1773.22 652.049 1771.2 638.228 1775.96C632.247 1777.97 626.928 1781.6 623.176 1786.43C619.437 1791.21 617.449 1797.29 618.55 1802.89L617.444 1801.99C726.922 1801.08 824.467 1800.28 894.748 1799.71C929.874 1799.5 958.183 1799.33 977.813 1799.22C987.543 1799.2 995.116 1799.17 1000.36 1799.16C1002.87 1799.17 1004.83 1799.18 1006.25 1799.18C1007.58 1799.2 1008.3 1799.25 1008.3 1799.25" fill="#17282F"/>
<path d="M610.362 773.042C612.87 754.805 587.134 739.805 567.796 738.247C558.575 737.503 548.997 738.914 540.261 735.868C521.328 729.271 513.768 704.813 495.299 697.024C481.491 691.202 465.591 696.383 452.204 703.122C438.818 709.86 425.589 718.337 410.633 719.297C397.623 720.127 383.495 715.304 372.114 721.659C363.634 726.392 359.189 736.169 351.372 741.935C343.724 747.576 333.748 748.768 324.26 749.285C314.769 749.801 304.947 749.896 296.305 753.854C287.666 757.809 280.517 766.948 282.31 776.277L610.362 773.042" fill="white"/>
<path d="M610.361 773.042C610.383 773.072 609.845 773.102 608.769 773.141C607.586 773.171 605.994 773.214 603.954 773.27C599.574 773.352 593.296 773.468 585.249 773.619C568.79 773.86 545.115 774.208 515.751 774.638C456.554 775.336 374.458 776.308 282.322 777.397L281.395 777.405L281.212 776.489C280.15 771.093 282.079 765.365 285.481 761.028C288.87 756.635 293.76 753.33 299.068 751.544C311.316 747.379 323.99 749.143 335.654 746.97C341.481 745.95 347.142 743.967 351.6 740.343C356.103 736.746 359.454 731.841 363.477 727.46C365.496 725.274 367.676 723.157 370.244 721.526C372.809 719.9 375.651 718.734 378.566 718.092C384.43 716.832 390.283 717.253 395.896 717.675C401.513 718.11 407.039 718.673 412.392 718.071C417.75 717.52 422.936 715.988 427.866 714.009C437.763 710.05 446.692 704.46 456.059 700.192C465.375 695.975 475.311 692.967 485.174 693.694C490.062 694.099 494.834 695.454 498.956 697.83C503.087 700.179 506.577 703.277 509.688 706.504C515.906 712.993 520.794 720.029 526.508 725.709C532.102 731.471 538.875 735.558 546.048 736.557C553.183 737.688 560.145 737.073 566.647 737.542C579.771 738.588 590.228 743.799 597.62 749.109C605.034 754.591 608.984 761.015 610.077 765.74C610.581 768.102 610.74 769.952 610.551 771.226C610.443 772.474 610.361 773.042 610.361 773.042C610.361 773.042 610.336 772.349 610.336 771.149C610.426 769.97 610.202 768.149 609.643 765.856C608.429 761.278 604.471 755.098 597.104 749.814C589.767 744.698 579.371 739.685 566.57 738.794C560.18 738.381 553.222 739.07 545.82 737.964C538.35 736.996 531.117 732.688 525.394 726.832C519.516 721.053 514.568 714.022 508.449 707.709C505.389 704.564 502.003 701.603 498.078 699.396C494.163 697.167 489.679 695.915 485.032 695.549C475.664 694.886 466.017 697.804 456.873 701.986C447.69 706.199 438.744 711.844 428.634 715.924C423.597 717.963 418.226 719.573 412.612 720.166C406.98 720.803 401.325 720.222 395.728 719.809C390.146 719.392 384.471 719.026 379.04 720.21C373.569 721.341 368.893 724.607 365.097 728.94C361.205 733.166 357.824 738.179 352.985 742.073C348.147 746.01 342.078 748.106 336.045 749.165C323.93 751.376 311.347 749.685 299.804 753.661C294.808 755.344 290.379 758.369 287.252 762.401C284.138 766.381 282.491 771.424 283.405 776.067L282.298 775.163C374.147 774.436 455.986 773.791 514.994 773.322C544.461 773.175 568.222 773.051 584.733 772.969C592.883 772.96 599.238 772.952 603.675 772.943C605.77 772.96 607.414 772.969 608.627 772.977C609.75 772.995 610.336 773.016 610.361 773.042" fill="#17282F"/>
<path d="M1783.44 298.023C1785.41 283.685 1765.18 271.895 1749.98 270.669C1742.73 270.088 1735.2 271.194 1728.33 268.801C1713.46 263.616 1707.51 244.39 1692.99 238.267C1682.14 233.688 1669.64 237.763 1659.12 243.06C1648.59 248.357 1638.19 255.018 1626.44 255.771C1616.21 256.43 1605.11 252.635 1596.16 257.63C1589.49 261.353 1586 269.038 1579.85 273.569C1573.84 278.001 1566 278.943 1558.54 279.348C1551.08 279.752 1543.36 279.83 1536.56 282.936C1529.77 286.047 1524.16 293.229 1525.57 300.566L1783.44 298.023" fill="white"/>
<path d="M1783.44 298.023C1783.46 298.049 1783.04 298.079 1782.2 298.118C1781.24 298.148 1780 298.186 1778.43 298.234C1774.94 298.307 1770.03 298.41 1763.76 298.544C1750.77 298.75 1732.18 299.047 1709.15 299.417C1662.55 299.994 1598.01 300.79 1525.58 301.68L1524.65 301.693L1524.47 300.777C1523.61 296.452 1525.17 291.878 1527.87 288.431C1530.56 284.937 1534.46 282.308 1538.66 280.897C1548.36 277.601 1558.34 278.995 1567.46 277.291C1572.01 276.495 1576.42 274.946 1579.89 272.136C1583.39 269.339 1586.02 265.492 1589.2 262.032C1592.26 258.5 1596.48 255.535 1601.18 254.597C1605.84 253.599 1610.46 253.938 1614.87 254.27C1619.29 254.614 1623.62 255.053 1627.79 254.588C1631.98 254.158 1636.04 252.962 1639.9 251.413C1647.66 248.314 1654.67 243.925 1662.06 240.565C1669.4 237.243 1677.24 234.872 1685.05 235.453C1688.91 235.771 1692.7 236.851 1695.96 238.732C1699.23 240.595 1701.99 243.043 1704.44 245.591C1709.34 250.707 1713.17 256.241 1717.64 260.694C1722.03 265.212 1727.3 268.405 1732.91 269.188C1738.49 270.083 1743.96 269.606 1749.09 269.984C1759.44 270.819 1767.66 274.937 1773.48 279.133C1779.31 283.466 1782.42 288.539 1783.26 292.27C1784.1 296.009 1783.34 298.139 1783.44 298.023C1783.26 297.928 1783.75 296.013 1782.83 292.386C1781.86 288.802 1778.75 283.969 1772.96 279.838C1767.21 275.836 1759.04 271.916 1749.01 271.232C1744 270.918 1738.53 271.465 1732.68 270.6C1726.78 269.842 1721.04 266.43 1716.53 261.817C1711.89 257.265 1707.99 251.735 1703.2 246.791C1700.79 244.33 1698.15 242.019 1695.08 240.298C1692.03 238.559 1688.53 237.591 1684.91 237.303C1677.6 236.791 1670.04 239.076 1662.88 242.355C1655.68 245.664 1648.64 250.109 1640.67 253.327C1636.7 254.937 1632.45 256.211 1628.02 256.68C1623.56 257.187 1619.1 256.731 1614.7 256.404C1610.32 256.077 1605.88 255.797 1601.65 256.718C1597.4 257.6 1593.79 260.122 1590.82 263.513C1587.77 266.817 1585.11 270.768 1581.27 273.861C1577.43 276.985 1572.61 278.651 1567.85 279.486C1558.27 281.228 1548.39 279.907 1539.4 283.014C1535.5 284.326 1532.07 286.672 1529.64 289.804C1527.22 292.894 1525.96 296.788 1526.66 300.355L1525.56 299.452C1597.7 298.918 1661.99 298.445 1708.39 298.1C1731.53 298.014 1750.2 297.945 1763.24 297.894C1769.61 297.902 1774.61 297.907 1778.16 297.911C1779.78 297.928 1781.06 297.941 1782.06 297.954C1782.95 297.971 1783.41 297.993 1783.44 298.023" fill="#17282F"/>
<path d="M1033.22 1054.36L1030.13 1125.13C1030.13 1125.13 1101.02 1152.03 1101.72 1165.17L964.298 1164.1L964.595 1053.64L1033.22 1054.36Z" fill="#33535F"/>
<path d="M987.685 1118.84C985.017 1119.55 983.158 1122.52 983.752 1125.21C984.35 1127.91 987.358 1129.82 990.034 1129.16C992.71 1128.51 995.055 1125 994.16 1122.39C993.27 1119.78 989.612 1117.73 987.168 1119.01" fill="#DADBD8"/>
<path d="M1101.74 1165.01H1101.71C1101.53 1163.15 1099.98 1161.02 1097.44 1158.73C1099.13 1159.73 1102.14 1161.96 1101.74 1165.01Z" fill="white"/>
<path d="M1101.72 1165.17L1081.12 1165.01L1101.72 1165.17C1101.72 1165.12 1101.71 1165.06 1101.71 1165.01H1101.74C1101.74 1165.06 1101.73 1165.12 1101.72 1165.17Z" fill="#F9ACB4"/>
<path d="M1101.72 1165.17L1081.12 1165.01L964.298 1164.1L964.763 1152.96L1096.35 1158.15C1096.35 1158.15 1096.8 1158.36 1097.44 1158.73C1099.98 1161.02 1101.53 1163.15 1101.71 1165.01C1101.71 1165.06 1101.72 1165.12 1101.72 1165.17" fill="#A6B7B9"/>
<path d="M1032.36 1124.44C1032.34 1125.11 1028.98 1125.39 1025.66 1127.52C1022.29 1129.57 1020.56 1132.46 1019.94 1132.19C1019.33 1132.06 1020.36 1128.05 1024.42 1125.54C1028.46 1122.99 1032.51 1123.83 1032.36 1124.44" fill="#17282F"/>
<path d="M1046.73 1130.51C1046.88 1131.17 1043.96 1132.29 1041.66 1135.11C1039.28 1137.86 1038.68 1140.92 1038.01 1140.89C1037.38 1140.99 1036.95 1137.06 1039.87 1133.6C1042.77 1130.13 1046.72 1129.88 1046.73 1130.51Z" fill="#17282F"/>
<path d="M1054.78 1147.83C1054.18 1147.97 1053.27 1144.61 1055.01 1140.95C1056.74 1137.28 1059.92 1135.85 1060.2 1136.41C1060.57 1136.97 1058.52 1138.92 1057.13 1141.95C1055.66 1144.94 1055.45 1147.77 1054.78 1147.83" fill="#17282F"/>
<path d="M1031.28 1108.24C1030.99 1108.85 1027.92 1107.9 1024.13 1108.13C1020.33 1108.28 1017.36 1109.53 1017.02 1108.95C1016.64 1108.46 1019.54 1106 1024.01 1105.79C1028.48 1105.55 1031.61 1107.71 1031.28 1108.24" fill="#17282F"/>
<path d="M1246.75 1054.36L1243.66 1125.13C1243.66 1125.13 1314.55 1152.03 1315.25 1165.17L1177.82 1164.1L1178.12 1053.64L1246.75 1054.36Z" fill="#33535F"/>
<path d="M1201.21 1118.84C1198.54 1119.55 1196.68 1122.52 1197.28 1125.21C1197.87 1127.91 1200.88 1129.82 1203.56 1129.16C1206.24 1128.51 1208.58 1125 1207.69 1122.39C1206.79 1119.78 1203.14 1117.73 1200.69 1119.01" fill="#DADBD8"/>
<path d="M1315.27 1165.01H1315.24C1315.06 1163.15 1313.51 1161.02 1310.98 1158.74C1312.67 1159.74 1315.67 1161.97 1315.27 1165.01Z" fill="white"/>
<path d="M1315.25 1165.17L1294.65 1165.01L1315.25 1165.17C1315.25 1165.12 1315.24 1165.06 1315.24 1165.01H1315.27C1315.27 1165.06 1315.26 1165.12 1315.25 1165.17" fill="#F9ACB4"/>
<path d="M1315.25 1165.17L1294.65 1165.01L1177.82 1164.1L1178.29 1152.96L1309.88 1158.15C1309.88 1158.15 1310.33 1158.36 1310.98 1158.74C1313.51 1161.02 1315.06 1163.15 1315.24 1165.01C1315.24 1165.06 1315.25 1165.12 1315.25 1165.17" fill="#A6B7B9"/>
<path d="M1245.89 1124.44C1245.87 1125.11 1242.5 1125.39 1239.19 1127.52C1235.81 1129.57 1234.08 1132.46 1233.47 1132.19C1232.85 1132.06 1233.88 1128.05 1237.95 1125.54C1241.99 1122.99 1246.04 1123.83 1245.89 1124.44" fill="#17282F"/>
<path d="M1260.25 1130.51C1260.41 1131.17 1257.49 1132.29 1255.19 1135.11C1252.81 1137.86 1252.2 1140.92 1251.54 1140.89C1250.9 1140.99 1250.47 1137.06 1253.4 1133.6C1256.3 1130.13 1260.25 1129.88 1260.25 1130.51Z" fill="#17282F"/>
<path d="M1268.31 1147.83C1267.7 1147.97 1266.79 1144.61 1268.54 1140.95C1270.27 1137.28 1273.44 1135.85 1273.72 1136.41C1274.1 1136.97 1272.05 1138.92 1270.65 1141.95C1269.19 1144.94 1268.98 1147.77 1268.31 1147.83" fill="#17282F"/>
<path d="M1244.8 1108.24C1244.52 1108.85 1241.45 1107.9 1237.65 1108.13C1233.86 1108.28 1230.89 1109.53 1230.55 1108.95C1230.16 1108.46 1233.06 1106 1237.54 1105.79C1242.01 1105.55 1245.14 1107.71 1244.8 1108.24" fill="#17282F"/>
<path d="M964.952 125.136C960.115 111.9 955.33 98.5694 952.843 84.7051C950.356 70.8365 950.253 56.2921 954.685 42.9183C955.352 40.8916 961.208 27.2426 963.338 27.376C964.862 27.4706 961.411 40.13 962.228 41.4209C970.004 53.7361 972.542 68.7924 971.897 83.3453C971.251 97.8981 968.704 111.061 964.952 125.136" fill="#17282F"/>
<path d="M969.479 200.155L964.332 72.3079C961.914 37.0619 977.697 5.4347 1013 3.98889L1016.83 4.05759C1049.42 4.62559 1076.12 30.1212 1078.18 62.652C1080.12 93.3583 1081.88 127.464 1081.39 143.932C1080.38 177.818 1046.39 182.5 1046.39 182.5C1046.31 182.504 1047.84 207.061 1048.09 217.01C1048.09 217.01 1044.51 219.617 1012.94 220.74C981.355 221.859 969.479 200.155 969.479 200.155Z" fill="#F9A78D"/>
<path d="M1046.39 182.5C1046.39 182.5 1025 183.382 1002.48 168.683C1002.48 168.683 1012.81 193.524 1046.69 191.058L1046.39 182.5Z" fill="#F57F62"/>
<path d="M1066.54 93.4313C1066.58 95.9873 1064.45 98.1346 1061.78 98.2336C1059.12 98.3282 1056.92 96.3402 1056.87 93.7799C1056.83 91.2239 1058.95 89.0724 1061.62 88.9735C1064.29 88.8788 1066.49 90.8753 1066.54 93.4313" fill="#17282F"/>
<path d="M1069.63 81.3356C1069.01 81.9553 1065.39 79.1799 1060.18 79.1024C1054.98 78.9475 1051.11 81.5637 1050.56 80.914C1050.29 80.63 1050.92 79.5025 1052.6 78.3191C1054.26 77.1401 1057.08 76.0128 1060.32 76.0817C1063.56 76.1591 1066.27 77.4026 1067.82 78.6505C1069.4 79.9069 1069.92 81.0603 1069.63 81.3356" fill="#17282F"/>
<path d="M1022.01 94.2273C1021.4 94.8469 1017.78 92.0715 1012.57 91.994C1007.37 91.8434 1003.5 94.4552 1002.95 93.8098C1002.68 93.5215 1003.3 92.3941 1004.99 91.2107C1006.65 90.0317 1009.47 88.9044 1012.71 88.9733C1015.96 89.0507 1018.66 90.2942 1020.21 91.5421C1021.79 92.7986 1022.31 93.9476 1022.01 94.2273" fill="#17282F"/>
<path d="M1037.88 122.378C1037.85 122.081 1041.1 121.577 1046.36 121.001C1047.69 120.884 1048.96 120.639 1049.19 119.736C1049.52 118.78 1048.99 117.339 1048.38 115.781C1047.18 112.541 1045.93 109.142 1044.62 105.583C1039.41 91.0647 1035.66 79.141 1036.25 78.9344C1036.83 78.7322 1041.53 90.333 1046.74 104.847C1048 108.423 1049.19 111.835 1050.34 115.101C1050.81 116.62 1051.65 118.35 1050.93 120.334C1050.56 121.319 1049.57 122.025 1048.71 122.24C1047.85 122.485 1047.1 122.485 1046.45 122.515C1041.16 122.705 1037.89 122.675 1037.88 122.378" fill="#17282F"/>
<path d="M1022.26 80.3546C1021.62 81.723 1016.5 80.5827 1010.34 80.7677C1004.19 80.8322 999.118 82.1663 998.425 80.8324C998.116 80.1912 999.092 78.9432 1001.2 77.7556C1003.29 76.5722 1006.55 75.5568 1010.24 75.4837C1013.93 75.4105 1017.22 76.2926 1019.36 77.3942C1021.51 78.4958 1022.54 79.7049 1022.26 80.3546Z" fill="#17282F"/>
<path d="M1071.67 61.8431C1070.88 63.2286 1066.54 62.9146 1061.63 63.9215C1056.68 64.7821 1052.74 66.6669 1051.52 65.6643C1050.98 65.1652 1051.38 63.8698 1052.95 62.381C1054.51 60.9007 1057.3 59.3602 1060.69 58.7148C1064.08 58.0779 1067.23 58.4911 1069.19 59.3043C1071.18 60.1133 1072.01 61.1847 1071.67 61.8431" fill="#17282F"/>
<path d="M966.652 97.2095C966.08 96.947 943.484 89.9117 943.82 113.101C944.156 136.285 967.366 131.165 967.396 130.498C967.427 129.835 966.652 97.2095 966.652 97.2095" fill="#F9A78D"/>
<path d="M959.801 121.909C959.697 121.84 959.396 122.201 958.721 122.524C958.058 122.838 956.918 123.062 955.7 122.631C953.239 121.766 951.122 117.907 950.945 113.728C950.855 111.62 951.272 109.606 951.995 107.932C952.679 106.224 953.755 105.023 954.986 104.782C956.212 104.486 957.094 105.208 957.387 105.858C957.709 106.504 957.567 106.968 957.692 107.007C957.757 107.063 958.183 106.607 957.981 105.656C957.877 105.196 957.598 104.653 957.047 104.215C956.487 103.771 955.666 103.552 954.805 103.655C953.019 103.806 951.436 105.471 950.64 107.313C949.745 109.163 949.233 111.426 949.331 113.797C949.547 118.466 952.004 122.799 955.369 123.72C957.008 124.125 958.359 123.612 959.056 123.053C959.766 122.472 959.878 121.952 959.801 121.909Z" fill="#F57F62"/>
<path d="M1062.32 25.1513C1066.02 22.9955 1054.48 11.1107 1045.16 7.14334C1031.08 1.14494 1009.71 -2.25462 996.945 1.69124C981.579 6.43747 968.906 14.4326 961.471 28.6971C954.031 42.953 951.492 59.4248 952.323 75.488C952.572 80.3891 953.201 85.4883 955.916 89.5762C959.272 94.6236 965.563 97.7088 965.455 104.783C965.417 107.369 966.213 109.96 968.029 111.806C972.375 116.221 977.465 111.857 979.75 107.554C984.634 98.3543 984.948 87.5022 985.155 77.0846C985.301 69.6877 985.426 62.1272 983.175 55.0745C981.953 51.2362 980.043 47.6262 979.032 43.7276C978.025 39.8291 978.037 35.3755 980.408 32.1181C980.791 31.5888 981.433 30.9174 982.246 30.1687C988.675 24.2607 997.827 22.3242 1006.12 25.0437C1019.29 29.3554 1041.74 35.7324 1047.46 31.1669C1055.69 24.6005 1057.6 20.3966 1057.6 20.3966L1062.32 25.1513" fill="#17282F"/>
<path d="M1041.24 136.466C1041.34 136.84 1040.06 137.593 1037.73 137.886C1035.43 138.187 1032.09 137.838 1028.84 136.298C1025.59 134.744 1023.21 132.373 1021.99 130.394C1020.75 128.406 1020.53 126.943 1020.87 126.779C1021.65 126.375 1024.46 130.94 1030.15 133.548C1035.75 136.311 1041.07 135.609 1041.24 136.466" fill="#17282F"/>
<path d="M1364 80.0491C1364 80.0491 1363.11 74.6317 1360.43 74.6317C1357.75 74.6317 1353.73 76.0946 1351.95 80.0491C1350.16 84.0036 1364 80.0491 1364 80.0491Z" fill="#F9A78D"/>
<path d="M1295.75 166.304L1298.43 123.566L1306.91 79.5633C1306.91 79.5633 1313.61 72.403 1317.18 74.0683C1320.75 75.7293 1319.41 81.6114 1319.41 81.6114C1319.41 81.6114 1328.78 71.4865 1332.35 73.8187C1335.92 76.1466 1334.59 81.6114 1334.59 81.6114C1334.59 81.6114 1343.06 70.3719 1347.08 73.4701C1351.1 76.564 1347.08 81.6114 1347.08 81.6114C1347.08 81.6114 1352.4 130.915 1349.72 148.528C1347.04 166.14 1332.04 172.681 1332.04 172.681L1324.92 200.409L1289.95 181.377L1295.75 166.304Z" fill="#F9A78D"/>
<path d="M1317.16 110.39L1127.22 108.281V93.0828L1317.16 87.7557V110.39" fill="#FF8F06"/>
<path d="M1517.72 125.45L1249.34 114.112C1245.99 104.994 1245.86 95.1224 1249.14 84.4509L1515.83 72.6951C1528.11 85.4493 1528.25 112.322 1517.72 125.45Z" fill="#FF8F06"/>
<path d="M1515.1 75.1483C1515.1 75.1483 1507.01 82.7216 1507.33 99.2022C1507.64 115.687 1515.76 122.615 1515.76 122.615C1515.76 122.615 1524.56 113.312 1523.29 96.7924C1522.03 80.6432 1515.1 75.1483 1515.1 75.1483" fill="#DADBD8"/>
<path d="M1504.37 125.45C1504.18 125.618 1501.82 123.406 1499.16 118.935C1496.52 114.525 1493.72 107.554 1493.87 99.4555C1493.99 91.525 1496 84.3907 1498.57 79.8467C1501.09 75.2511 1503.63 73.1469 1503.8 73.3191C1504.09 73.56 1502.04 75.9912 1499.99 80.5481C1497.9 85.0705 1496.23 91.8563 1496.11 99.5028C1495.97 107.063 1498.35 113.724 1500.55 118.186C1502.76 122.692 1504.66 125.231 1504.37 125.45" fill="#17282F"/>
<path d="M1516.33 73.2977C1516.62 73.5258 1514.65 76.0388 1512.52 80.6087C1510.37 85.1354 1508.25 91.9041 1508.43 99.5419C1508.55 107.193 1510.93 113.875 1513.23 118.32C1515.36 122.985 1518.09 124.56 1518 124.796C1517.95 124.921 1517.09 124.775 1515.87 123.893C1514.63 123.019 1513.2 121.332 1511.85 119.099C1509.09 114.688 1506.32 107.687 1506.19 99.5892C1506 91.4909 1508.51 84.3867 1511.11 79.8815C1513.71 75.316 1516.15 73.1299 1516.33 73.2977" fill="#17282F"/>
<path d="M1519.83 87.072C1519.48 86.2157 1519.07 85.3594 1518.4 84.7139C1517.74 84.0728 1516.78 83.6639 1515.89 83.8575C1514.99 84.0469 1514.27 84.817 1514.02 85.6991C1513.76 86.5813 1513.91 87.5452 1514.31 88.3757C1515.28 90.3207 1516.87 92.1236 1516.82 94.06C1516.77 95.9963 1516.27 97.9242 1516.43 99.8562C1516.49 100.562 1516.65 101.285 1517.06 101.866C1517.47 102.447 1518.17 102.855 1518.88 102.761C1520.02 102.602 1520.59 101.302 1520.86 100.175C1521.87 95.8371 1521.51 91.1943 1519.83 87.072" fill="white"/>
<path d="M1249.29 115.072C1248.8 115.351 1245.44 108.664 1245.63 99.6583C1245.74 90.6477 1249.33 84.0769 1249.82 84.3781C1250.44 84.6191 1247.96 91.2114 1247.87 99.6969C1247.67 108.178 1249.93 114.848 1249.29 115.072" fill="#17282F"/>
<path d="M1126.83 111.883C1125.23 111.883 1123.93 110.588 1123.93 108.983V92.9109C1123.93 91.3101 1125.23 90.0105 1126.83 90.0105C1128.43 90.0105 1129.73 91.3101 1129.73 92.9109V108.983C1129.73 110.588 1128.43 111.883 1126.83 111.883Z" fill="#FF8F06"/>
<path d="M1126.83 111.883C1126.81 111.698 1127.59 111.685 1128.38 110.893C1128.76 110.506 1129.09 109.903 1129.09 109.185C1129.04 108.186 1128.99 107.179 1128.94 106.164C1128.86 103.561 1128.78 100.906 1128.69 98.156C1128.67 96.6069 1128.65 95.0363 1128.63 93.4313C1128.78 92.0113 1127.95 91.1938 1126.83 91.1335C1125.71 91.1938 1124.87 92.007 1125.03 93.4313C1125.01 95.0363 1124.98 96.6069 1124.96 98.156C1124.88 100.906 1124.8 103.561 1124.72 106.164C1124.67 107.184 1124.62 108.186 1124.56 109.185C1124.56 109.903 1124.9 110.506 1125.27 110.897C1126.07 111.685 1126.85 111.698 1126.83 111.883C1126.87 111.982 1126.01 112.369 1124.72 111.573C1124.13 111.168 1123.47 110.398 1123.32 109.292C1123.26 108.255 1123.2 107.218 1123.14 106.164C1123.06 103.561 1122.98 100.906 1122.89 98.156C1122.88 96.6069 1122.86 95.0363 1122.83 93.4313C1122.75 92.7084 1122.94 91.2023 1123.72 90.3761C1124.45 89.4638 1125.62 88.8831 1126.83 88.8917C1128.04 88.8874 1129.21 89.4681 1129.94 90.3761C1130.71 91.2023 1130.91 92.7084 1130.82 93.4313C1130.8 95.0363 1130.78 96.6069 1130.76 98.156C1130.68 100.906 1130.6 103.561 1130.52 106.164C1130.46 107.218 1130.4 108.255 1130.34 109.292C1130.18 110.398 1129.53 111.168 1128.94 111.573C1127.64 112.369 1126.79 111.982 1126.83 111.883" fill="#17282F"/>
<path d="M1159.81 143.708C1159.81 143.708 1155.77 93.8317 1156.97 89.4598C1158.34 84.4511 1171.94 69.6831 1176.74 69.1495C1181.55 68.6159 1182.09 73.9603 1182.09 73.9603C1182.09 73.9603 1188.86 69.3131 1195.45 69.1108C1202.47 68.8957 1203.38 75.0748 1203.38 75.0748C1203.38 75.0748 1207.3 72.1919 1214.02 73.401C1216.85 73.9088 1220.1 78.9389 1220.1 78.9389C1220.1 78.9389 1227.14 75.8967 1230.5 79.0422C1234.72 82.9967 1234.66 90.0666 1234.66 90.0666C1228.12 89.5847 1222.19 94.0383 1222.19 94.0383C1222.19 94.0383 1220.57 115.648 1217.9 126.337C1215.22 137.03 1204.66 145.855 1201.1 151.393L1198.3 188.274L1152.9 164.233L1159.81 143.708" fill="#F9A78D"/>
<path d="M1170.03 93.2119C1169.45 93.2979 1169.26 86.6626 1173.79 80.2812C1178.23 73.8439 1184.53 71.7527 1184.65 72.325C1184.96 72.9145 1179.65 75.6986 1175.62 81.5679C1171.48 87.3554 1170.69 93.3022 1170.03 93.2119" fill="#F57F62"/>
<path d="M1192.23 92.3514C1191.71 92.5537 1190.41 86.6155 1194.11 80.5181C1195.92 77.5404 1198.62 75.5781 1200.77 74.8509C1202.93 74.0892 1204.35 74.2658 1204.38 74.524C1204.55 75.1479 1199.16 76.2495 1196.02 81.7015C1192.76 86.9554 1192.92 92.3643 1192.23 92.3514Z" fill="#F57F62"/>
<path d="M1208.48 90.6904C1207.9 90.5872 1208.88 85.8454 1213.12 82.0157C1217.33 78.1516 1222.14 77.6309 1222.19 78.2161C1222.36 78.8529 1218.33 80.2385 1214.63 83.6766C1210.86 87.0416 1209.1 90.9142 1208.48 90.6904Z" fill="#F57F62"/>
<path d="M1324.58 155.989C1332.16 147.065 1326.38 123.131 1326.38 123.131C1326.38 123.131 1337.09 119.564 1339.77 108.85C1342.45 98.135 1337.09 96.3535 1337.09 96.3535C1335.31 97.2443 1318.79 107.954 1310.31 112.421C1301.83 116.883 1299.15 162.336 1299.15 162.336" fill="#F9A78D"/>
<path d="M1299.15 162.336C1299 162.327 1298.97 160.206 1299.16 156.376C1299.36 152.547 1299.75 147.013 1300.59 140.206C1301.57 133.42 1302.42 125.244 1305.91 116.56C1306.41 115.493 1306.92 114.405 1307.73 113.38C1308.41 112.352 1309.84 111.375 1310.78 110.949C1312.84 109.818 1314.92 108.608 1317.02 107.348C1321.21 104.774 1325.54 102.115 1329.98 99.387C1332.21 98.0187 1334.26 96.6806 1336.59 95.3553L1337.03 95.1099L1337.45 95.295C1339.49 96.1986 1340.43 97.8381 1341.02 99.4818C1341.58 101.143 1341.66 102.817 1341.57 104.404C1341.34 107.563 1340.63 110.588 1339.21 113.299C1336.35 118.703 1331.56 122.189 1326.68 124.018L1327.28 122.912C1329.4 133.02 1329.63 141.664 1328.51 147.585C1328 150.554 1326.94 152.732 1326.17 154.126C1325.23 155.442 1324.64 156.049 1324.58 155.989C1324.49 155.92 1324.93 155.193 1325.67 153.855C1326.26 152.422 1327.11 150.309 1327.45 147.409C1328.23 141.669 1327.73 133.157 1325.48 123.355L1325.29 122.559L1326.08 122.249C1330.42 120.537 1334.89 117.163 1337.33 112.339C1338.57 109.968 1339.2 107.124 1339.39 104.293C1339.64 101.577 1338.76 98.3415 1336.74 97.412L1337.59 97.3517C1335.57 98.5049 1333.33 99.9509 1331.16 101.289C1326.73 104.052 1322.39 106.732 1318.14 109.237C1316.01 110.489 1313.91 111.698 1311.81 112.83C1310.6 113.419 1310.07 113.806 1309.39 114.671C1308.75 115.463 1308.26 116.457 1307.78 117.421C1304.4 125.524 1303.3 133.76 1302.16 140.425C1301.12 147.164 1300.49 152.654 1300.03 156.45C1299.58 160.245 1299.3 162.345 1299.15 162.336" fill="#F57F62"/>
<path d="M969.608 554.801C969.608 554.801 974.887 771.376 969.608 797.784C964.324 824.196 955.52 933.363 955.52 1014.36C955.52 1095.35 958.919 1113.81 958.919 1113.81H1037.55C1037.55 1113.81 1042.98 959.814 1067.25 870.742C1089.8 788.003 1115.75 662.204 1115.75 607.621C1115.75 553.037 1115.75 533.669 1115.75 533.669H976.652L969.608 554.801" fill="#17282F"/>
<path d="M1159.77 533.669C1159.77 533.669 1242.26 762.568 1247.54 829.48C1252.82 896.388 1253.09 1113.81 1253.09 1113.81H1171.67L1160.8 851.197L1098.14 681.047V533.669H1159.77Z" fill="#17282F"/>
<path d="M1115.75 656.92C1115.9 656.959 1115.53 659.179 1114.74 663.155C1113.89 667.553 1112.8 673.22 1111.47 680.023C1108.67 694.679 1104.93 714.168 1100.81 735.709C1096.6 757.452 1092.64 777.117 1089.49 791.295C1087.92 798.382 1086.55 804.096 1085.52 808.029C1084.47 811.958 1083.81 814.105 1083.66 814.071C1083.51 814.032 1083.88 811.816 1084.68 807.836C1085.52 803.442 1086.62 797.775 1087.94 790.972C1090.75 776.312 1094.48 756.828 1098.61 735.278C1102.82 713.539 1106.77 693.879 1109.92 679.7C1111.5 672.613 1112.86 666.895 1113.89 662.962C1114.95 659.037 1115.6 656.886 1115.75 656.92" fill="#33535F"/>
<path d="M1191.01 634.747H1208.45C1208.45 634.747 1212.44 574.362 1202.36 533.669C1192.28 492.979 1140.84 315.755 1140.84 315.755L1083.86 221.588L1053.32 207.874L1153.69 544.319L1191.01 634.747" fill="#33535F"/>
<path d="M1202.31 634.747H1191.01L1152.97 534.551L1159.77 533.669L1166.45 525.283C1171.22 519.31 1168.06 495.433 1165.4 488.272L1116.4 348.954C1121.67 346.049 1127.55 342.43 1127.55 342.43C1127.55 342.43 1180.31 498.75 1189.04 539.736C1197.78 580.718 1202.31 634.747 1202.31 634.747" fill="#20353D"/>
<path d="M957.555 204.23L962.292 174.277L1046.43 212.049V193.696L1083.61 255.72L1165.4 488.272C1168.06 495.433 1171.22 519.31 1166.45 525.283L1159.77 533.669L1071.13 545.132L987.052 241.619L957.555 204.23" fill="#DADBD8"/>
<path d="M971.471 656.92L971.281 642.811C971.281 642.811 971.277 642.811 971.281 642.811C971.346 647.449 971.41 652.17 971.471 656.92Z" fill="#A7A9A8"/>
<path d="M1073.43 663.724C1032.06 663.724 971.501 656.925 971.471 656.921C971.41 652.17 971.346 647.45 971.281 642.811C999.604 645.728 1044.36 649.726 1076.75 649.726C1084.79 649.726 1092.06 649.481 1098.14 648.913V662.454C1091.6 663.358 1083.03 663.724 1073.43 663.724Z" fill="#0F191D"/>
<path d="M1098.14 662.454V648.912C1107.05 648.073 1113.39 646.541 1115.75 644.067C1126.16 633.168 1134.83 580.365 1136.9 536.63L1141.73 536.006C1140.7 560.985 1131.28 627.66 1131.28 627.66C1131.28 627.66 1130.18 651.197 1107.11 660.38C1104.89 661.262 1101.84 661.942 1098.14 662.454" fill="#0F191D"/>
<path d="M1136.9 536.629C1137.44 525.158 1137.53 514.314 1137.08 505.007L1138.11 500.153C1139.73 509.464 1141.36 520.725 1141.78 530.11C1141.85 531.638 1141.83 533.635 1141.73 536.005L1136.9 536.629" fill="#8F9192"/>
<path d="M1056.26 238.947C1056.26 238.947 1094.74 369.914 1094.41 370.89C1094.09 371.867 1137.08 505.028 1137.08 505.028L1145.53 464.993L1085.74 265.354L1061.68 235.887L1056.26 238.947" fill="#FF8F06"/>
<path d="M932.554 216.45C893.083 240.487 891.034 277.824 908.599 320.57C911.508 327.662 917.102 339.869 920.992 348.131C937.976 384.225 973.218 443.133 973.213 456.916C973.205 489.33 944.172 639.82 944.172 639.82C944.172 639.82 1101.55 658.93 1115.75 644.067C1129.95 629.204 1140.88 536.492 1136.32 495.002C1131.28 449.226 1107.7 371.798 1098.14 343.14C1092.4 325.898 1073.4 282.949 1050.75 254.803C1033.82 233.757 1013.65 215.529 991.049 200.723L957.555 178.773L950.644 202.014C950.644 202.014 941.427 211.05 932.554 216.45" fill="#33535F"/>
<path d="M1085.74 226.894C1088.98 226.717 1232.83 273.904 1224.52 270.427L1228.36 266.421L1280.2 188.274L1327.42 216.274C1327.42 216.274 1280.57 305.798 1272.82 319.822C1265.9 332.386 1252.51 342.46 1234.66 342.43C1224.11 342.412 1134.02 327.352 1134.02 327.352L1085.74 226.894" fill="#33535F"/>
<path d="M1143.6 173.123L1154.74 153.415L1204.84 181.914L1197.03 203.614L1143.6 173.123Z" fill="#DADBD8"/>
<path d="M1115.75 400.056C1115.75 400.056 1115.64 400.026 1115.43 399.965C1114.49 396.613 1113.55 393.313 1112.62 390.085L1115.75 400.056Z" fill="#CC4341"/>
<path d="M1115.43 399.966C1111.9 398.963 1079.66 389.819 1050.7 383.119C1020.03 376.015 923.226 322.094 923.226 322.094L1017.92 304.998L1101.95 356.088L1112.62 390.086C1113.55 393.313 1114.49 396.614 1115.43 399.966" fill="#20353D"/>
<path d="M923.23 322.094C922.033 321.186 1068.31 373.209 1098.11 363.829C1127.91 354.453 1137.59 324.895 1148.25 306.719C1167.75 273.44 1202.31 207.298 1202.31 207.298L1140.27 171.884L1078.62 275.019C1078.62 275.019 969.728 230.121 959.693 227.191C949.655 224.26 918.647 220.241 903.479 256.486C886.667 296.646 923.23 322.094 923.23 322.094" fill="#33535F"/>
<path d="M923.225 322.094C923.286 322.12 922.804 321.9 922.132 321.375C921.431 320.868 920.403 320.08 919.125 318.957C916.573 316.72 912.885 313.217 909.021 307.894C905.213 302.597 901.168 295.329 899.404 285.953C898.797 283.642 898.827 281.155 898.595 278.616C898.449 276.069 898.823 273.44 898.939 270.724C899.533 268.078 899.864 265.268 900.738 262.527C901.771 259.846 902.403 256.907 903.84 254.222C906.194 248.628 909.735 243.177 914.262 238.228C918.832 233.314 924.843 229.239 931.806 226.92C938.742 224.545 946.548 224.015 954.315 225.181C958.209 225.689 962.107 227.002 965.799 228.465C969.539 229.897 973.334 231.361 977.19 232.845C1007.91 244.945 1042.12 258.921 1079.02 274.046L1077.72 274.481C1096.78 242.548 1117.6 207.668 1139.3 171.312L1139.87 170.369L1140.82 170.916C1147.9 174.956 1155.49 179.281 1163.13 183.64C1176.74 191.416 1190.18 199.088 1202.86 206.33L1203.8 206.863L1203.3 207.814C1191.11 231.038 1179.1 253.521 1167.31 275.028C1161.39 285.776 1155.54 296.28 1149.6 306.444C1143.74 316.522 1139.09 327.133 1132.87 336.561C1126.82 346.053 1119.03 354.349 1109.69 359.728C1104.94 362.258 1100.21 364.569 1094.9 365.468C1089.67 366.165 1084.58 365.83 1079.62 365.378C1059.84 363.183 1042 358.532 1025.81 354.358C993.476 345.683 967.925 337.258 950.334 331.444C932.765 325.579 923.225 322.094 923.225 322.094C923.213 322.008 923.858 322.176 925.041 322.529C926.315 322.924 928.066 323.467 930.317 324.168C935.033 325.683 941.84 327.864 950.588 330.666C968.248 336.238 993.864 344.44 1026.19 352.904C1042.36 356.979 1060.22 361.531 1079.79 363.614C1084.67 364.044 1089.7 364.337 1094.63 363.657C1099.43 362.852 1104.24 360.533 1108.74 358.097C1117.74 352.865 1125.27 344.827 1131.2 335.476C1137.3 326.195 1141.88 315.652 1147.81 305.398C1153.71 295.252 1159.53 284.744 1165.42 273.999C1177.18 252.488 1189.16 229.996 1201.33 206.782L1201.76 208.262C1189.07 201.024 1175.63 193.356 1162.01 185.589C1154.37 181.23 1146.79 176.897 1139.71 172.857L1141.22 172.461C1119.48 208.787 1098.62 243.646 1079.52 275.557L1079.06 276.331L1078.22 275.987C1041.36 260.789 1007.19 246.709 976.54 234.493C972.701 232.996 968.919 231.524 965.197 230.074C961.462 228.585 957.852 227.346 954.057 226.825C946.543 225.659 938.983 226.132 932.292 228.391C925.566 230.59 919.757 234.472 915.291 239.209C910.871 243.981 907.364 249.274 905.015 254.756C903.578 257.385 902.945 260.251 901.908 262.876C901.026 265.552 900.69 268.289 900.075 270.879C899.946 273.526 899.55 276.099 899.671 278.586C899.877 281.069 899.817 283.504 900.389 285.776C902.016 294.976 905.901 302.188 909.585 307.494C913.316 312.825 916.896 316.384 919.361 318.69C920.592 319.856 921.577 320.683 922.24 321.238C922.692 321.629 922.967 321.87 923.225 322.094" fill="#17282F"/>
<path d="M993.566 542.525L1007.12 515.084L1101.95 516.75L1091.41 545.132L993.566 542.525Z" fill="#33535F"/>
<path d="M993.567 542.525C993.623 542.49 994.329 542.473 995.633 542.473C997.143 542.482 999.002 542.491 1001.27 542.508C1006.39 542.568 1013.35 542.654 1021.92 542.762C1039.42 542.994 1063.65 543.351 1091.44 544.044L1090.39 544.754C1093.58 536.113 1096.96 527.004 1100.42 517.636C1100.58 517.202 1100.74 516.776 1100.9 516.358L1101.93 517.869C1063.75 517.193 1029.66 516.44 1007.11 515.808L1007.77 515.403C1003.49 523.652 1000.04 530.3 997.522 535.162C996.364 537.353 995.422 539.134 994.665 540.567C993.998 541.815 993.623 542.49 993.567 542.525C993.507 542.559 993.761 541.961 994.307 540.756C994.957 539.336 995.77 537.564 996.769 535.391C999.157 530.317 1002.42 523.372 1006.47 514.762L1006.66 514.353L1007.13 514.357C1029.69 514.517 1063.8 514.96 1101.96 515.627L1103.55 515.657L1103 517.141C1102.84 517.554 1102.68 517.985 1102.52 518.415C1099.03 527.774 1095.64 536.879 1092.43 545.516L1092.16 546.247L1091.38 546.226C1063.04 545.421 1038.34 544.47 1020.96 543.777C1012.53 543.429 1005.69 543.145 1000.65 542.938C998.499 542.835 996.734 542.749 995.301 542.68C994.105 542.607 993.511 542.559 993.567 542.525" fill="#17282F"/>
<path d="M1056.87 262.919C1056.56 263.457 1032.53 250.259 1003.2 233.443C973.864 216.618 950.335 202.547 950.645 202.014C950.95 201.476 974.978 214.673 1004.32 231.494C1033.65 248.31 1057.18 262.381 1056.87 262.919" fill="#17282F"/>
<path d="M1089.66 469.984C1089.62 470.6 1066.77 469.64 1038.64 467.841C1010.5 466.038 987.719 464.076 987.762 463.456C987.801 462.837 1010.64 463.801 1038.79 465.604C1066.92 467.402 1089.7 469.365 1089.66 469.984" fill="#17282F"/>
<path d="M1283.16 190.361L1292.68 174.276L1330.57 196.398L1323.2 213.847L1283.16 190.361Z" fill="#DADBD8"/>
<path d="M1234.39 303.509C1234 303.918 1228.33 298.014 1225.14 288.647C1221.88 279.305 1222.72 271.164 1223.28 271.245C1223.96 271.232 1224.14 279.021 1227.26 287.92C1230.28 296.848 1234.93 303.101 1234.39 303.509" fill="#17282F"/>
<path d="M1141.74 318.849C1142.34 318.682 1146.33 330.713 1150.66 345.722C1154.99 360.735 1158.02 373.041 1157.43 373.214C1156.83 373.381 1152.84 361.355 1148.51 346.341C1144.18 331.332 1141.15 319.026 1141.74 318.849Z" fill="#17282F"/>
<path d="M1083.66 307.636C1083.28 308.049 1077.91 301.702 1076.32 291.904C1074.62 282.119 1077.61 274.369 1078.11 274.632C1078.78 274.778 1076.91 282.338 1078.53 291.534C1080.01 300.747 1084.25 307.279 1083.66 307.636" fill="#17282F"/>
<path d="M1097.69 553.764L999.492 550.993L1001.11 542.955C1006.1 543.161 1012.78 543.437 1020.96 543.777C1038.34 544.47 1063.03 545.421 1091.38 546.225L1092.16 546.247L1092.43 545.515C1095.3 537.8 1098.32 529.706 1101.41 521.393L1097.69 553.764" fill="#20353D"/>
<path d="M1092.16 546.247L1091.38 546.226C1063.03 545.421 1038.34 544.47 1020.96 543.777C1012.78 543.437 1006.1 543.162 1001.11 542.955L1001.17 542.684L1091.41 545.133L1101.95 516.75L1101.41 521.393C1098.32 529.706 1095.3 537.8 1092.43 545.516L1092.16 546.247" fill="#0F191D"/>
<path d="M1044.36 230.172L1045.39 231.287L1056.26 238.946L1061.68 235.887L1058.14 223.882L1046.69 215.301L1044.36 230.172" fill="#FF8F06"/>
<path d="M1059.02 215.302C1059.3 215.25 1060.2 219.157 1061.44 225.667L1061.79 227.5L1060.22 226.399C1056.43 223.735 1051.53 220.203 1046.05 216.162L1047.75 215.465C1047.23 218.843 1046.69 222.423 1046.12 226.141C1045.77 228.365 1045.42 230.539 1045.09 232.638L1044.85 234.119L1043.52 233.46C1035.27 229.415 1028.05 225.766 1022.93 223.068C1017.81 220.37 1014.78 218.619 1014.9 218.374C1015.02 218.12 1018.27 219.415 1023.56 221.76C1028.86 224.105 1036.19 227.509 1044.48 231.472L1042.91 232.294C1043.23 230.199 1043.56 228.017 1043.91 225.796C1044.51 222.083 1045.08 218.503 1045.62 215.129L1045.91 213.357L1047.33 214.441C1052.75 218.572 1057.52 222.281 1061.14 225.173L1059.93 225.904C1059.08 219.333 1058.72 215.345 1059.02 215.302Z" fill="#17282F"/>
</g>
<defs>
<clipPath id="clip0_72_24109">
<rect width="2081.84" height="2000" fill="white"/>
</clipPath>
</defs>
</svg>
