<svg width="5422" height="2826" viewBox="0 0 5422 2826" fill="none" xmlns="http://www.w3.org/2000/svg">
<path d="M4939.35 2815.88H394.379C304.651 2579.4 122.492 2011.95 276.395 1642.67C475.013 1166.23 896.516 1676.94 1030.28 1300C1164.04 923.052 1010 274.596 1723.3 51.7076C2436.68 -171.26 2639.28 392.124 2914.93 505.604C3190.5 619.076 3259.41 290.828 3765.98 303.004C4272.64 315.1 4282.78 694.076 4203.72 1046.67C4124.67 1399.27 4228.07 1544.15 4556.32 1462.61C4884.64 1381.08 5212.89 1776.36 4939.35 2815.88" fill="#FF8F06" fill-opacity="0.23"/>
<path d="M1274.35 2825.42C1274.35 2825.42 1219.3 1690.87 723.877 1303.99C228.448 917.107 387.474 1644.96 626.013 1950.77C864.549 2256.6 1219.3 2825.42 1219.3 2825.42H1274.35Z" fill="#FF8F06" fill-opacity="0.59"/>
<path d="M675.652 1482.97C675.652 1482.97 968.156 1731.68 1274.35 2825.42H1236.61C1236.61 2825.42 1014 2026.72 675.652 1482.97Z" fill="white"/>
<path d="M840.164 1517.73C836.452 1532.49 833.028 1547.28 830.012 1562.13C826.796 1576.96 824.164 1591.85 821.276 1606.72C815.94 1636.49 811.18 1666.35 806.828 1696.25L820.46 1687.16C798.244 1680.9 776.148 1674.24 753.796 1668.48L720.332 1659.63L686.708 1651.33C664.244 1645.99 641.732 1640.8 619.068 1636.2C596.412 1631.52 573.676 1627.17 550.652 1623.85C572.116 1632.83 593.86 1640.76 615.7 1648.38C637.516 1656.07 659.492 1663.18 681.516 1670.12L714.628 1680.27L747.892 1689.84C770.028 1696.39 792.412 1702.01 814.692 1708.03L827.004 1711.37L828.316 1698.95C831.5 1668.9 834.268 1638.79 836.468 1608.62C837.34 1593.51 838.476 1578.42 839.02 1563.27C839.772 1548.13 840.116 1532.95 840.164 1517.73" fill="white"/>
<path d="M974.996 1774.31C971.284 1789.07 967.86 1803.86 964.852 1818.71C961.628 1833.53 958.996 1848.43 956.108 1863.29C950.772 1893.07 946.012 1922.92 941.668 1952.83L955.292 1943.74C933.084 1937.48 910.98 1930.81 888.628 1925.06L855.164 1916.2L821.54 1907.91C799.076 1902.56 776.572 1897.38 753.9 1892.77C731.252 1888.1 708.508 1883.75 685.484 1880.43C706.948 1889.4 728.7 1897.34 750.532 1904.96C772.348 1912.64 794.332 1919.76 816.348 1926.69L849.46 1936.84L882.724 1946.42C904.86 1952.96 927.244 1958.59 949.524 1964.61L961.836 1967.94L963.148 1955.52C966.34 1925.48 969.1 1895.37 971.3 1865.2C972.172 1850.08 973.308 1835 973.852 1819.84C974.612 1804.71 974.948 1789.52 974.996 1774.31" fill="white"/>
<path d="M1101.86 2047.45C1096.01 2061.51 1090.44 2075.63 1085.28 2089.87C1079.92 2104.07 1075.13 2118.41 1070.08 2132.68C1060.43 2161.35 1051.32 2190.19 1042.63 2219.12L1057.44 2212.15C1036.4 2202.67 1015.52 2192.83 994.253 2183.86L962.453 2170.17L930.421 2157.03C908.989 2148.43 887.485 2139.99 865.741 2132.11C844.021 2124.15 822.173 2116.5 799.885 2109.83C819.797 2121.86 840.141 2132.91 860.621 2143.66C881.069 2154.47 901.757 2164.74 922.525 2174.84L953.781 2189.75L985.269 2204.12C1006.2 2213.84 1027.52 2222.7 1048.67 2231.94L1060.36 2237.04L1063.48 2224.95C1071.05 2195.7 1078.22 2166.33 1084.83 2136.8C1087.92 2121.99 1091.25 2107.23 1094.03 2092.32C1097 2077.47 1099.57 2062.5 1101.86 2047.45" fill="white"/>
<path d="M147.679 2369.49C332.545 2603.05 859.181 2749.07 1014.59 2787.99C1042.32 2794.91 1058.25 2798.44 1058.25 2798.44H1087.33C1087.33 2798.44 893.077 2436 659.141 2247.9C425.205 2059.88 200.436 1958.96 94.9265 1970.38C-10.5831 1981.88 -70.2487 2094.23 147.679 2369.49" fill="#FF8F06" fill-opacity="0.59"/>
<path d="M244.395 2118.95C528.084 2308.7 811.612 2577.96 1014.59 2787.99C1042.32 2794.91 1058.25 2798.44 1058.25 2798.44H1081.55C525.3 2199.73 244.395 2118.95 244.395 2118.95Z" fill="white"/>
<path d="M542.477 2195.03C552.741 2225.73 563.989 2255.99 575.805 2286C581.541 2301.07 587.797 2315.92 593.797 2330.88C599.749 2345.87 606.245 2360.6 612.461 2375.47L620.261 2361.03C590.589 2364.9 561.045 2369.66 531.461 2374.15C501.948 2379.05 472.405 2383.78 442.989 2389.32C428.255 2391.93 413.548 2394.71 398.874 2397.68C384.18 2400.54 369.496 2403.47 354.858 2406.67C325.54 2412.83 296.308 2419.53 267.236 2427.24C297.271 2425.62 327.143 2422.99 356.933 2419.82C371.848 2418.35 386.717 2416.6 401.577 2414.79C416.455 2413.11 431.302 2411.21 446.12 2409.15C475.814 2405.35 505.377 2400.75 534.965 2396.32C564.493 2391.47 594.061 2386.89 623.485 2381.43L637.061 2378.91L631.293 2366.99C624.269 2352.48 617.533 2337.85 610.253 2323.47C603.029 2309.06 596.045 2294.55 588.549 2280.26C573.893 2251.53 558.685 2223.06 542.477 2195.03" fill="white"/>
<path d="M716.789 2342.59C720.005 2356.94 723.477 2371.19 727.357 2385.31C731.037 2399.49 735.253 2413.47 739.253 2427.55L752.181 2469.42L765.885 2511.01L773.965 2496.74C751.877 2500.99 729.701 2504.79 707.717 2509.57L674.693 2516.47L641.789 2523.97C619.885 2529.14 598.013 2534.49 576.261 2540.43C554.493 2546.29 532.797 2552.48 511.301 2559.74C533.933 2558.25 556.357 2555.72 578.717 2552.86C601.093 2550.06 623.349 2546.68 645.573 2543.11L678.853 2537.51L712.021 2531.32C734.165 2527.37 756.117 2522.44 778.165 2517.96L790.813 2515.39L786.237 2503.69L770.309 2462.9L753.597 2422.39C747.717 2408.99 742.053 2395.52 735.861 2382.25C729.853 2368.9 723.453 2355.7 716.789 2342.59" fill="white"/>
<path d="M4724.4 1029.62C4724.4 1029.62 4315.67 1227.17 4162.28 1720.24C4036.36 2125.06 4172.36 2283.68 4225.09 2327.5C4205.82 2471.33 4189.1 2635.13 4176.72 2821.51L4213.66 2813.76C4213.66 2813.76 4226.92 2610.69 4266.98 2332.65C4480.53 2246.7 4591.84 2012.4 4590.27 1737.36C4588.64 1452.67 4724.4 1029.62 4724.4 1029.62" fill="#FF8F06" fill-opacity="0.59"/>
<path d="M4379.65 1880.86L4410.24 1864.66L4440.57 1847.93C4460.69 1836.62 4480.74 1825.15 4500.52 1813.15C4520.33 1801.21 4539.98 1788.98 4559.15 1775.8C4537.29 1783.77 4515.93 1792.69 4494.73 1801.92C4473.49 1811.08 4452.52 1820.76 4431.63 1830.61L4400.42 1845.63L4369.49 1861.16C4362.33 1864.69 4355.26 1868.41 4348.18 1872.09C4368.37 1794.56 4391.82 1709.81 4418.75 1619.82C4426.53 1615.3 4434.3 1610.73 4441.97 1605.96L4466.41 1591.03L4490.61 1575.57C4506.67 1565.1 4522.65 1554.47 4538.4 1543.3C4554.17 1532.2 4569.8 1520.8 4584.99 1508.42C4567.4 1515.51 4550.24 1523.56 4533.21 1531.92C4516.17 1540.2 4499.37 1549.03 4482.63 1558.01L4457.65 1571.74L4432.89 1586C4431.28 1586.91 4429.7 1587.9 4428.09 1588.83C4462.05 1477.21 4501.27 1358.03 4546.25 1234.77C4546.25 1234.77 4468.4 1353.28 4389.16 1600.6C4381.84 1579.21 4374.39 1557.88 4366.62 1536.66C4361.28 1522.57 4356.13 1508.4 4350.53 1494.4C4345.09 1480.35 4339.32 1466.41 4333.33 1452.56C4336.5 1467.48 4339.89 1482.3 4343.61 1497.01C4347.16 1511.78 4351.16 1526.39 4354.96 1541.06C4362.91 1570.28 4371.29 1599.34 4380 1628.28L4380.23 1629.04C4357.86 1701.56 4335.62 1784.34 4315.21 1877.68C4307.3 1856.56 4299.22 1835.49 4290.77 1814.56C4284.89 1800.6 4279.25 1786.56 4273.06 1772.72C4267.08 1758.8 4260.69 1745.02 4254.02 1731.34C4257.2 1746.23 4260.64 1761.01 4264.49 1775.67C4268.13 1790.39 4272.33 1804.92 4276.29 1819.53C4284.64 1848.62 4293.52 1877.52 4302.81 1906.28L4306.64 1918.16H4306.65C4291.54 1991.43 4277.66 2070.82 4265.72 2156.41C4255.5 2138.04 4245.16 2119.74 4234.49 2101.6C4226.63 2088.67 4219 2075.61 4210.84 2062.83C4202.86 2049.95 4194.52 2037.26 4185.91 2024.7C4191.24 2038.96 4196.82 2053.08 4202.78 2067.01C4208.56 2081.04 4214.85 2094.79 4220.92 2108.66C4233.45 2136.2 4246.48 2163.48 4259.89 2190.56L4260.85 2192.49C4254.64 2240.21 4249.01 2289.73 4244.15 2341.19C4244.15 2341.19 4252.76 2288.6 4271.76 2197.24L4275.83 2194.35C4294.63 2180.97 4313.68 2167.93 4332.17 2154.12L4360.04 2133.59L4387.57 2112.59C4405.82 2098.44 4423.97 2084.14 4441.76 2069.36C4459.6 2054.64 4477.24 2039.65 4494.26 2023.8C4473.81 2034.89 4454 2046.87 4434.37 2059.11C4414.71 2071.29 4395.4 2083.96 4376.19 2096.77L4347.53 2116.21L4319.21 2136.13C4305.44 2145.68 4291.94 2155.63 4278.44 2165.57C4293.61 2094.6 4314.17 2004.72 4340.75 1900.91C4353.78 1894.36 4366.81 1887.78 4379.65 1880.86" fill="white"/>
<path d="M4364.88 2782.27C4364.88 2782.27 4488.17 1867.66 4950.06 1589.96C5411.95 1312.27 5223.88 1890.15 4993.61 2120.64C4763.35 2351.13 4413.37 2786.22 4413.37 2786.22L4364.88 2782.27" fill="#FF8F06" fill-opacity="0.59"/>
<path d="M4980.73 1738.33C4980.73 1738.33 4706.7 1918.71 4364.88 2782.27L4398.12 2784.98C4398.12 2784.98 4646.86 2154.29 4980.73 1738.33" fill="white"/>
<path d="M4833.53 1754.67C4835.84 1766.89 4837.88 1779.11 4839.55 1791.35C4841.41 1803.58 4842.74 1815.83 4844.31 1828.07C4847.05 1852.56 4849.27 1877.07 4851.13 1901.59L4839.73 1893.27C4859.7 1889.79 4879.61 1885.97 4899.68 1882.92L4929.73 1878.15L4959.89 1873.85C4980.04 1871.13 5000.21 1868.55 5020.48 1866.44C5040.73 1864.28 5061.05 1862.39 5081.55 1861.35C5062.05 1867.08 5042.37 1871.95 5022.64 1876.55C5002.91 1881.21 4983.09 1885.39 4963.23 1889.43L4933.4 1895.27L4903.46 1900.64C4883.54 1904.35 4863.45 1907.3 4843.43 1910.58L4832.37 1912.39L4832.03 1902.24C4831.21 1877.68 4830.75 1853.11 4830.81 1828.52C4831.03 1816.22 4831.03 1803.93 4831.54 1791.62C4831.88 1779.31 4832.58 1766.99 4833.53 1754.67" fill="white"/>
<path d="M4697.86 1952.73C4700.16 1964.95 4702.2 1977.17 4703.87 1989.41C4705.73 2001.64 4707.06 2013.89 4708.63 2026.13C4711.37 2050.62 4713.59 2075.13 4715.45 2099.66L4704.05 2091.32C4724.02 2087.84 4743.93 2084.04 4764 2080.98L4794.05 2076.21L4824.21 2071.91C4844.36 2069.19 4864.53 2066.61 4884.8 2064.51C4905.05 2062.35 4925.37 2060.45 4945.87 2059.42C4926.37 2065.14 4906.69 2070.01 4886.96 2074.61C4867.23 2079.27 4847.41 2083.45 4827.55 2087.49L4797.72 2093.33L4767.78 2098.7C4747.86 2102.41 4727.77 2105.36 4707.75 2108.64L4696.69 2110.45L4696.35 2100.3C4695.52 2075.74 4695.07 2051.17 4695.13 2026.59C4695.35 2014.28 4695.35 2001.99 4695.86 1989.68C4696.2 1977.37 4696.9 1965.06 4697.86 1952.73" fill="white"/>
<path d="M4568.11 2164.78C4572.33 2176.58 4576.3 2188.41 4579.91 2200.32C4583.69 2212.19 4586.97 2224.15 4590.48 2236.07C4597.09 2259.97 4603.21 2283.96 4608.96 2308.02L4596.37 2301.31C4615.53 2295.15 4634.57 2288.68 4653.89 2282.94L4682.81 2274.14L4711.89 2265.8C4731.33 2260.37 4750.83 2255.08 4770.5 2250.25C4790.16 2245.37 4809.91 2240.75 4829.98 2236.95C4811.65 2245.26 4793 2252.75 4774.25 2259.98C4755.53 2267.27 4736.63 2274.09 4717.67 2280.79L4689.16 2290.61L4660.47 2299.99C4641.4 2306.36 4622.03 2312 4602.8 2317.96L4592.17 2321.26L4590.21 2311.24C4585.47 2287.01 4581.09 2262.72 4577.22 2238.35C4575.47 2226.12 4573.51 2213.94 4572.05 2201.67C4570.41 2189.43 4569.13 2177.12 4568.11 2164.78" fill="white"/>
<path d="M5238.84 2638.31C5045.02 2785.01 4605.01 2790.11 4476.05 2788.31C4453.05 2787.97 4439.93 2787.42 4439.93 2787.42L4417.38 2781.29C4417.38 2781.29 4646.31 2534.12 4868.38 2433.9C5090.43 2333.74 5286.56 2300.87 5365.94 2332.18C5445.29 2363.55 5467.32 2465.42 5238.84 2638.31Z" fill="#FF8F06" fill-opacity="0.59"/>
<path d="M5217.93 2418.78C4956.91 2509.84 4678.85 2664.12 4476.05 2788.31C4453.05 2787.97 4439.93 2787.42 4439.93 2787.42L4421.87 2782.51C4982.6 2423.81 5217.93 2418.78 5217.93 2418.78Z" fill="white"/>
<path d="M4970.28 2416.45C4955.69 2438.7 4940.44 2460.38 4924.79 2481.74C4917.08 2492.52 4909.03 2503 4901.14 2513.63C4893.29 2524.28 4885.07 2534.63 4877.04 2545.14L4874.11 2532.01C4896.29 2541.35 4918.18 2551.35 4940.16 2561.15C4961.99 2571.27 4983.88 2581.25 5005.5 2591.85C5016.37 2597.03 5027.18 2602.34 5037.92 2607.79C5048.7 2613.16 5059.45 2618.58 5070.12 2624.21C5091.52 2635.29 5112.76 2646.77 5133.64 2659.03C5110.69 2651.41 5088.09 2643.02 5065.67 2634.23C5054.42 2629.92 5043.26 2625.39 5032.12 2620.83C5020.95 2616.35 5009.84 2611.71 4998.8 2606.95C4976.58 2597.68 4954.64 2587.8 4932.65 2578.04C4910.8 2567.96 4888.85 2558.09 4867.2 2547.55L4857.22 2542.68L4864.27 2534.43C4872.84 2524.38 4881.23 2514.17 4889.98 2504.27C4898.7 2494.34 4907.25 2484.27 4916.15 2474.49C4933.72 2454.75 4951.66 2435.32 4970.28 2416.45" fill="white"/>
<path d="M4803.22 2497.02C4797.63 2507.75 4791.85 2518.35 4785.8 2528.75C4779.88 2539.24 4773.59 2549.48 4767.45 2559.82L4748.38 2590.38L4728.77 2620.55L4725.59 2607.51C4741.8 2615.54 4758.18 2623.24 4774.2 2631.66L4798.32 2644.11L4822.23 2656.99C4838.11 2665.72 4853.92 2674.58 4869.51 2683.88C4885.12 2693.13 4900.62 2702.63 4915.72 2712.91C4898.48 2706.97 4881.64 2700.24 4864.92 2693.24C4848.16 2686.31 4831.63 2678.93 4815.16 2671.42L4790.56 2659.95L4766.16 2648.04C4749.84 2640.24 4733.88 2631.69 4717.75 2623.49L4708.49 2618.78L4714.56 2610.44L4735.73 2581.38L4757.44 2552.69C4764.89 2543.29 4772.19 2533.77 4779.87 2524.52C4787.4 2515.18 4795.22 2506.04 4803.22 2497.02" fill="white"/>
<path d="M4471.05 228.459V1283.17C4471.05 1337.43 4422.73 1381.46 4363.13 1381.46H2538.84C2479.25 1381.46 2430.93 1337.43 2430.93 1283.17V228.459C2430.93 227.707 2430.93 226.963 2431 226.283C2432.21 173.003 2480.07 130.163 2538.84 130.163H4363.13C4421.9 130.163 4469.77 173.003 4470.97 226.283C4471.05 226.963 4471.05 227.707 4471.05 228.459" fill="#FFE7CA"/>
<path d="M2726.84 884.875H2680.24V1243.11H2726.84V884.875Z" fill="#FF8F06"/>
<path d="M3911.81 353.459V1243.11H2612.92V1249.64H3911.81H3918.35V353.459H3911.81" fill="#FF8F06"/>
<path d="M3770.4 455.172H3723.79V1243.11H3770.4V455.172Z" fill="#FF8F06"/>
<path d="M3561.68 563.051H3515.08V1243.11H3561.68V563.051Z" fill="#FF8F06"/>
<path d="M3352.98 779.499H3306.37V1243.11H3352.98V779.499Z" fill="#FF8F06"/>
<path d="M3144.27 661.123H3097.66V1243.11H3144.27V661.123Z" fill="#FF8F06"/>
<path d="M2935.56 779.499H2888.95V1243.11H2935.56V779.499Z" fill="#FF8F06"/>
<path d="M2707.66 785.787L2699.43 773.211L3121.19 497.107L3329.46 648.147L3742.41 319.099L3751.78 330.859L3329.89 667.027L3120.75 515.363L2707.66 785.787" fill="#FF8F06"/>
<path d="M3704.43 310.899L3749.33 367.947L3778.53 299.219L3704.43 310.899Z" fill="#BA6600"/>
<path d="M2907.89 1279.12H2898.17V1269.4H2907.89V1279.12Z" fill="#9AB4DB"/>
<path d="M2926.33 1279.12H2916.62V1269.4H2926.33V1279.12Z" fill="#9AB4DB"/>
<path d="M3116.6 1279.12H3106.88V1269.4H3116.6V1279.12Z" fill="#9AB4DB"/>
<path d="M3135.04 1279.12H3125.32V1269.4H3135.04V1279.12Z" fill="#9AB4DB"/>
<path d="M3325.31 1279.12H3315.6V1269.4H3325.31V1279.12Z" fill="#9AB4DB"/>
<path d="M3343.76 1279.12H3334.04V1269.4H3343.76V1279.12Z" fill="#9AB4DB"/>
<path d="M3534.02 1279.12H3524.3V1269.4H3534.02V1279.12Z" fill="#9AB4DB"/>
<path d="M3552.47 1279.12H3542.75V1269.4H3552.47V1279.12Z" fill="#9AB4DB"/>
<path d="M3742.73 1279.12H3733.01V1269.4H3742.73V1279.12Z" fill="#9AB4DB"/>
<path d="M3761.18 1279.12H3751.46V1269.4H3761.18V1279.12Z" fill="#9AB4DB"/>
<path d="M4470.97 226.283H2431C2432.2 173.003 2480.07 130.163 2538.84 130.163H4363.13C4421.9 130.163 4469.77 173.003 4470.97 226.283Z" fill="#FF8F06"/>
<path d="M2569.47 178.227C2569.47 188.579 2561.08 196.971 2550.72 196.971C2540.37 196.971 2531.98 188.579 2531.98 178.227C2531.98 167.875 2540.37 159.483 2550.72 159.483C2561.08 159.483 2569.47 167.875 2569.47 178.227Z" fill="white"/>
<path d="M2647.74 178.227C2647.74 188.579 2639.35 196.971 2629 196.971C2618.64 196.971 2610.25 188.579 2610.25 178.227C2610.25 167.875 2618.64 159.483 2629 159.483C2639.35 159.483 2647.74 167.875 2647.74 178.227Z" fill="white"/>
<path d="M2726.01 178.227C2726.01 188.579 2717.62 196.971 2707.27 196.971C2696.92 196.971 2688.53 188.579 2688.53 178.227C2688.53 167.875 2696.92 159.483 2707.27 159.483C2717.62 159.483 2726.01 167.875 2726.01 178.227Z" fill="white"/>
<path d="M4322.88 864.667C4322.88 864.667 4228.36 980.523 4146.71 951.107C4110.53 938.075 4096.81 915.731 4092.66 894.931C4087.56 868.763 4097.66 844.931 4097.66 844.931L4118.84 838.491L4139.63 783.275L4240.17 718.915C4249.85 721.307 4262.14 724.715 4272.94 727.747C4274 742.691 4275.6 760.675 4277.78 774.235C4278.57 779.019 4279.43 783.275 4280.39 786.683C4286.88 809.819 4322.88 864.667 4322.88 864.667" fill="#F09E9F"/>
<path d="M4277.78 774.236C4264.74 805.62 4215.92 897.54 4092.66 894.932C4087.56 868.764 4097.66 844.932 4097.66 844.932L4118.84 838.492L4139.63 783.276L4240.17 718.916C4249.85 721.308 4262.14 724.716 4272.94 727.748C4274 742.692 4275.6 760.676 4277.78 774.236" fill="#D97781"/>
<path d="M4073.18 673.564C4069.11 689.9 4047.11 698.468 4024.04 692.716C4000.99 686.956 3985.6 669.052 3989.68 652.716C3993.76 636.38 4015.76 627.812 4038.81 633.564C4061.88 639.324 4077.26 657.228 4073.18 673.564Z" fill="#D97781"/>
<path d="M4298.67 652.363C4294.7 734.635 4219.61 801.019 4144.92 800.635C4070.22 800.243 4027.72 733.235 4031.68 650.963C4035.65 568.691 4031.43 502.691 4170.6 502.691C4245.3 502.691 4302.64 570.083 4298.67 652.363" fill="#F09E9F"/>
<path d="M4095.76 651.66C4095.76 651.66 4086.87 674.812 4095.48 697.764" stroke="#DF3641" stroke-width="1.33333" stroke-miterlimit="10" stroke-linecap="round"/>
<path d="M4139.63 646.355C4139.63 650.611 4138.5 654.059 4137.12 654.059C4135.73 654.059 4134.61 650.611 4134.61 646.355C4134.61 642.091 4135.73 638.643 4137.12 638.643C4138.5 638.643 4139.63 642.091 4139.63 646.355Z" stroke="#271613" stroke-width="1.33333" stroke-miterlimit="10" stroke-linecap="round"/>
<path d="M4054.32 638.643C4054.32 642.899 4053.2 646.355 4051.81 646.355C4050.42 646.355 4049.3 642.899 4049.3 638.643C4049.3 634.387 4050.42 630.931 4051.81 630.931C4053.2 630.931 4054.32 634.387 4054.32 638.643Z" stroke="#271613" stroke-width="1.33333" stroke-miterlimit="10" stroke-linecap="round"/>
<path d="M4041.01 571.692C4041.01 571.692 4092.65 626.204 4233.23 586.036C4233.23 586.036 4237.72 630.284 4257.71 646.356C4277.69 662.42 4330.24 551.38 4257.71 533.748C4185.17 516.108 4128.16 517.188 4119.55 518.26C4110.94 519.34 4092.62 521.492 4081.88 525.788C4071.13 530.092 4034.64 558.708 4034.64 558.708L4041.01 571.692" fill="#D97781"/>
<path d="M4023.8 540.851C4023.8 540.851 4005.37 627.635 4031.44 663.139C4031.44 663.139 4038.14 591.059 4049.62 554.483C4061.09 517.899 4023.8 540.851 4023.8 540.851Z" fill="#271613"/>
<path d="M4319.3 676.468L4276.58 691.428C4276.58 691.428 4248.1 646.788 4245.94 571.508C4245.94 571.508 4137.3 605.988 4062.02 573.668C4039.62 564.068 4024.42 552.548 4014.74 540.148C4014.42 539.748 4014.1 539.268 4013.78 538.868C3991.86 509.668 3999.78 475.428 4017.38 448.308C4051.78 395.188 4230.82 367.828 4286.58 470.548C4287.54 472.308 4288.42 474.068 4289.3 475.828C4293.3 483.988 4296.5 492.948 4298.82 502.708C4298.82 502.708 4387.46 533.668 4319.3 676.468" fill="#271613"/>
<path d="M4286.58 470.547C4247.7 446.947 4163.78 405.747 4091.7 435.507C4026.66 462.307 4014.58 510.067 4013.78 538.867C3991.86 509.667 3999.78 475.427 4017.38 448.307C4051.78 395.187 4230.82 367.827 4286.58 470.547Z" fill="#622D1A"/>
<path d="M4341.9 694.508C4341.9 711.34 4322.63 724.988 4298.86 724.988C4275.1 724.988 4255.83 711.34 4255.83 694.508C4255.83 677.668 4275.1 664.028 4298.86 664.028C4322.63 664.028 4341.9 677.668 4341.9 694.508Z" fill="#F09E9F"/>
<path d="M4042.36 606.804C4042.36 606.804 4064.33 592.819 4081.88 611.107" stroke="#271613" stroke-width="1.33333" stroke-miterlimit="10" stroke-linecap="round"/>
<path d="M4130.41 611.507C4130.41 611.507 4153.33 597.523 4171.64 615.811" stroke="#271613" stroke-width="1.33333" stroke-miterlimit="10" stroke-linecap="round"/>
<path d="M4284.8 657.739L4257.71 646.355C4257.71 646.355 4246.49 720.907 4184.08 754.459C4182.06 743.883 4170.71 705.019 4112.88 707.211C4065.29 709.011 4060.56 729.795 4061.78 741.635C4047.09 723.251 4036.64 696.867 4031.39 663.163C4031.39 663.163 4000.06 732.371 4025.86 788.275C4051.71 844.243 4110.65 864.667 4165.07 848.547C4219.54 832.427 4287.37 755.811 4284.8 657.739" fill="#271613"/>
<path d="M4087.29 726.756C4087.29 726.756 4115.27 727.475 4148.25 720.299C4148.25 720.299 4145.39 741.819 4122.44 750.427C4099.49 759.027 4088.72 739.668 4087.29 726.756" fill="white"/>
<path d="M3962.94 1830.41C3957.24 1843.97 3947.46 1827.59 3947.46 1827.59C3947.46 1827.59 3945.44 1852.27 3935.64 1843.28C3926.66 1834.99 3920.86 1806.26 3920 1801.84C3920.32 1804.45 3921.82 1815.41 3921.82 1823.97C3921.82 1833.81 3910.96 1851.05 3900.28 1811.04C3894.16 1788.11 3894 1738.59 3895 1700.4C3895.7 1671.89 3897.08 1649.71 3897.08 1649.71L3951.6 1652.47L3955.86 1652.68C3955.86 1652.68 3968.63 1816.84 3962.94 1830.41" fill="#F09E9F"/>
<path d="M3958.41 1696.99L3895.01 1700.4C3895.7 1671.89 3897.09 1649.71 3897.09 1649.71L3951.61 1652.47C3954.85 1673.48 3958.41 1696.99 3958.41 1696.99" fill="#D77980"/>
<path d="M4015.67 892.948C4015.67 892.948 4014.45 894.044 4012.29 896.42C3998.62 911.532 3947.19 978.38 3930.21 1144.76C3910.56 1337.33 3877.37 1648.25 3877.37 1648.25L3962.01 1675.51L4015.67 892.948" fill="#5B8ED2"/>
<path d="M3870.46 1647.66L3872.07 1604.66L3989.96 1609.25L3958.02 1678.76L3870.46 1647.66" fill="#6DA8E0"/>
<path d="M4311.04 2659.18L4315.34 2712.97H4456.28L4447.67 2652.72L4311.04 2659.18Z" fill="#F09E9F"/>
<path d="M4600.1 2815.88H4285.24C4285.13 2807.69 4285.56 2799.5 4286.41 2791.52C4290.99 2747.15 4307.48 2709.02 4307.48 2709.02L4456.26 2710.83C4456.26 2710.83 4521.21 2721.95 4562.81 2747.75C4583.6 2760.67 4592.92 2777.75 4597.07 2791.52C4601.16 2805.3 4600.1 2815.88 4600.1 2815.88" fill="#142036"/>
<path d="M4600.1 2815.88H4285.24C4285.13 2807.69 4285.56 2799.5 4286.41 2791.52H4597.07C4601.16 2805.3 4600.1 2815.88 4600.1 2815.88Z" fill="#2B45A1"/>
<path d="M4113.6 2659.18L4109.29 2712.97H3968.36L3976.97 2652.72L4113.6 2659.18Z" fill="#F09E9F"/>
<path d="M3824.54 2815.88H4139.4C4139.5 2807.69 4139.08 2799.5 4138.23 2791.52C4133.65 2747.15 4117.16 2709.02 4117.16 2709.02L3968.38 2710.83C3968.38 2710.83 3903.43 2721.95 3861.83 2747.75C3841.03 2760.67 3831.72 2777.75 3827.57 2791.52C3823.48 2805.3 3824.54 2815.88 3824.54 2815.88" fill="#142036"/>
<path d="M3824.54 2815.88H4139.4C4139.5 2807.69 4139.08 2799.5 4138.23 2791.52H3827.57C3823.48 2805.3 3824.54 2815.88 3824.54 2815.88Z" fill="#2B45A1"/>
<path d="M4483.8 2673.88H4274.38L4176.94 1902.17L4155.82 2317.61L4141.64 2675.32L3946.52 2672.45L3947.4 1397.24L4382.05 1427.19L4386.2 1484.32L4483.8 2673.88" fill="#2B45A1"/>
<path d="M4386.2 1484.32C4098.9 1560.66 3947.4 1463.63 3947.4 1463.63V1397.24L4382.05 1427.19L4386.2 1484.32" fill="#2A3C97"/>
<path d="M4176.94 1902.17L4155.82 2317.61L4154.96 2315.28L4086.83 1707.05H4154.96L4176.94 1902.17" fill="#2A3C97"/>
<path d="M4099.91 1492.52C4099.91 1492.52 4115.29 1685.06 4147.47 1728.91" stroke="#29367F" stroke-width="1.33333" stroke-miterlimit="10" stroke-linecap="round" stroke-linejoin="round"/>
<path d="M4064.94 1492.52C4064.94 1492.52 4068.39 1600.75 4111.42 1599.79" stroke="#29367F" stroke-width="1.33333" stroke-miterlimit="10" stroke-linecap="round" stroke-linejoin="round"/>
<path d="M4341.66 1484.32L4456.28 2640.29" stroke="#29367F" stroke-width="1.33333" stroke-miterlimit="10" stroke-linecap="round" stroke-linejoin="round"/>
<path d="M4351.05 1579.03C4351.05 1579.03 4306.92 1582.04 4285.94 1492.52" stroke="#29367F" stroke-width="1.33333" stroke-miterlimit="10" stroke-linecap="round" stroke-linejoin="round"/>
<path d="M4274.72 2640.29H4471.2" stroke="#29367F" stroke-width="1.33333" stroke-miterlimit="10" stroke-linecap="round" stroke-linejoin="round"/>
<path d="M4135.43 2640.29H3952.95" stroke="#29367F" stroke-width="1.33333" stroke-miterlimit="10" stroke-linecap="round" stroke-linejoin="round"/>
<path d="M4308.53 841.802C4308.53 841.802 4371.31 851.058 4414.34 894.986C4457.37 938.914 4379.91 1356.34 4392.82 1463.92C4392.82 1463.92 4044.24 1525.35 3930.21 1434.98C3930.21 1434.98 3945.05 1113.01 3977.42 962.738C3986.81 919.194 4016.39 882.618 4057.2 864.754C4068.98 859.594 4082.03 854.554 4095.76 850.354C4095.76 850.354 4088.9 917.93 4150.22 926.002C4211.54 934.074 4294.19 871.93 4308.53 841.802" fill="#4C6EBF"/>
<path d="M4132.29 1338.08L4096.67 1346.3C4096.67 1346.3 4078.74 1305.42 4057.22 1296.81C4035.71 1288.2 3992.68 1268.12 3979.76 1265.97C3966.85 1263.82 3964.7 1276.72 3979.76 1288.2C3994.83 1299.68 4018.49 1316.89 4018.49 1316.89C4018.49 1316.89 3984.07 1315.22 3955.38 1306.01C3926.69 1296.81 3893.7 1273.14 3888.32 1271.35C3882.94 1269.56 3869.67 1267.4 3871.82 1281.39C3873.97 1295.38 3926.69 1334.11 3956.09 1342.36C3956.09 1342.36 3927.4 1343.43 3910.56 1337.33C3893.7 1331.24 3873.97 1315.1 3867.16 1317.61C3860.35 1320.12 3859.27 1332.67 3864.65 1337.69C3864.65 1337.69 3856.04 1348.45 3867.88 1362.8C3867.88 1362.8 3865 1371.76 3880.43 1385.39C3895.84 1399.01 3938.69 1423.04 3992.94 1425.91C4047.18 1428.78 4124.64 1425.91 4124.64 1425.91L4132.29 1338.08Z" fill="#F09E9F"/>
<path d="M3946.76 1367.1C3899.96 1366.56 3864.65 1337.69 3864.65 1337.69" stroke="#DF3641" stroke-miterlimit="10" stroke-linecap="round"/>
<path d="M3867.88 1362.79C3867.88 1362.79 3899.6 1397.22 3949.81 1397.22" stroke="#DF3641" stroke-miterlimit="10" stroke-linecap="round"/>
<path d="M4318.56 946.443C4348.68 853.923 4398.17 876.515 4419.69 901.259C4441.21 926.003 4501.1 1071.6 4499.66 1344.15C4499.66 1344.15 4500.38 1382.15 4487.47 1398.3C4474.56 1414.43 4390.64 1433.8 4330.4 1434.87C4270.15 1435.95 4117.38 1428.42 4117.38 1428.42L4126.15 1335.91L4318.56 1295.02C4318.56 1295.02 4288.44 1038.96 4318.56 946.443Z" fill="#5B8ED2"/>
<path d="M4126.15 1335.91L4168.24 1326.97L4192.59 1442.4L4117.38 1428.42L4126.15 1335.91" fill="#6DA8E0"/>
<path d="M4308.53 841.803C4308.53 841.803 4274.96 934.411 4190.56 964.531L4135.07 922.395C4135.07 922.395 4245.33 899.315 4308.53 841.803Z" fill="#6DA8E0"/>
<path d="M4130.66 920.603L4081.04 951.947C4081.04 951.947 4048.18 879.459 4095.76 850.355C4095.76 850.355 4098.46 904.347 4130.66 920.603Z" fill="#6DA8E0"/>
<path d="M4133.26 961.571C4133.26 967.179 4128.71 971.73 4123.1 971.73C4117.49 971.73 4112.94 967.179 4112.94 961.571C4112.94 955.963 4117.49 951.41 4123.1 951.41C4128.71 951.41 4133.26 955.963 4133.26 961.571Z" fill="#6DA8E0"/>
<path d="M4127.93 1013.47C4127.93 1019.08 4123.39 1023.63 4117.77 1023.63C4112.17 1023.63 4107.61 1019.08 4107.61 1013.47C4107.61 1007.87 4112.17 1003.31 4117.77 1003.31C4123.39 1003.31 4127.93 1007.87 4127.93 1013.47Z" fill="#6DA8E0"/>
<path d="M1039.8 2279.23L959.165 2818.95H904.861L987.141 2279.23H1039.8" fill="#FF8F06"/>
<path d="M999.156 2247.14H945.82L922.204 2089.15L913.484 2030.76H966.14L975.052 2089.15L999.156 2247.14Z" fill="#FF8F06"/>
<path d="M1244.7 2247.14H1191.43L1167.81 2089.15L1159.09 2030.76H1211.75L1220.65 2089.15L1244.7 2247.14Z" fill="#F46793"/>
<path d="M1197.76 2279.23L1117.13 2818.95H1062.83L1145.11 2279.23H1197.76Z" fill="#B06100"/>
<path d="M1540.02 2279.23L1620.65 2818.95H1674.95L1592.68 2279.23H1540.02Z" fill="#B06100"/>
<path d="M1314.59 2279.23L1395.22 2818.95H1449.52L1367.24 2279.23H1314.59" fill="#FF8F06"/>
<path d="M966.14 2030.76L975.052 2089.15H922.204L913.484 2030.76H966.14Z" fill="#B06100"/>
<path d="M1220.65 2089.15H1167.81L1159.09 2030.76H1211.75L1220.65 2089.15Z" fill="#F0376D"/>
<path d="M1164.59 1693.07H795.812L855.437 2038.53H1224.21L1164.59 1693.07Z" fill="#B06100"/>
<path d="M1205.57 1693.07H836.789L896.413 2038.53H1265.19L1205.57 1693.07Z" fill="#FF8F06"/>
<path d="M1625.59 2300.62H908.156C886.34 2300.62 868.66 2282.94 868.66 2261.12C868.66 2239.32 886.34 2221.64 908.156 2221.64H1625.59C1647.4 2221.64 1665.08 2239.32 1665.08 2261.12C1665.08 2282.94 1647.4 2300.62 1625.59 2300.62Z" fill="#FF8F06"/>
<path d="M1204.77 1082.23C1204.77 1082.23 1156.61 1025.89 1098.81 1066.34C1041.01 1106.78 1096.06 1202.92 1108.45 1249.79C1120.83 1296.64 1078.17 1308.13 1078.17 1308.13C1078.17 1308.13 1192.39 1368.63 1225.41 1285.49C1258.45 1202.36 1204.77 1082.23 1204.77 1082.23" fill="#301416"/>
<path d="M1284.97 943.916L1259.87 931.812C1259.87 931.812 1188.72 937.196 1167.37 1019.83C1143.05 1113.91 1171.79 1240.61 1301.71 1268.88C1456.44 1302.56 1527.45 1157.56 1485.13 1032.68C1481.89 1023.12 1478.96 1024.7 1478.96 1024.7L1284.97 943.916Z" fill="#511517"/>
<path d="M1365.16 1457.84C1409.52 1433.64 1416.29 1377.19 1416.29 1377.19L1406.85 1348.92C1406.85 1348.92 1405.85 1347.46 1404.26 1344.53C1398.01 1332.83 1382.65 1297.92 1388.04 1243.99C1394.75 1176.76 1279.12 1222.51 1279.12 1222.51C1279.12 1222.51 1274.33 1252.43 1268.48 1283.49C1264.02 1307.1 1258.97 1331.37 1254.91 1343.54C1245.47 1371.79 1320.81 1482.05 1365.16 1457.84Z" fill="#F49E8C"/>
<path d="M1268.48 1283.49C1288.62 1308.63 1330.98 1346.27 1404.26 1344.53C1398 1332.84 1382.64 1297.92 1388.04 1244C1394.75 1176.76 1279.12 1222.52 1279.12 1222.52C1279.12 1222.52 1274.32 1252.44 1268.48 1283.49" fill="#E06062"/>
<path d="M1528.96 1146.58C1530.71 1164.28 1512.5 1180.56 1488.29 1182.95C1464.09 1185.35 1443.05 1172.93 1441.3 1155.23C1439.56 1137.53 1457.76 1121.24 1481.96 1118.85C1506.17 1116.47 1527.21 1128.88 1528.96 1146.58Z" fill="#E06062"/>
<path d="M1394.25 1304.51C1430.89 1301.84 1474.84 1251.84 1488.48 1179.23C1490.73 1167.26 1492.13 1155.55 1492.66 1144.31C1492.66 1144.31 1492.66 1144.25 1492.73 1144.25C1493.66 1125.23 1492.33 1107.54 1488.94 1092.11C1482.29 1061.39 1467.72 1039.85 1447.72 1035.39C1353.16 1014.45 1295.7 1026.15 1261.66 1054.08C1237.72 1073.7 1225.35 1101.29 1219.7 1131.28C1206.07 1203.9 1299.89 1311.42 1394.25 1304.51" fill="#F49E8C"/>
<path d="M1244.76 1144.32C1253.01 1097.7 1321.3 1084.47 1387.2 1083.14C1453.1 1081.75 1469.19 1072.37 1469.19 1072.37C1476.84 1076.76 1483.48 1084.27 1488.94 1092.12C1482.29 1061.4 1467.72 1039.85 1447.72 1035.4C1353.16 1014.45 1295.7 1026.16 1261.66 1054.08C1233.2 1107.41 1239.24 1175.77 1244.76 1144.32" fill="#E06062"/>
<path d="M1217.9 1185.37L1218.59 1185.72C1218.59 1185.72 1217.99 1186.92 1217.9 1185.37Z" fill="#511517"/>
<path d="M1456.43 1057.83C1456.26 1057.92 1456.17 1057.92 1456.17 1057.92C1450.74 1059.39 1444.8 1060.33 1438.25 1060.94C1334.31 1069.9 1260.8 1074.38 1246.41 1137.12C1237.35 1176.94 1235.81 1187.88 1235.89 1190.55L1192.62 1169.44C1192.62 1169.44 1161.77 1120.11 1176.51 1019.83C1187.78 943.075 1259.85 931.835 1259.85 931.835L1259.93 931.747C1262.52 930.283 1315.87 900.891 1405.15 916.579C1490.73 931.659 1536.24 1037.15 1456.43 1057.83" fill="#511517"/>
<path d="M1173 1178.92C1171.25 1196.63 1189.46 1212.91 1213.67 1215.3C1237.88 1217.69 1258.92 1205.27 1260.66 1187.57C1262.41 1169.87 1244.2 1153.59 1220 1151.19C1195.79 1148.81 1174.75 1161.22 1173 1178.92Z" fill="#F49E8C"/>
<path d="M1404.48 1171.92C1404.48 1171.92 1414.24 1192.63 1408.59 1216.15" stroke="#BF3649" stroke-width="1.33333" stroke-miterlimit="10" stroke-linecap="round"/>
<path d="M1435.04 1119.16C1435.04 1119.16 1457.22 1101.55 1479.4 1121.38" stroke="#511517" stroke-width="1.33333" stroke-miterlimit="10" stroke-linecap="round"/>
<path d="M1321.06 1119.16C1321.06 1119.16 1343.24 1101.55 1365.42 1121.38" stroke="#511517" stroke-width="1.33333" stroke-miterlimit="10" stroke-linecap="round"/>
<path d="M1359.59 1153.08C1359.59 1159.96 1356.83 1165.55 1353.43 1165.55C1350.03 1165.55 1347.28 1159.96 1347.28 1153.08C1347.28 1146.19 1350.03 1140.61 1353.43 1140.61C1356.83 1140.61 1359.59 1146.19 1359.59 1153.08Z" fill="#26282E"/>
<path d="M1468.51 1153.08C1468.51 1159.96 1465.76 1165.55 1462.36 1165.55C1458.96 1165.55 1456.2 1159.96 1456.2 1153.08C1456.2 1146.19 1458.96 1140.61 1462.36 1140.61C1465.76 1140.61 1468.51 1146.19 1468.51 1153.08Z" fill="#26282E"/>
<path d="M1356.84 1241.1C1368.42 1247.2 1387.04 1253.3 1411.39 1249" stroke="#BF3649" stroke-width="1.33333" stroke-miterlimit="10" stroke-linecap="round"/>
<path d="M1456.43 1057.84C1459.71 1056.28 1498.49 1037.15 1457.21 971.388C1414.12 902.876 1259.85 931.836 1259.85 931.836L1259.93 931.748C1262.52 930.284 1315.87 900.892 1405.15 916.58C1490.73 931.66 1536.24 1037.15 1456.43 1057.84" fill="#71191B"/>
<path d="M1599.72 2123.51L1693.5 2138.18L1765.15 2721.75L1864.32 2713.7L1849.43 2034.97C1848.44 2006.15 1828.74 1981.35 1800.89 1973.87L1659.18 1935.83L1599.72 2123.51" fill="#E06062"/>
<path d="M1861.74 2692.62L1864.61 2716.11C1864.61 2716.11 2016.7 2742.21 2021.82 2818.95H1839.64L1819.33 2805.4L1812.56 2818.95H1749.37C1749.37 2818.95 1748.23 2765.03 1766.85 2737.39L1764.3 2714.84L1861.74 2692.62" fill="#E06062"/>
<path d="M2021.82 2818.99H1839.63L1819.29 2805.36L1812.48 2818.99H1749.31C1749.31 2818.99 1748.44 2785.03 1757.67 2757.28C1768.44 2763.05 1804.04 2778.04 1873.59 2773.74C1932.54 2770.2 1953.31 2756.07 1960.46 2747.63C1992 2763.83 2019.67 2786.92 2021.82 2818.99Z" fill="#283C65"/>
<path d="M1540.21 2233.06H1561.61L1594.2 2723.74L1693.5 2716.11L1749.32 2127.47C1750.17 2096.35 1728.51 2069.13 1698 2062.96L1577.3 2038.53L1540.21 2233.06" fill="#F49E8C"/>
<path d="M1850.75 2818.99H1668.56L1648.22 2805.36L1641.4 2818.99H1578.24C1578.24 2818.99 1577.37 2785.03 1586.6 2757.28C1588.92 2750.38 1591.85 2743.75 1595.56 2738.23L1593.66 2715.13L1695.88 2691.43L1693.46 2716.08C1693.46 2716.08 1745.26 2724.95 1789.39 2747.63C1820.93 2763.83 1848.6 2786.92 1850.75 2818.99" fill="#F49E8C"/>
<path d="M1850.75 2818.99H1668.56L1648.22 2805.36L1641.4 2818.99H1578.24C1578.24 2818.99 1577.37 2785.03 1586.6 2757.28C1597.37 2763.05 1632.96 2778.04 1702.52 2773.74C1761.46 2770.2 1782.24 2756.07 1789.39 2747.63C1820.93 2763.83 1848.6 2786.92 1850.75 2818.99" fill="#2F457B"/>
<path d="M1481.81 1395.66C1481.81 1395.66 1513.91 1417.06 1537.98 1491.95C1562.04 1566.83 1594.14 1633.69 1606.18 1640.38C1618.21 1647.07 1764.72 1494.36 1764.72 1494.36L1800.78 1556.9C1800.78 1556.9 1731.88 1681.83 1670.36 1746.02C1608.85 1810.21 1590.13 1804.86 1572.75 1798.18C1555.36 1791.49 1473.83 1709.2 1473.83 1709.2L1481.81 1395.66" fill="#F49E8C"/>
<path d="M1766.83 1502.59C1762.51 1495.68 1761.15 1487.35 1763.05 1479.42C1768.4 1457.21 1780.18 1410.76 1790.98 1385.92C1805.5 1352.49 1813.57 1351.1 1817.45 1351.49C1821.33 1351.89 1829.78 1358.16 1803.26 1422.28C1803.26 1422.28 1822.52 1403.73 1831.77 1425.32C1831.77 1425.32 1849.83 1421.29 1854.36 1442.44C1854.36 1442.44 1875.65 1455.56 1870.57 1481.24C1865.5 1506.91 1849.53 1492.73 1849.53 1492.73C1849.53 1492.73 1857.64 1522.23 1831.82 1539.89C1806 1557.55 1800.78 1556.9 1800.78 1556.9L1766.83 1502.59" fill="#F49E8C"/>
<path d="M1771.57 1483.48C1771.57 1483.48 1801.2 1442.96 1811.61 1436.95C1822.02 1430.94 1824.04 1439.97 1816.46 1456.2C1808.88 1472.44 1808.4 1478.52 1808.4 1478.52C1808.4 1478.52 1822.39 1506.84 1801.68 1527.76" stroke="#BF3649" stroke-width="0.666667" stroke-miterlimit="10" stroke-linecap="round"/>
<path d="M1834.85 1430.6C1834.85 1430.6 1835.77 1466.88 1825 1478.3C1814.24 1489.72 1810.26 1475.52 1810.64 1470.22" stroke="#BF3649" stroke-width="0.666667" stroke-miterlimit="10" stroke-linecap="round"/>
<path d="M1854 1444.96C1854 1444.96 1853.64 1475.62 1843.51 1483.25C1833.39 1490.89 1826.51 1480.34 1827.41 1475" stroke="#BF3649" stroke-width="0.666667" stroke-miterlimit="10" stroke-linecap="round"/>
<path d="M1523.79 1575.4C1517.12 1477.8 1495.64 1420.91 1488.52 1404.37C1487.91 1402.08 1487.14 1400.31 1486.17 1399.17C1466.68 1376.31 1407.52 1350 1407.52 1350C1399.62 1387.99 1364.33 1424.97 1364.33 1424.97C1313.22 1412.2 1254.77 1333.86 1254.77 1333.86C1254.77 1333.86 1151.84 1358.4 1124.94 1385.63C1098.04 1412.84 1091.56 1837.38 1182.27 1869.65C1272.99 1901.93 1480.57 1875.07 1480.57 1875.07C1480.57 1828 1469.8 1771.1 1470.83 1717.67C1470.85 1716.18 1470.9 1714.68 1470.93 1713.18C1509.52 1697.44 1530.51 1673.6 1523.79 1575.4" fill="#2B45A1"/>
<path d="M1364.33 1424.97C1364.33 1424.97 1334.74 1456.04 1280.95 1462.36C1227.15 1468.68 1231.64 1339.79 1241.5 1333.86C1251.36 1327.91 1259.12 1332.1 1259.12 1332.1C1259.12 1332.1 1295.07 1383.28 1364.33 1424.97Z" fill="#4C6EBF"/>
<path d="M1364.33 1424.97C1364.33 1424.97 1397.24 1444.01 1432.02 1449.4C1466.8 1454.79 1427.52 1357.75 1421.15 1352.68C1414.77 1347.62 1407.12 1348.85 1407.12 1348.85C1407.12 1348.85 1398.39 1382.43 1364.33 1424.97Z" fill="#4C6EBF"/>
<path d="M1124.28 1745.31C1124.28 1745.31 1115.76 1846.52 1094.85 1897.07C1073.93 1947.62 1029.94 2178.37 1158.26 2214.64C1286.59 2250.91 1564.54 2237.52 1564.54 2237.52C1564.54 2237.52 1591.57 2015.01 1760.87 1970.99C1770.53 1968.48 1770.48 1954.73 1760.82 1952.2L1482.84 1879.3L1447.31 1764.19L1124.28 1745.31Z" fill="#2B45A1"/>
<path d="M1381.97 1464.57C1381.97 1470.31 1377.33 1474.96 1371.58 1474.96C1365.85 1474.96 1361.19 1470.31 1361.19 1464.57C1361.19 1458.83 1365.85 1454.18 1371.58 1454.18C1377.33 1454.18 1381.97 1458.83 1381.97 1464.57Z" fill="#4C6EBF"/>
<path d="M1381.97 1506.12C1381.97 1511.85 1377.33 1516.51 1371.58 1516.51C1365.85 1516.51 1361.19 1511.85 1361.19 1506.12C1361.19 1500.37 1365.85 1495.72 1371.58 1495.72C1377.33 1495.72 1381.97 1500.37 1381.97 1506.12Z" fill="#4C6EBF"/>
<path d="M1304.77 1873.98V1874.07C1303.22 1874.07 1301.24 1873.98 1299.08 1873.98L1239.79 1869.58C1200.49 1866.14 1157.23 1861.65 1146.63 1860.1C1128.36 1857.51 1014.51 1843.64 1006.67 1820.97C998.909 1798.39 1010.2 1697.64 1035.36 1587.24C1060.61 1476.84 1097.07 1408.24 1112.76 1390.83C1128.36 1373.42 1167.48 1371.7 1191.79 1431.68C1216.18 1491.67 1180.75 1588.62 1159.88 1631.19C1139.03 1673.77 1118.05 1751.75 1118.05 1751.75L1274.01 1802.79L1279.19 1804.43L1304.77 1873.98" fill="#F49E8C"/>
<path d="M1469.57 1821.81C1460 1821.35 1455.84 1811.69 1443.91 1798.59C1431.98 1785.55 1413.31 1786.27 1413.31 1786.27C1413.31 1786.27 1427.98 1790.19 1441.64 1808.16C1455.29 1826.21 1463.93 1861.76 1455.69 1861.6C1447.53 1861.44 1437.09 1846.85 1437.09 1846.85C1439.29 1854.23 1438.89 1872.43 1430.25 1871.57C1421.62 1870.71 1415.66 1859.48 1415.66 1859.48C1417.62 1867.8 1412.76 1882.63 1402.87 1874.55C1392.98 1866.39 1375.72 1840.41 1375.72 1840.41C1352.17 1863.56 1319.13 1874.23 1319.13 1874.23H1304.61L1250.62 1870.23L1247.95 1806.75L1298.73 1800.79L1299.28 1800.71C1299.28 1800.71 1380.27 1749.69 1416.13 1760.36C1452 1771.04 1464.55 1789.71 1467.22 1796.31C1469.81 1802.9 1479.23 1822.28 1469.57 1821.81" fill="#F49E8C"/>
<path d="M1412.55 1849.39C1412.55 1849.39 1404.36 1831.39 1387 1817.96" stroke="#BF3649" stroke-width="0.666667" stroke-miterlimit="10" stroke-linecap="round"/>
<path d="M1438.52 1837.83C1438.52 1837.83 1426.56 1811.35 1409.21 1797.92" stroke="#BF3649" stroke-width="0.666667" stroke-miterlimit="10" stroke-linecap="round"/>
<path d="M3080.86 1493.72H2587.41L2537.94 1798.87H3031.4L3080.86 1493.72Z" fill="#959595"/>
<path d="M3001.62 1798.87H2508.16V1840.5H3001.62V1798.87Z" fill="#959595"/>
<path d="M3051.08 1493.72H2557.63L2508.16 1798.87H3001.62L3051.08 1493.72Z" fill="#B6B5B4"/>
<path d="M3026.04 1515L3001.78 1664.88L2983.48 1777.59H2533.16L2540.85 1730.22L2550.21 1672.58L2575.72 1515H3026.04Z" fill="#8CD9DE"/>
<path d="M2745.81 1515L2550.21 1672.58L2575.72 1515H2745.81Z" fill="#CEEFF0"/>
<path d="M2881.96 1515L2543.84 1777.59H2533.16L2540.85 1730.22L2810.4 1515H2881.96" fill="#CEEFF0"/>
<path d="M3001.78 1664.88L2983.49 1777.59H2819.18L3001.78 1664.88Z" fill="#CEEFF0"/>
<path d="M2809.4 1798.87H2315.95V1840.5H2809.4V1798.87Z" fill="#A5A5A4"/>
<path d="M1301.57 2815.32H1351.72V1883.94H1301.57V2815.32" fill="#FF8F06"/>
<path d="M3642.49 2815.32H3692.64V1883.94H3642.49V2815.32Z" fill="#FF8F06"/>
<path d="M1115.34 1909.47H2987.28V1840.5H1115.34V1909.47Z" fill="#FF8F06"/>
<path d="M2987.28 1909.47H3755.66V1840.5H2987.28V1909.47Z" fill="#B06100"/>
<path d="M3074 2815.32H3124.15V1883.94H3074V2815.32Z" fill="#FF8F06"/>
<path d="M2177.33 1202.03C2177.33 1202.03 2184.77 1226.39 2166.69 1279.58C2156.26 1310.54 2133.55 1319.85 2116.26 1322.19C2103.65 1323.95 2094.02 1322.03 2094.02 1322.03L2103.97 1365.76L2110.67 1395.01L1930.08 1367.72L1934.65 1309.53C1907.05 1184.79 1983.81 1111.38 2049.5 1081.16C2080.83 1066.76 2109.66 1062.18 2123.44 1066.54C2131 1068.93 2137.27 1073.03 2142.49 1078.29C2166.85 1102.4 2168.45 1149.41 2168.45 1149.41C2168.45 1149.41 2193.29 1158.3 2195.09 1175.48C2196.96 1192.66 2177.33 1202.03 2177.33 1202.03" fill="#FABFC4"/>
<path d="M2150.68 1251.83C2150.68 1251.83 2132.05 1254.2 2111.18 1247.97" stroke="#DF3641" stroke-miterlimit="10" stroke-linecap="round"/>
<path d="M2139.98 1110.57C2139.98 1110.57 2122.13 1101.63 2109.96 1120.06" stroke="#271613" stroke-width="1.33333" stroke-miterlimit="10" stroke-linecap="round"/>
<path d="M2135.03 1136.21C2136.22 1140.66 2135.44 1144.73 2133.29 1145.31C2131.13 1145.88 2128.42 1142.75 2127.24 1138.3C2126.05 1133.85 2126.83 1129.77 2128.97 1129.19C2131.13 1128.63 2133.84 1131.76 2135.03 1136.21" fill="#142135"/>
<path d="M2094.02 1322.03L2103.99 1365.75C2061.71 1353.04 2022.78 1311.66 2022.78 1311.66C2062.17 1318.82 2094.02 1322.03 2094.02 1322.03Z" fill="#F68C9C"/>
<path d="M2142.49 1078.29C2110.04 1107.76 2042.27 1120.05 2042.27 1120.05L2049.5 1081.16C2080.83 1066.75 2109.66 1062.18 2123.44 1066.54C2131 1068.93 2137.27 1073.03 2142.49 1078.29" fill="#F68C9C"/>
<path d="M2165.78 994.251C2165.78 994.355 2165.84 994.515 2165.78 994.619C2165.78 998.451 2165.68 1002.28 2165.41 1006.06C2165.46 1006.11 2165.46 1006.11 2165.41 1006.11C2165.3 1007.44 2165.2 1008.77 2165.04 1010.04C2165.04 1010.04 2165.04 1010.04 2165.04 1010.1C2162.59 1034.94 2153.6 1057.34 2133.17 1071C2063.76 1117.23 2052.96 1116.27 2052.96 1116.27L2053.49 1162.55C2053.49 1162.55 2022.16 1150 2008.33 1166.27C1994.55 1182.61 1999.39 1230.48 2045.67 1230.75C2045.67 1230.75 2031.41 1305.54 1934.65 1309.47C1934.65 1309.47 1874.28 1296.92 1817.04 1183.51C1759.81 1070.1 1799.22 1035.26 1836.89 1035.9C1836.89 1035.9 1824.12 1005.68 1852.31 985.467C1861.25 979.139 1874.28 973.771 1893.17 970.683C1971.57 957.971 2074.13 895.523 2065.25 869.771C2065.25 869.771 2115.89 878.867 2121.63 906.795L2139.56 877.539C2139.56 877.539 2165.68 938.499 2165.78 994.251" fill="#142135"/>
<path d="M2165.78 994.252C2162.59 961.748 2133.27 918.5 2133.27 918.5L2109.96 944.828C2109.96 944.828 2098.6 906.636 2083.54 898.02C2068.49 889.404 2043.18 946.444 1966.25 972.276C1920.44 987.66 1852.36 985.524 1852.36 985.524L1852.31 985.468C1861.24 979.14 1874.28 973.772 1893.16 970.684C1971.57 957.972 2074.12 895.524 2065.24 869.772C2065.24 869.772 2115.88 878.868 2121.63 906.796L2139.56 877.54C2139.56 877.54 2165.68 938.5 2165.78 994.252" fill="#1F3964"/>
<path d="M2291.55 2659.18L2295.85 2712.97H2436.79L2428.18 2652.72L2291.55 2659.18Z" fill="#F09E9F"/>
<path d="M2580.61 2815.88H2265.75C2265.65 2807.69 2266.07 2799.5 2266.93 2791.52C2271.49 2747.15 2287.99 2709.02 2287.99 2709.02L2436.77 2710.83C2436.77 2710.83 2501.73 2721.95 2543.32 2747.75C2564.12 2760.67 2573.43 2777.75 2577.57 2791.52C2581.67 2805.3 2580.61 2815.88 2580.61 2815.88" fill="#131A24"/>
<path d="M2580.61 2815.88H2265.75C2265.65 2807.69 2266.07 2799.5 2266.93 2791.52H2577.57C2581.67 2805.3 2580.61 2815.88 2580.61 2815.88" fill="#273D81"/>
<path d="M2463.67 2130.59V2685.35C2371.86 2708.33 2265.73 2699.71 2265.73 2699.71V2202.03C2318.03 2186.17 2402.07 2159.04 2463.67 2130.59" fill="#4459B1"/>
<path d="M1819.86 1874.99C1819.86 1874.99 1813.39 2158.92 1917.8 2197.64C2022.2 2236.38 2144.84 2201.95 2144.84 2201.95L2107.12 1920.08L1819.86 1874.99" fill="#4459B1"/>
<path d="M2542.04 2659.18L2546.35 2712.97H2687.28L2678.68 2652.72L2542.04 2659.18Z" fill="#F09E9F"/>
<path d="M2831.1 2815.88H2516.25C2516.14 2807.69 2516.57 2799.5 2517.41 2791.52C2521.99 2747.15 2538.48 2709.02 2538.48 2709.02L2687.26 2710.83C2687.26 2710.83 2752.21 2721.95 2793.81 2747.75C2814.61 2760.67 2823.92 2777.75 2828.07 2791.52C2832.17 2805.3 2831.1 2815.88 2831.1 2815.88Z" fill="#142036"/>
<path d="M2831.1 2815.88H2516.25C2516.14 2807.69 2516.57 2799.5 2517.41 2791.52H2828.07C2832.17 2805.3 2831.1 2815.88 2831.1 2815.88Z" fill="#2B45A1"/>
<path d="M1919.27 1927.97C1919.27 1927.97 1949.22 2159.33 2033.68 2206.25C2169.24 2281.56 2509.92 2166.09 2509.92 2166.09V2699.71C2509.92 2699.71 2616.07 2708.31 2707.87 2685.36V2018.19C2707.87 1951.81 2647.73 1901.66 2582.44 1913.59L2260.33 1972.43L1976.99 1911.83" fill="#5073C1"/>
<path d="M2255.31 1984.56C2255.31 1984.56 1900.4 2078.99 1788.21 1984.62C1788.21 1984.62 1810.18 1648.27 1809.38 1502.84C1809.17 1471.45 1831.45 1340.76 1937.58 1344.69C2044.08 1348.68 2212.17 1407.25 2235.25 1495.5C2240.09 1513.8 2243.71 1545.44 2246.48 1584.23C2249.61 1626.78 2251.64 1677.96 2252.97 1729.24C2253.45 1748.17 2253.87 1767.11 2254.19 1785.68C2256 1891.8 2255.31 1984.56 2255.31 1984.56" fill="#C6C5C3"/>
<path d="M2254.19 1785.68C2217.6 1775.46 2180.41 1758.44 2150.68 1730.46C2059.66 1644.87 2077.96 1484.32 2077.96 1484.32L2195.2 1513.59L2246.48 1584.23C2249.61 1626.78 2251.64 1677.96 2252.97 1729.24C2253.45 1748.17 2253.87 1767.11 2254.19 1785.68" fill="#969797"/>
<path d="M2666.13 1410.81C2666.13 1410.81 2548.25 1685.4 2518.52 1696.47C2506.7 1700.88 2474.84 1702.16 2440.64 1702.16C2388.67 1702.1 2331.37 1698.96 2331.37 1698.96L2368.24 1525.82L2405.8 1530.98L2469.79 1539.81L2591.07 1368.52L2666.13 1410.81" fill="#FABFC4"/>
<path d="M2591.08 1368.51C2591.08 1368.51 2574.47 1341.27 2580.2 1298.24C2585.94 1255.21 2608 1249.29 2608 1249.29C2608 1249.29 2622.52 1182.05 2647.62 1153.36C2672.72 1124.68 2664.3 1174.16 2660.71 1182.05C2657.12 1189.94 2646.72 1225.63 2646.72 1225.63C2646.72 1225.63 2657.54 1215.51 2670.4 1222.93C2682.5 1229.93 2678.46 1244.45 2678.46 1244.45C2678.46 1244.45 2682.76 1235.13 2696.4 1243.73C2710.02 1252.34 2704.27 1265.31 2704.27 1265.31C2704.27 1265.31 2717.91 1258.08 2727.24 1270.99C2736.56 1283.9 2741.58 1316.89 2732.25 1326.93C2722.93 1336.97 2712.89 1330.51 2712.89 1330.51C2712.89 1330.51 2714.03 1402.84 2666.12 1410.79C2618.22 1418.74 2591.08 1368.51 2591.08 1368.51" fill="#FABFC4"/>
<path d="M2646.72 1225.63C2646.72 1225.63 2632.2 1243.38 2631.12 1260.59" stroke="#DF3641" stroke-miterlimit="10" stroke-linecap="round"/>
<path d="M2678.46 1244.45C2678.46 1244.45 2661.52 1254.94 2658.11 1278.07" stroke="#DF3641" stroke-miterlimit="10" stroke-linecap="round"/>
<path d="M2704.27 1265.31C2704.27 1265.31 2687.07 1284.8 2687.07 1302.01" stroke="#DF3641" stroke-miterlimit="10" stroke-linecap="round"/>
<path d="M2712.89 1330.52C2712.89 1330.52 2706.97 1316.27 2709.13 1302.01" stroke="#DF3641" stroke-miterlimit="10" stroke-linecap="round"/>
<path d="M2709.23 1316.27C2709.23 1316.27 2711.45 1309.36 2720.42 1307.92" stroke="#DF3641" stroke-miterlimit="10" stroke-linecap="round"/>
<path d="M2440.64 1702.16C2388.67 1702.1 2331.37 1698.96 2331.37 1698.96L2368.24 1525.82L2405.8 1530.98C2419.31 1562.31 2444.47 1631.14 2440.64 1702.16Z" fill="#F68C9C"/>
<path d="M2371.79 1505.08L2214.7 1434.03C2214.7 1434.03 2140.03 1400.89 2105.24 1425.23C2070.45 1449.57 2059.18 1556.33 2130.83 1632.95C2202.49 1709.59 2368.61 1730.47 2368.61 1730.47C2368.61 1730.47 2413.87 1605.75 2371.79 1505.08" fill="#B0B0AE"/>
<path d="M1815.08 2247.14H1761.75L1738.13 2089.15L1729.4 2030.76H1782.07L1790.97 2089.15L1815.08 2247.14" fill="#FF8F06"/>
<path d="M1782.07 2030.76L1790.97 2089.15H1738.13L1729.4 2030.76H1782.07Z" fill="#B06100"/>
<path d="M2060.62 2247.14H2007.36L1983.74 2089.15L1975.01 2030.76H2027.67L2036.58 2089.15L2060.62 2247.14" fill="#FF8F06"/>
<path d="M2036.58 2089.15H1983.74L1975.01 2030.76H2027.67L2036.58 2089.15Z" fill="#B06100"/>
<path d="M2016.83 1693.07H1648.05L1707.68 2038.53H2076.45L2016.83 1693.07" fill="#B06100"/>
<path d="M1963.13 1693.07H1594.37L1653.98 2038.53H2022.76L1963.13 1693.07" fill="#FF8F06"/>
<path d="M1855.72 2279.23L1775.09 2818.95H1720.79L1803.06 2279.23H1855.72Z" fill="#FF8F06"/>
<path d="M2013.69 2279.23L1933.06 2818.95H1878.76L1961.03 2279.23H2013.69Z" fill="#B06100"/>
<path d="M2355.95 2279.23L2436.57 2818.95H2490.88L2408.61 2279.23H2355.95Z" fill="#B06100"/>
<path d="M2130.52 2279.23L2211.14 2818.95H2265.45L2183.17 2279.23H2130.52" fill="#FF8F06"/>
<path d="M2441.51 2300.62H1724.08C1702.27 2300.62 1684.59 2282.94 1684.59 2261.12C1684.59 2239.32 1702.27 2221.64 1724.08 2221.64H2441.51C2463.32 2221.64 2481 2239.32 2481 2261.12C2481 2282.94 2463.32 2300.62 2441.51 2300.62Z" fill="#FF8F06"/>
<path d="M2005.16 726.876C2005.16 760.364 1991.56 790.772 1969.64 812.772C1947.63 834.692 1917.32 848.3 1883.82 848.3H1724.24L1585.99 906.1L1632.39 839.996C1587.23 822.324 1555.24 778.308 1555.24 726.876C1555.24 693.38 1568.84 663.068 1590.76 641.06C1612.77 619.14 1643.08 605.532 1676.67 605.532H1883.82C1950.81 605.532 2005.16 659.884 2005.16 726.876" fill="#FF8F06"/>
<path d="M1716.55 755.818H1662.37V701.626H1716.55V755.818Z" fill="white"/>
<path d="M1815.31 755.818H1761.12V701.626H1815.31V755.818Z" fill="white"/>
<path d="M1916.87 755.818H1862.69V701.626H1916.87V755.818Z" fill="white"/>
<path d="M2776.32 726.876C2776.32 760.364 2762.72 790.772 2740.8 812.772C2718.8 834.692 2688.48 848.3 2654.99 848.3H2495.41L2357.16 906.1L2403.56 839.996C2358.39 822.324 2326.4 778.308 2326.4 726.876C2326.4 693.38 2340.01 663.068 2361.92 641.06C2383.93 619.14 2414.24 605.532 2447.83 605.532H2654.99C2721.97 605.532 2776.32 659.884 2776.32 726.876" fill="#FF8F06"/>
<path d="M2485.11 755.818H2430.93V701.626H2485.11V755.818Z" fill="white"/>
<path d="M2583.87 755.818H2529.68V701.626H2583.87V755.818Z" fill="white"/>
<path d="M2685.43 755.818H2631.24V701.626H2685.43V755.818Z" fill="white"/>
</svg>
