<svg width="3848" height="2394" viewBox="0 0 3848 2394" fill="none" xmlns="http://www.w3.org/2000/svg">
<path d="M2693.01 2001.84C2690.22 2000.03 2686.52 2000.83 2684.72 2003.61C2652.91 2052.65 2637.5 2095.44 2630.19 2128.07C2615.36 2069.84 2580.25 2014.58 2578.44 2011.76C2576.65 2008.97 2572.94 2008.15 2570.15 2009.95C2567.36 2011.73 2566.55 2015.45 2568.34 2018.24C2568.86 2019.05 2620.23 2099.89 2624.44 2166.35C2623.23 2183.62 2624.61 2193.74 2624.78 2194.88C2625.21 2197.86 2627.78 2200 2630.7 2200C2630.99 2200 2631.28 2199.98 2631.57 2199.93C2634.85 2199.45 2637.12 2196.41 2636.65 2193.13C2636.54 2192.38 2626.44 2115.52 2694.78 2010.13C2696.58 2007.36 2695.79 2003.64 2693.01 2001.84" fill="#4E2985"/>
<path d="M2689.62 1932.1C2630.36 1879.74 2607.74 1896.35 2609.6 1842.5C2611.47 1788.67 2581.04 1747.01 2551.56 1739.27C2522.09 1731.53 2487.59 1732.92 2473.92 1673.62C2460.26 1614.32 2406.93 1607.94 2382.19 1620.32C2357.45 1632.69 2330.57 1679.2 2369.83 1725.7C2409.09 1772.19 2387.28 1798.97 2375.8 1827.2C2364.32 1855.42 2379.39 1904.75 2423.6 1935.55C2467.8 1966.34 2440.95 1974.49 2447.31 2053.31C2453.67 2132.13 2618.21 2092.15 2618.21 2092.15C2618.21 2092.15 2748.88 1984.46 2689.62 1932.1" fill="#FF8F06"/>
<path d="M2606.12 1901.04L2554.69 1965.17L2523.8 1903.42L2501.76 1859.37L2534.84 1777.75L2496.65 1849.13L2462.07 1780.02L2391.45 1638.83L2455.91 1775.61L2395.32 1741.94L2458.36 1780.83L2516.57 1904.35L2409.42 1874.62L2524.25 1920.66L2581.18 2044.72L2483.26 2022.23L2590.55 2061.35L2607.57 2097.47L2618.21 2092.15L2561.09 1977.97L2606.12 1901.04" fill="#4E2985"/>
<path d="M2581.88 1904C2641.13 1851.64 2663.76 1868.25 2661.89 1814.41C2660.03 1760.57 2690.46 1718.92 2719.93 1711.18C2749.4 1703.44 2783.91 1704.83 2797.57 1645.53C2811.23 1586.23 2864.57 1579.84 2889.31 1592.22C2914.05 1604.6 2940.92 1651.1 2901.66 1697.6C2862.41 1744.09 2884.22 1770.87 2895.69 1799.1C2907.18 1827.33 2892.1 1876.66 2847.89 1907.45C2803.69 1938.25 2830.55 1946.39 2824.19 2025.21C2817.83 2104.03 2653.29 2064.05 2653.29 2064.05C2653.29 2064.05 2522.61 1956.36 2581.88 1904" fill="#FF8F06"/>
<path d="M2665.38 1872.94L2716.8 1937.07L2747.7 1875.32L2769.73 1831.27L2736.65 1749.65L2774.85 1821.03L2809.42 1751.92L2880.05 1610.74L2815.59 1747.52L2876.17 1713.84L2813.13 1752.73L2754.93 1876.25L2862.07 1846.52L2747.24 1892.56L2690.31 2016.62L2788.23 1994.14L2680.95 2033.25L2663.93 2069.37L2653.29 2064.05L2710.4 1949.87L2665.38 1872.94" fill="#4E2985"/>
<path d="M2761.07 2286.4C2761.07 2255.63 2743.91 2228.12 2716.94 2209.61C2716.59 2196.25 2705.7 2185.5 2692.25 2185.5H2579.25C2565.8 2185.5 2554.91 2196.25 2554.56 2209.61C2527.59 2228.12 2510.43 2255.63 2510.43 2286.4C2510.43 2317.16 2527.59 2344.67 2554.56 2363.17C2554.91 2376.54 2565.8 2387.29 2579.25 2387.29H2692.25C2705.7 2387.29 2716.59 2376.54 2716.94 2363.17C2743.91 2344.67 2761.07 2317.16 2761.07 2286.4" fill="white"/>
<path d="M2554.56 2212.62H2716.94C2718.59 2212.62 2719.94 2211.28 2719.94 2209.62C2719.94 2207.96 2718.59 2206.62 2716.94 2206.62H2554.56C2552.9 2206.62 2551.56 2207.96 2551.56 2209.62C2551.56 2211.28 2552.9 2212.62 2554.56 2212.62Z" fill="#A363B8"/>
<path d="M2716.94 2360.17H2554.56C2552.9 2360.17 2551.56 2361.52 2551.56 2363.17C2551.56 2364.83 2552.9 2366.17 2554.56 2366.17H2716.94C2718.59 2366.17 2719.94 2364.83 2719.94 2363.17C2719.94 2361.52 2718.59 2360.17 2716.94 2360.17Z" fill="#A363B8"/>
<path d="M1121.66 1203.16H342.646V915.174H1121.66V1203.16Z" fill="#FACE9A"/>
<path d="M856.852 968.886H370.402V952.092H856.852V968.886Z" fill="#FF8F06"/>
<path d="M949.186 553.614C949.282 429.822 848.866 329.286 724.87 329.028C601.228 328.764 500.584 429.168 500.146 553.212C499.714 676.95 600.778 778.14 724.726 778.062C848.632 777.984 949.096 677.532 949.186 553.614ZM458.86 569.118C458.86 558.738 458.86 548.352 458.86 537.972C459.286 534.234 459.718 530.502 460.132 526.764C466.492 469.566 488.338 419.112 526.894 376.332C567.826 330.912 618.538 302.556 678.88 291.876C688.882 290.106 699.022 289.098 709.09 287.742C719.476 287.742 729.856 287.742 740.242 287.742C741.58 288.03 742.9 288.498 744.25 288.594C785.83 291.534 824.728 303.414 860.218 325.17C929.074 367.374 971.464 428.208 986.332 507.81C988.192 517.776 989.116 527.916 990.472 537.972C990.472 548.352 990.472 558.738 990.472 569.118C990.046 572.856 989.614 576.588 989.2 580.326C982.84 637.524 960.994 687.978 922.438 730.758C881.506 776.178 830.794 804.534 770.452 815.214C760.45 816.984 750.316 817.992 740.242 819.348C729.856 819.348 719.476 819.348 709.09 819.348C707.758 819.054 706.432 818.592 705.088 818.496C663.508 815.556 624.61 803.67 589.12 781.92C520.264 739.71 477.868 678.882 463 599.274C461.14 589.314 460.216 579.174 458.86 569.118Z" fill="#FF8F06"/>
<path d="M703.996 493.35C704.002 473.106 703.828 452.862 704.056 432.624C704.236 417.024 718.42 407.112 732.256 412.566C740.662 415.872 745.318 423.456 745.33 434.148C745.36 468.408 745.528 502.668 745.168 536.922C745.102 543.042 747.106 546.522 751.876 550.014C774.052 566.274 795.928 582.936 817.948 599.412C825.604 605.136 829.228 612.54 826.846 621.996C823.282 636.144 807.244 641.994 795.058 633.582C787.378 628.278 780.058 622.458 772.582 616.86C753.622 602.646 734.812 588.234 715.648 574.302C707.482 568.362 703.75 561.018 703.906 550.968C704.206 531.762 703.996 512.556 703.996 493.35" fill="#FF8F06"/>
<path d="M1935.92 952.092H1203.08V287.742H1935.92V952.092Z" fill="white"/>
<path d="M1907.66 335.904H1231.28C1229.58 335.904 1228.2 337.278 1228.2 338.982C1228.2 340.692 1229.58 342.066 1231.28 342.066H1546.86V903.078C1546.86 904.782 1548.24 906.162 1549.94 906.162C1551.65 906.162 1553.03 904.782 1553.03 903.078V342.066H1907.66C1909.37 342.066 1910.75 340.692 1910.75 338.982C1910.75 337.278 1909.37 335.904 1907.66 335.904Z" fill="#FF8F06"/>
<path d="M1367.43 460.284V606.762H1276.76V460.284H1367.43Z" fill="#E1CFEB"/>
<path d="M1276.76 460.284H1367.43C1367.43 460.284 1375.94 597.192 1337.53 597.192H1245.16C1245.16 597.192 1276.76 565.41 1276.76 460.284Z" fill="#FF8F06"/>
<path d="M1367.43 635.718V782.202H1276.76V635.718H1367.43Z" fill="#E1CFEB"/>
<path d="M1276.76 635.718H1367.43C1367.43 635.718 1375.94 772.626 1337.53 772.626H1245.16C1245.16 772.626 1276.76 740.844 1276.76 635.718Z" fill="#FF8F06"/>
<path d="M1714.33 635.718V782.202H1623.66V635.718H1714.33Z" fill="#E1CFEB"/>
<path d="M1623.66 635.718H1714.33C1714.33 635.718 1722.83 772.626 1684.43 772.626H1592.06C1592.06 772.626 1623.66 740.844 1623.66 635.718Z" fill="#FF8F06"/>
<path d="M2044.49 1537.3H3541.74C3573.77 1537.3 3599.73 1511.33 3599.73 1479.3V351.054C3599.73 319.02 3573.77 293.052 3541.74 293.052H2044.49C2012.45 293.052 1986.48 319.02 1986.48 351.054V1479.3C1986.48 1511.33 2012.45 1537.3 2044.49 1537.3Z" fill="white"/>
<path d="M2871.36 891.588H2086.36V913.35H2871.36V891.588Z" fill="#FF8F06"/>
<path d="M2193.17 457.5H2089.58V857.58H2193.17V457.5Z" fill="#FF8F06"/>
<path d="M2329.28 513.012H2225.69V857.58H2329.28V513.012" fill="#FF8F06"/>
<path d="M2469.08 578.796H2365.49V857.58H2469.08V578.796" fill="#FF8F06"/>
<path d="M2618.25 619.914H2514.66V857.58H2618.25V619.914" fill="#FF8F06"/>
<path d="M2871.36 817.902H2660.64V837.048H2871.36V817.902Z" fill="#FF8F06"/>
<path d="M2871.36 768.438H2660.64V787.578H2871.36V768.438Z" fill="#FF8F06"/>
<path d="M2871.36 715.704H2660.64V734.85H2871.36V715.704Z" fill="#FF8F06"/>
<path d="M2815.46 1262.62C2815 1261.78 2814.18 1261.21 2813.23 1261.07C2812.28 1260.91 2811.33 1261.23 2810.64 1261.89L2674.17 1392.35L2518.76 1219.31C2518.19 1218.67 2517.35 1218.29 2516.49 1218.29C2516.48 1218.29 2516.48 1218.29 2516.47 1218.29C2515.61 1218.29 2514.78 1218.65 2514.2 1219.28L2399.24 1344.25L2128.08 1123.45L2178 1115.49C2179.68 1115.22 2180.82 1113.64 2180.55 1111.96C2180.28 1110.27 2178.73 1109.14 2177.02 1109.39L2120.31 1118.45C2120.25 1118.46 2120.21 1118.51 2120.15 1118.53C2119.68 1118.63 2119.28 1118.83 2118.92 1119.11C2118.82 1119.19 2118.73 1119.26 2118.63 1119.36C2118.27 1119.74 2117.97 1120.17 2117.82 1120.69C2117.82 1120.69 2117.82 1120.69 2117.82 1120.69C2117.82 1120.71 2117.82 1120.73 2117.82 1120.75C2117.73 1121.11 2117.69 1121.48 2117.73 1121.87L2124.82 1179.35C2125.01 1180.91 2126.34 1182.05 2127.87 1182.05C2128 1182.05 2128.13 1182.05 2128.26 1182.03C2129.94 1181.83 2131.15 1180.28 2130.94 1178.59L2124.79 1128.73L2397.6 1350.86C2398.85 1351.88 2400.7 1351.76 2401.82 1350.56L2516.44 1225.95L2671.71 1398.83C2672.27 1399.45 2673.05 1399.82 2673.89 1399.85C2674.7 1399.86 2675.52 1399.57 2676.14 1399L2812.02 1269.1L2911.85 1448.04C2912.41 1449.05 2913.46 1449.62 2914.54 1449.62C2915.05 1449.62 2915.56 1449.5 2916.04 1449.23C2917.52 1448.4 2918.06 1446.53 2917.23 1445.04L2815.46 1262.62" fill="#FF8F06"/>
<path d="M2679.14 1241.71V1014.42H2675.03V1241.71H2679.14Z" fill="#FF8F06"/>
<path d="M2395.43 1241.71V1014.42H2391.32V1241.71H2395.43Z" fill="#FF8F06"/>
<path d="M3007.2 466.992V497.832H3357.58V466.992H3007.2Z" fill="#FF8F06"/>
<path d="M2039.99 406.254H3546.24C3575.78 406.254 3599.73 382.302 3599.73 352.758V346.554C3599.73 317.004 3575.78 293.052 3546.24 293.052H2039.99C2010.44 293.052 1986.48 317.004 1986.48 346.554V352.758C1986.48 382.302 2010.44 406.254 2039.99 406.254Z" fill="#FF8F06"/>
<path d="M2577.44 310.62H3008.79C3028.65 310.62 3044.76 294.516 3044.76 274.644V270.474C3044.76 250.608 3028.65 234.504 3008.79 234.504H2577.44C2557.57 234.504 2541.46 250.608 2541.46 270.474V274.644C2541.46 294.516 2557.57 310.62 2577.44 310.62Z" fill="#F14A53"/>
<path d="M1 2392.82H3847" stroke="#20162F" stroke-width="1.33333" stroke-miterlimit="10" stroke-linecap="round" stroke-linejoin="round"/>
<path d="M810.016 2308.51C822.316 2301.76 832.762 2269.05 841.468 2224.75V1877.88H924.052V2221.92C932.872 2267.65 943.492 2301.62 956.056 2308.51C1002.12 2333.78 1132.46 2331.8 1132.46 2387.29H883.036H633.61C633.61 2331.8 763.942 2333.78 810.016 2308.51" fill="white"/>
<path d="M924.052 1918.87C924.052 1918.87 885.754 1942.85 841.468 1942.57V1877.88H924.052V1918.87Z" fill="#9C2438"/>
<path d="M1272.1 1842.75C1272.1 1842.75 936.742 1955.95 729.364 1868.12C521.992 1780.3 590.302 1495.34 625.432 1405.55C660.568 1315.78 916.246 1286.59 1007.98 1417.31C1099.71 1548.04 1278.59 1667.09 1272.1 1842.75" fill="white"/>
<path d="M689.812 1580.75C595.126 1459.1 706.546 1344.76 708.01 1343.27C801.064 1312.87 944.164 1326.37 1007.98 1417.31C1044.14 1468.85 1093.84 1518.59 1140.4 1570.68C1033.25 1721.91 759.796 1670.66 689.812 1580.75" fill="#9C2438"/>
<path d="M999.514 1178.69C999.514 1178.69 996.262 1224.4 1024.59 1250.02C1052.93 1275.64 1054.74 1416.01 1001.78 1395.25C948.82 1374.49 883.036 1216.03 883.036 1216.03C883.036 1216.03 912.784 1174.81 913.018 1140.95C913.258 1107.11 1001.11 1148.25 999.514 1178.69" fill="#F79460"/>
<path d="M908.818 1165C911.296 1156.99 912.964 1148.78 913.018 1140.95C913.258 1107.11 1001.11 1148.25 999.514 1178.69C999.514 1178.69 962.434 1193.39 908.818 1165Z" fill="#E4753D"/>
<path d="M858.748 1117.18C841.042 1097.69 835.246 1074.13 845.794 1064.55C856.342 1054.96 879.238 1062.98 896.944 1082.46C897.076 1082.61 897.202 1082.76 897.334 1082.91C914.152 1101.67 919.936 1124.02 910.816 1134.07C910.51 1134.41 910.234 1134.77 909.898 1135.08C899.35 1144.67 876.448 1136.65 858.748 1117.18" fill="#F25663"/>
<path d="M1044.14 1032.8C1044.14 1032.8 1043.24 1064.1 1051.1 1087.82C1058.96 1111.54 1040.36 1155.62 1019.61 1171.88C998.86 1188.15 946.186 1173.26 925.078 1158.86C903.97 1144.45 882.55 1101.11 877.516 1080.6C872.488 1060.08 886.876 971.531 947.842 969.149C1008.8 966.773 1043.91 979.733 1044.14 1032.8" fill="#F9AE7D"/>
<path d="M908.818 1017.16C908.818 1017.16 1003.1 1049.36 994.318 1025.94C994.318 1025.94 1054.29 1069.32 1052.94 1044.73C1052.94 1044.73 1101.17 1024.51 1077.75 972.264C1054.33 920.022 1018.08 935.916 999.538 926.154C980.992 916.398 920.866 891.27 876.592 927.378C832.318 963.48 845.794 1064.55 845.794 1064.55L869.452 1062.91C869.452 1062.91 881.194 1111.24 894.328 1120.31C894.328 1120.31 888.922 1069.85 893.8 1043.5C898.678 1017.16 924.808 1036.67 908.818 1017.16Z" fill="#110F0E"/>
<path d="M1154.31 2209.31L1145.86 2297.06C1145.86 2297.06 1154.99 2377.98 1224.09 2324.93L1256.91 2156.57L1154.31 2209.31" fill="#F9AE7D"/>
<path d="M1310.07 2387.29H1103.61C1103.61 2387.29 1115.25 2264.32 1148.11 2273.7C1180.97 2283.09 1184.97 2313.65 1224.09 2296.44C1252.71 2283.85 1303.95 2314.58 1329.38 2349.35C1340.91 2365.1 1329.59 2387.29 1310.07 2387.29" fill="#1D1724"/>
<path d="M1290.05 2309.7C1291.64 2309.63 1293.08 2310.74 1293.23 2312.35C1293.38 2313.97 1292.19 2315.39 1290.58 2315.54C1283.44 2316.19 1263.96 2320.31 1259.63 2331.3C1259.18 2332.46 1258.07 2333.17 1256.91 2333.17C1256.55 2333.17 1256.19 2333.1 1255.84 2332.96C1254.33 2332.37 1253.59 2330.67 1254.18 2329.17C1260.71 2312.59 1288.85 2309.81 1290.05 2309.7" fill="white"/>
<path d="M1237.49 2316.42C1244 2299.84 1272.15 2297.07 1273.34 2296.96C1274.91 2296.86 1276.37 2297.99 1276.53 2299.61C1276.67 2301.22 1275.48 2302.64 1273.88 2302.79C1266.74 2303.45 1247.25 2307.56 1242.93 2318.56C1242.48 2319.71 1241.37 2320.42 1240.2 2320.42C1239.85 2320.42 1239.48 2320.36 1239.14 2320.21C1237.62 2319.62 1236.89 2317.93 1237.49 2316.42Z" fill="white"/>
<path d="M1240.61 2240.2L1154.31 2209.31L1243.89 2223.35L1240.61 2240.2Z" fill="#E4753D"/>
<path d="M976.702 2209.31L968.248 2297.06C968.248 2297.06 977.38 2377.98 1046.48 2324.93L1079.3 2156.57L976.702 2209.31Z" fill="#F9AE7D"/>
<path d="M1132.46 2387.29H926.002C926.002 2387.29 937.642 2264.32 970.498 2273.7C1003.36 2283.09 1007.37 2313.65 1046.48 2296.44C1075.1 2283.85 1126.34 2314.58 1151.77 2349.35C1163.3 2365.1 1151.98 2387.29 1132.46 2387.29" fill="#2C2036"/>
<path d="M1112.43 2309.7C1114.02 2309.63 1115.46 2310.74 1115.62 2312.35C1115.77 2313.97 1114.58 2315.39 1112.97 2315.54C1105.83 2316.19 1086.35 2320.31 1082.02 2331.3C1081.57 2332.46 1080.47 2333.17 1079.3 2333.17C1078.94 2333.17 1078.58 2333.1 1078.23 2332.96C1076.72 2332.37 1075.98 2330.67 1076.58 2329.17C1083.09 2312.59 1111.24 2309.81 1112.43 2309.7" fill="white"/>
<path d="M1059.87 2316.42C1066.39 2299.84 1094.54 2297.07 1095.73 2296.96C1097.3 2296.86 1098.76 2297.99 1098.92 2299.61C1099.07 2301.22 1097.88 2302.64 1096.27 2302.79C1089.12 2303.45 1069.65 2307.56 1065.32 2318.56C1064.87 2319.71 1063.76 2320.42 1062.6 2320.42C1062.24 2320.42 1061.87 2320.36 1061.52 2320.21C1060.02 2319.62 1059.28 2317.93 1059.87 2316.42Z" fill="white"/>
<path d="M1063 2240.2L976.702 2209.31L1066.28 2223.35L1063 2240.2Z" fill="#E4753D"/>
<path d="M754.252 1651.48H1164.12C1164.12 1651.48 1274.32 1672.94 1302.17 1729.55C1330.02 1786.15 1272.1 2233.66 1272.1 2233.66L1134.84 2211.63L1144.6 1899.35L1103.61 2229.2L954.178 2205.77C954.178 2205.77 985.486 1851.53 976.702 1842.75C967.918 1833.97 890.386 1843.24 795.238 1803.71C773.23 1794.58 751.324 1722.55 754.252 1696.85C757.18 1671.16 754.252 1651.48 754.252 1651.48" fill="#1D2A30"/>
<path d="M1135.56 2188.72L1144.6 1899.35C1144.6 1899.35 1163.35 1759.31 1143.24 1750.04C1123.13 1740.77 968.248 1683.68 968.248 1683.68C968.248 1683.68 1132.59 1722.71 1156.41 1750.04C1176.92 1773.58 1146.08 2099.17 1137.15 2188.87L1203.26 2198.05C1217.61 2057.44 1242.71 1790.36 1235.95 1776.04C1228.97 1761.25 1097.51 1705.34 1047.44 1685.03C1046.69 1684.73 1046.33 1683.88 1046.64 1683.13C1046.94 1682.38 1047.81 1682.01 1048.54 1682.33C1055.93 1685.32 1229.71 1755.95 1238.6 1774.79C1247.25 1793.12 1209.23 2168.4 1206.17 2198.46L1273.81 2207.86C1274.61 2207.97 1275.17 2208.71 1275.06 2209.51C1274.96 2210.24 1274.33 2210.77 1273.61 2210.77C1273.55 2210.77 1273.47 2210.77 1273.41 2210.76L1204.43 2201.18C1204.43 2201.18 1204.42 2201.18 1204.41 2201.18C1204.41 2201.18 1204.41 2201.17 1204.41 2201.17L1136.86 2191.79C1135.6 2204.39 1134.84 2211.63 1134.84 2211.63L1135.47 2191.6L1135.32 2191.58C1134.51 2191.46 1133.96 2190.73 1134.06 2189.92C1134.17 2189.18 1134.8 2188.73 1135.56 2188.72" fill="#251F4F"/>
<path d="M804.232 1694.68C804.97 1694.32 805.834 1694.64 806.182 1695.37C806.368 1695.77 824.716 1734.14 838.822 1747.69C853.744 1723.38 831.652 1686.99 831.412 1686.62C830.992 1685.93 831.202 1685.03 831.892 1684.6C832.57 1684.18 833.476 1684.39 833.908 1685.08C834.892 1686.67 857.416 1723.75 841.108 1749.58C850.294 1755.25 897.688 1764.41 943.696 1773.3C1016.22 1787.31 1064.04 1797.1 1067.61 1805.06C1074.15 1819.6 1035.81 2167.19 1032.68 2195.53L1106.33 2207.87C1107.13 2208 1107.66 2208.75 1107.53 2209.55C1107.41 2210.26 1106.79 2210.77 1106.09 2210.77C1106.01 2210.77 1105.92 2210.77 1105.85 2210.75L1030.92 2198.19C1030.91 2198.19 1030.91 2198.19 1030.91 2198.19L955.81 2185.61C955.012 2185.48 954.472 2184.72 954.61 2183.92C954.736 2183.13 955.51 2182.55 956.29 2182.72L1029.79 2195.04C1041.51 2089.34 1070.19 1817.92 1064.95 1806.26C1061.72 1799.08 995.968 1786.39 943.138 1776.17C890.92 1766.09 845.812 1757.37 838.354 1751.25C838.342 1751.24 838.33 1751.25 838.318 1751.24C838.306 1751.23 838.312 1751.22 838.3 1751.21C838.27 1751.2 838.216 1751.17 838.192 1751.14C823.492 1738.41 804.346 1698.32 803.542 1696.63C803.188 1695.89 803.5 1695.02 804.232 1694.68" fill="#251F4F"/>
<path d="M1291.48 1363.39C1291.48 1363.39 1265.15 1344.47 1273.87 1287.49C1282.58 1230.51 1287.57 1256.43 1290.89 1273.71C1294.22 1291 1304.9 1310.91 1320.75 1283.24C1336.61 1255.56 1383.18 1177.57 1374.86 1211.61C1366.53 1245.65 1349.48 1269.14 1349.48 1269.14C1349.48 1269.14 1411.61 1177.94 1403.73 1210.96C1395.85 1243.99 1366.91 1279.27 1366.91 1279.27C1366.91 1279.27 1417.38 1212.22 1414.55 1231.04C1411.73 1249.86 1386.17 1296.28 1386.17 1296.28C1386.17 1296.28 1424.04 1260.07 1414.78 1285.18C1405.53 1310.29 1344.82 1405.16 1291.48 1363.39" fill="#F9AE7D"/>
<path d="M611.77 1555.84C622.504 1522.94 749.71 1288.54 749.722 1288.52L758.206 1269.8L891.358 1203.16C891.358 1203.16 989.584 1335.96 1003.73 1214.13C1003.73 1214.13 1113.42 1265.08 1126.11 1278.74C1138.79 1292.41 1160.09 1468.45 1160.09 1468.45L1258.67 1322.76L1344.17 1377.74L1244.63 1566.67C1244.63 1566.67 1185.59 1657.33 1166.07 1661.24C1146.55 1665.14 894.778 1663.19 894.778 1663.19L750.346 1715.89V1581.07C747.742 1581.12 745.216 1581.09 742.54 1581.22C615.916 1587.07 607.162 1569.97 611.77 1555.84" fill="#FFAE4C"/>
<path d="M889.114 1211.09C889.78 1210.67 890.692 1210.86 891.136 1211.55C916.768 1251.86 953.626 1278.11 980.992 1275.28C1008 1272.52 1012.58 1225.12 1012.62 1224.64C1012.7 1223.84 1013.34 1223.21 1014.21 1223.32C1015.02 1223.39 1015.61 1224.1 1015.53 1224.91C1015.35 1226.96 1010.7 1275.18 981.292 1278.2C980.266 1278.3 979.216 1278.32 978.166 1278.35V1581.22C978.166 1582.02 977.512 1582.68 976.702 1582.68C975.898 1582.68 975.238 1582.02 975.238 1581.22V1278.31C947.71 1277.25 913.054 1251.48 888.664 1213.12C888.232 1212.43 888.43 1211.53 889.114 1211.09" fill="#FCD0E5"/>
<path d="M787.918 1319.19C787.918 1319.19 760.108 1484.6 776.206 1491.92C792.31 1499.24 889.9 1526.56 889.9 1526.56C889.9 1526.56 746.932 1512.41 745.468 1500.7C744.004 1489 787.918 1319.19 787.918 1319.19Z" fill="#F14435"/>
<path d="M845.572 1581.22H832.666L856.852 1522.94L845.572 1581.22Z" fill="#F14435"/>
<path d="M1101.99 1581.22H1065.78L1079.3 1325.05L1101.99 1581.22Z" fill="#F14435"/>
<path d="M873.664 1440.71C865.294 1452.07 856.186 1457.82 846.586 1457.82C831.682 1457.82 819.466 1444.01 816.706 1440.65V1376.8H873.664V1440.71ZM878.974 1443.38C879.328 1442.88 879.52 1442.28 879.52 1441.67V1373.87C879.52 1372.25 878.212 1370.95 876.592 1370.95H813.778C812.164 1370.95 810.85 1372.25 810.85 1373.87V1441.67C810.85 1442.29 811.054 1442.9 811.432 1443.41C812.05 1444.24 826.738 1463.68 846.586 1463.68C858.388 1463.68 869.284 1456.85 878.974 1443.38" fill="#F14435"/>
<path d="M889.894 1526.56L877.822 1581.22H985.534C985.534 1581.22 971.872 1532.42 889.894 1526.56" fill="#F9AE7D"/>
<path d="M2143.8 2387.29H1924.01C1898.14 2387.29 1877.17 2364.25 1877.17 2335.84C1877.17 2307.42 1898.14 2284.39 1924.01 2284.39H2096.96V1684.12H1520.22H930.298H678.13V2387.29H526.504H320.962H306.712C280.84 2387.29 259.867 2364.25 259.867 2335.84V1632.67C259.867 1604.25 280.84 1581.22 306.712 1581.22H930.298H1520.22H2143.8C2162.75 1581.22 2179.02 1593.59 2186.4 1611.36H2516.47V2387.29H2159.3H2143.8Z" fill="#CB353D"/>
<path d="M1609.69 2308.51C1621.99 2301.76 1632.44 2269.05 1641.15 2224.75V1877.88H1723.73V2221.92C1732.55 2267.65 1743.17 2301.62 1755.73 2308.51C1801.8 2333.78 1932.14 2331.8 1932.14 2387.29H1682.71H1433.28C1433.28 2331.8 1563.62 2333.78 1609.69 2308.51" fill="white"/>
<path d="M1723.73 1918.87C1723.73 1918.87 1685.43 1942.85 1641.15 1942.57V1877.88H1723.73V1918.87Z" fill="#9C2438"/>
<path d="M2071.77 1842.75C2071.77 1842.75 1736.42 1955.95 1529.04 1868.12C1321.67 1780.3 1389.98 1495.34 1425.11 1405.55C1460.24 1315.78 1715.92 1286.59 1807.65 1417.31C1899.39 1548.04 2078.26 1667.09 2071.77 1842.75" fill="white"/>
<path d="M1489.49 1580.75C1394.8 1459.1 1506.23 1344.76 1507.68 1343.27C1600.74 1312.87 1743.84 1326.37 1807.65 1417.31C1843.82 1468.85 1893.52 1518.59 1940.07 1570.68C1832.92 1721.91 1559.47 1670.66 1489.49 1580.75" fill="#9C2438"/>
<path d="M1771.95 1220.64C1771.95 1220.64 1757.6 1264.16 1778.8 1295.95C1800 1327.72 1767.38 1464.25 1721.12 1431.16C1674.85 1398.07 1649.87 1228.32 1649.87 1228.32C1649.87 1228.32 1688.81 1195.64 1697.33 1162.88C1705.84 1130.12 1780.95 1191.52 1771.95 1220.64Z" fill="#F79460"/>
<path d="M1687.36 1185.16C1691.72 1178 1695.36 1170.45 1697.33 1162.88C1705.84 1130.12 1780.95 1191.52 1771.95 1220.64C1771.95 1220.64 1732.4 1225.82 1687.36 1185.16Z" fill="#E4753D"/>
<path d="M1650.53 1126.53C1638.13 1103.31 1638.27 1079.05 1650.85 1072.34C1658.91 1068.03 1670.13 1072.02 1680.41 1081.55C1686.16 1086.87 1691.61 1093.9 1696.06 1102.22C1696.16 1102.4 1696.23 1102.58 1696.33 1102.76C1708.04 1125.07 1708.18 1148.15 1696.88 1155.67C1696.5 1155.92 1696.14 1156.2 1695.74 1156.42C1694.14 1157.27 1692.42 1157.79 1690.61 1158.02C1678.15 1159.57 1661.34 1146.8 1650.53 1126.53" fill="#F68393"/>
<path d="M1850.93 1090.12C1850.93 1090.12 1842.4 1120.25 1844.21 1145.17C1846.02 1170.08 1817.19 1208.27 1793.09 1218.97C1768.99 1229.65 1721.57 1202.32 1704.63 1183.19C1687.69 1164.05 1677.54 1116.79 1677.68 1095.67C1677.83 1074.54 1713.46 992.208 1773.15 1004.83C1832.84 1017.45 1863.71 1038.61 1850.93 1090.12Z" fill="#F9AE7D"/>
<path d="M1667.72 1210.87C1667.72 1210.87 1576.92 1224.04 1559.35 1244.54C1541.78 1265.03 1471.52 1682.21 1471.52 1682.21H2083.4L2042.41 1537.3C2042.41 1537.3 1938.48 1516.81 1922.38 1506.56C1906.28 1496.31 1838.94 1263.56 1824.3 1256.24C1809.66 1248.93 1768.83 1234.31 1768.83 1234.31C1768.83 1234.31 1742.13 1319.13 1667.72 1210.87" fill="#FFAE4C"/>
<path d="M1788.68 1328.65C1788.68 1328.65 1780.01 1335.78 1772.15 1315.28C1764.29 1294.79 1765.73 1276.74 1765.73 1276.74C1765.73 1276.74 1751.68 1277.23 1743.9 1267.96C1743.9 1267.96 1699.99 1284.09 1681.14 1265.29C1662.3 1246.49 1667.67 1210.88 1667.67 1210.88L1667.78 1210.96C1703.25 1262.53 1727.85 1270.19 1743.9 1264.12C1756.4 1259.4 1763.71 1246.4 1766.9 1239.22L1768.32 1237.68L1769.13 1234.42C1772.23 1235.54 1810.26 1249.23 1824.3 1256.24C1830.01 1259.1 1843.73 1296.25 1859.3 1341.09C1859.28 1341.15 1851.11 1370.21 1820.4 1353.01C1789.66 1335.78 1788.68 1328.65 1788.68 1328.65" fill="#F14435"/>
<path d="M1614.98 1328.65C1652.06 1353.24 1615.95 1483.63 1615.95 1483.63C1667.67 1477.77 1785.41 1522.94 1785.41 1522.94L1601.07 1497.72L1614.98 1328.65Z" fill="#F14435"/>
<path d="M1785.41 1353.01C1789.94 1321.93 1813.08 1579.26 1813.08 1579.26L1795.61 1579.88C1795.61 1579.88 1780.88 1384.09 1785.41 1353.01Z" fill="#F14435"/>
<path d="M1667.67 1210.88L1743.9 1264.12C1743.9 1264.12 1655.49 1303.83 1667.67 1210.88Z" fill="white"/>
<path d="M1743.9 1264.12L1768.32 1237.68C1784.55 1293.28 1743.9 1264.12 1743.9 1264.12Z" fill="white"/>
<path d="M1778.69 1522.03L1769.13 1581.22H1870.65C1870.65 1581.22 1866.76 1534.07 1778.69 1522.03Z" fill="#F9AE7D"/>
<path d="M2042.41 1537.3L2043.87 1581.22H2127.86C2127.86 1581.22 2131.22 1544.13 2042.41 1537.3Z" fill="#F9AE7D"/>
<path d="M1764.11 2342.99C1764.11 2342.99 1743.66 2317.24 1744.68 2297.84C1745.69 2278.44 1792.81 2172.71 1792.81 2172.71L1719.18 2153.56L1695.11 2230.59C1695.11 2230.59 1664.49 2255.3 1680.73 2289.77C1696.97 2324.25 1753.04 2383.23 1764.11 2342.99" fill="#F9AE7D"/>
<path d="M1695.11 2230.59C1695.11 2230.59 1673.74 2240.14 1670.76 2254.48C1667.79 2268.82 1676.3 2288.41 1675.23 2307.02C1674.17 2325.64 1667.24 2363.88 1667.24 2363.88L1677.15 2366.45L1692.65 2321.38C1692.65 2321.38 1692.01 2370.32 1718.9 2377.32C1745.79 2384.32 1795.96 2406.43 1789.82 2380.65C1783.68 2354.88 1764.11 2342.99 1764.11 2342.99C1764.11 2342.99 1726.73 2355.93 1713.66 2313.24C1700.59 2270.55 1683.62 2245.73 1695.11 2230.59" fill="#20151F"/>
<path d="M1699.88 2215.34L1758.03 2255.69L1763.13 2237.35L1699.88 2215.34Z" fill="#E4753D"/>
<path d="M2036.96 2342.66C2036.96 2342.66 2010.69 2322.88 2006.79 2303.85C2002.89 2284.82 2021.87 2170.64 2021.87 2170.64H1945.8L1941.89 2251.25C1941.89 2251.25 1918.47 2282.87 1942.87 2312.15C1967.27 2341.42 2036.38 2384.39 2036.96 2342.66" fill="#F9AE7D"/>
<path d="M1941.89 2251.25C1941.89 2251.25 1923.61 2265.88 1924.34 2280.5C1925.07 2295.13 1938.24 2311.94 1941.89 2330.23C1945.55 2348.51 1948.47 2387.26 1948.47 2387.26H1958.71L1962.37 2339.73C1962.37 2339.73 1974.07 2387.26 2001.86 2387.26C2029.64 2387.26 2083.76 2396.04 2071.32 2372.64C2058.89 2349.24 2036.96 2342.66 2036.96 2342.66C2036.96 2342.66 2004.05 2364.59 1980.65 2326.57C1957.25 2288.54 1934.58 2268.8 1941.89 2251.25Z" fill="#20151F"/>
<path d="M1941.89 2251.25L2008.47 2265.32L2010.29 2249.77L1941.89 2251.25Z" fill="#E4753D"/>
<path d="M1586.67 1198.67C1621.8 1146.95 1636.98 1110.17 1641.32 1064.98C1645.38 1022.86 1664.51 990.101 1691.93 970.913C1685.37 967.397 1680.68 962.555 1678.71 956.435C1672.07 935.801 1698.26 908.897 1737.22 896.351C1776.18 883.805 1813.15 890.363 1819.79 910.997C1824.6 925.907 1812.2 944.057 1790.3 957.731C1795 959.207 1799.73 960.947 1804.47 962.993C1883.52 997.151 1863.83 1118.11 1857.97 1153.51C1852.11 1188.91 1859.13 1257.44 1864.4 1294.9C1868.18 1321.73 1865.69 1338.32 1852.17 1348.46C1841.96 1356.43 1830.67 1352.92 1820.69 1345.66C1809.1 1339.31 1799.84 1327.35 1792.53 1313.65C1792.5 1313.59 1792.46 1313.53 1792.46 1313.53C1792.46 1313.53 1789.9 1333.83 1777.46 1316.26C1765.02 1298.7 1768.68 1237.95 1768.68 1237.95L1768.32 1237.68C1769.72 1227.49 1771.95 1220.64 1771.95 1220.64C1771.95 1220.62 1771.95 1220.6 1771.96 1220.59C1779.87 1221.86 1787.19 1221.58 1793.09 1218.97C1817.19 1208.27 1846.02 1170.08 1844.21 1145.17C1842.81 1125.89 1847.58 1103.56 1849.82 1094.41C1849.82 1094.41 1830.25 1085.2 1832.6 1057.17C1832.6 1057.17 1775.96 1096.72 1765.73 1070.6C1765.73 1070.6 1707.68 1094.16 1711.59 1068.35L1690.98 1077.07C1690.98 1077.07 1692.9 1154.23 1687.36 1148.88C1681.84 1143.55 1670.93 1074.9 1670.87 1074.53C1663.59 1070.43 1656.45 1069.34 1650.85 1072.34C1638.27 1079.05 1638.13 1103.31 1650.53 1126.53C1661.34 1146.8 1678.15 1159.57 1690.61 1158.02C1692.09 1161.84 1693.73 1165.42 1695.43 1168.84C1694.99 1170.01 1694.49 1171.18 1693.99 1172.35C1693.7 1173.02 1693.45 1173.7 1693.14 1174.37C1692.39 1176.02 1691.56 1177.66 1690.7 1179.29C1690.61 1179.46 1690.52 1179.64 1690.43 1179.82C1689.45 1181.62 1688.43 1183.4 1687.36 1185.16C1681.49 1194.81 1674.23 1203.69 1667.67 1210.88C1666.72 1211.02 1598.69 1220.97 1569.5 1236.97C1570.85 1227.47 1575.61 1214.96 1586.67 1198.67" fill="#100F0D"/>
<path d="M1677.68 1171.83C1677.68 1176.82 1679.85 1180.86 1682.52 1180.86C1685.19 1180.86 1687.36 1176.82 1687.36 1171.83C1687.36 1166.85 1685.19 1162.81 1682.52 1162.81C1679.85 1162.81 1677.68 1166.85 1677.68 1171.83Z" fill="white"/>
<path d="M1510.65 1684.38C1510.65 1684.38 1517.15 1836.89 1601.07 1838.84C1685 1840.8 1777.46 1858.69 1777.46 1858.69L1682.52 2209.31L1798.81 2249.77L1913.8 1928.7L1927.26 2249.77H2034.6C2034.6 2249.77 2100.96 1807.62 2083.4 1788.1C2065.83 1768.58 1853.78 1684.38 1853.78 1684.38H1510.65" fill="#2C2036"/>
<path d="M1951.65 1778.83C1939 1768.7 1777.94 1705.52 1734.53 1688.59L1510.65 1684.38H1853.78L1870.65 1691.15L1740.15 1688.69C1793.41 1702.9 1958.89 1748.92 1973.61 1775.9C1991.18 1808.11 1935.3 1905.77 1931.77 1942.57C1928.23 1979.37 1927.26 2249.77 1927.26 2249.77L1913.8 1928.7C1913.8 1928.7 1966.29 1790.54 1951.65 1778.83Z" fill="#20151F"/>
<path d="M682.522 1581.22H2519.61C2545.49 1581.22 2566.46 1604.25 2566.46 1632.67V2335.84C2566.46 2364.25 2545.49 2387.29 2519.61 2387.29H2299.82C2273.95 2387.29 2252.98 2364.25 2252.98 2335.84C2252.98 2307.42 2273.95 2284.39 2299.82 2284.39H2472.77V1684.12H1896.03H1306.11H729.364V2284.39H902.314C928.186 2284.39 949.156 2307.42 949.156 2335.84C949.156 2364.25 928.186 2387.29 902.314 2387.29H682.522C656.65 2387.29 635.68 2364.25 635.68 2335.84V1632.67C635.68 1604.25 656.65 1581.22 682.522 1581.22" fill="#F14A53"/>
<path d="M1084.98 1559.57L1172.3 1353.53C1173.59 1350.46 1176.6 1348.46 1179.93 1348.46H1488.69C1494.63 1348.46 1498.64 1354.53 1496.33 1360L1404.72 1576.16C1403.42 1579.22 1400.42 1581.22 1397.08 1581.22H1106.54H1075.8H934.3C929.716 1581.22 926.002 1577.5 926.002 1572.92C926.002 1568.34 929.716 1564.63 934.3 1564.63H1077.34C1080.67 1564.63 1083.68 1562.63 1084.98 1559.57" fill="#FF8F06"/>
<path d="M1101.99 1581.22H1410.75C1414.08 1581.22 1417.08 1579.22 1418.38 1576.16L1509.99 1360C1512.3 1354.53 1508.29 1348.46 1502.35 1348.46H1193.6C1190.27 1348.46 1187.25 1350.46 1185.96 1353.53L1094.35 1569.68C1092.03 1575.15 1096.05 1581.22 1101.99 1581.22" fill="#FF8F06"/>
<path d="M1269 1518.61C1280.84 1534.55 1308.68 1533.94 1331.18 1517.23C1353.68 1500.53 1362.33 1474.06 1350.49 1458.11C1338.65 1442.17 1310.81 1442.78 1288.31 1459.48C1265.81 1476.19 1257.16 1502.66 1269 1518.61" fill="white"/>
<path d="M1903.6 1559.57L1990.92 1353.53C1992.22 1350.46 1995.23 1348.46 1998.56 1348.46H2307.32C2313.26 1348.46 2317.27 1354.53 2314.95 1360L2223.35 1576.16C2222.05 1579.22 2219.04 1581.22 2215.71 1581.22H1925.17H1894.43H1752.93C1748.34 1581.22 1744.63 1577.5 1744.63 1572.92C1744.63 1568.34 1748.34 1564.63 1752.93 1564.63H1895.97C1899.3 1564.63 1902.3 1562.63 1903.6 1559.57" fill="#FF8F06"/>
<path d="M1920.62 1581.22H2229.37C2232.7 1581.22 2235.71 1579.22 2237.01 1576.16L2328.62 1360C2330.93 1354.53 2326.92 1348.46 2320.98 1348.46H2012.22C2008.89 1348.46 2005.88 1350.46 2004.59 1353.53L1912.98 1569.68C1910.66 1575.15 1914.68 1581.22 1920.62 1581.22" fill="#FF8F06"/>
<path d="M2081.28 1518.61C2093.12 1534.55 2120.96 1533.94 2143.46 1517.23C2165.96 1500.53 2174.61 1474.06 2162.77 1458.11C2150.93 1442.17 2123.09 1442.78 2100.59 1459.48C2078.09 1476.19 2069.44 1502.66 2081.28 1518.61Z" fill="white"/>
<path d="M3327.37 2342.66C3327.37 2342.66 3353.63 2322.88 3357.53 2303.85C3361.44 2284.82 3342.45 2170.64 3342.45 2170.64H3418.53L3422.43 2251.25C3422.43 2251.25 3445.85 2282.87 3421.45 2312.15C3397.05 2341.42 3327.94 2384.39 3327.37 2342.66" fill="#F9AE7D"/>
<path d="M3422.43 2251.25C3422.43 2251.25 3440.71 2265.88 3439.98 2280.5C3439.25 2295.13 3426.09 2311.94 3422.43 2330.23C3418.77 2348.51 3415.85 2387.26 3415.85 2387.26H3405.61L3401.96 2339.73C3401.96 2339.73 3390.26 2387.26 3362.47 2387.26C3334.68 2387.26 3280.57 2396.04 3293 2372.64C3305.43 2349.24 3327.37 2342.66 3327.37 2342.66C3327.37 2342.66 3360.27 2364.59 3383.67 2326.57C3407.07 2288.54 3429.74 2268.8 3422.43 2251.25Z" fill="#20151F"/>
<path d="M3422.43 2251.25L3351.53 2230.63L3421.78 2237.77L3422.43 2251.25Z" fill="#E4753D"/>
<path d="M3504.98 2342.66C3504.98 2342.66 3531.24 2322.88 3535.15 2303.85C3539.06 2284.82 3520.07 2170.64 3520.07 2170.64H3596.14L3600.05 2251.25C3600.05 2251.25 3623.47 2282.87 3599.07 2312.15C3574.67 2341.42 3505.56 2384.39 3504.98 2342.66" fill="#F9AE7D"/>
<path d="M3600.05 2251.25C3600.05 2251.25 3618.33 2265.88 3617.6 2280.5C3616.86 2295.13 3603.71 2311.94 3600.05 2330.23C3596.39 2348.51 3593.46 2387.26 3593.46 2387.26H3583.23L3579.57 2339.73C3579.57 2339.73 3567.87 2387.26 3540.09 2387.26C3512.3 2387.26 3458.19 2396.04 3470.61 2372.64C3483.05 2349.24 3504.98 2342.66 3504.98 2342.66C3504.98 2342.66 3537.89 2364.59 3561.29 2326.57C3584.69 2288.54 3607.36 2268.8 3600.05 2251.25" fill="#20151F"/>
<path d="M3530.28 2239.07L3599.73 2244.81L3599.15 2232.64L3530.28 2239.07Z" fill="#E4753D"/>
<path d="M3650.6 1416.35L3623.47 1891.54L3667.38 2226.27L3468.79 2244.81L3477.59 1876.9L3481.91 1559.26L3470.94 1835.06L3452.66 2240.91L3270.2 2222.36L3327.78 1884.22L3313.37 1416.35H3650.6" fill="#2C2036"/>
<path d="M3609.08 687.132C3620.67 696.762 3615.66 721.932 3597.88 743.346C3582.35 762.06 3562.2 771.715 3549.63 767.431C3547.81 766.813 3546.15 765.906 3544.69 764.694C3544.31 764.382 3544.01 764.011 3543.66 763.669C3533.55 753.481 3538.61 729.594 3555.49 708.978C3555.62 708.81 3555.74 708.643 3555.88 708.481C3562.26 700.801 3569.41 694.674 3576.5 690.384C3589.17 682.71 3601.64 680.958 3609.08 687.132Z" fill="#F68393"/>
<path d="M3452.07 815.004C3452.07 815.004 3457.67 863.148 3428.94 891.558C3400.22 919.974 3404.96 1068.35 3459.93 1043.92C3514.9 1019.48 3576.9 848.94 3576.9 848.94C3576.9 848.94 3543.52 806.796 3541.67 771.042C3539.81 735.294 3448.94 782.922 3452.07 815.004" fill="#F79460"/>
<path d="M3547.25 796.254C3544.25 787.902 3542.09 779.31 3541.67 771.042C3539.81 735.294 3448.94 782.922 3452.07 815.004C3452.07 815.004 3491.94 828.786 3547.25 796.254Z" fill="#E4753D"/>
<path d="M3398.02 662.976C3398.02 662.976 3400.44 696.012 3393.27 721.44C3386.09 746.874 3407.82 792.564 3430.52 808.77C3453.21 824.97 3508.15 806.748 3529.77 790.53C3551.39 774.312 3571.97 727.512 3576.32 705.594C3580.66 683.676 3561.26 590.802 3496.74 591.18C3432.22 591.552 3395.75 606.906 3398.02 662.976Z" fill="#F9AE7D"/>
<path d="M3369.74 683.382C3367.79 607.248 3407.8 527.262 3494.25 527.262C3580.7 527.262 3602 591.672 3615.32 660.96C3628.65 730.248 3683.97 788.112 3683.97 788.112C3663.55 826.518 3630.69 836.496 3611.49 838.938C3582.63 826.128 3555.84 815.226 3555.53 815.094C3552.48 809.16 3549.59 802.794 3547.25 796.254C3546.51 794.202 3545.82 792.138 3545.21 790.062C3545.15 789.864 3545.1 789.66 3545.04 789.462C3544.49 787.584 3543.98 785.706 3543.55 783.834C3543.38 783.09 3543.26 782.352 3543.11 781.614C3542.85 780.306 3542.57 778.992 3542.37 777.69C3544.86 774.528 3547.28 771.06 3549.63 767.43C3562.2 771.714 3582.35 762.06 3597.88 743.346C3615.66 721.932 3620.67 696.762 3609.08 687.132C3603.11 682.182 3593.89 682.398 3583.94 686.61C3583.8 687.522 3573.58 752.718 3556.86 756.72C3556.86 756.72 3576.52 702.096 3563.22 680.55L3551.25 671.694C3554.18 699.996 3489.77 653.154 3489.77 653.154C3503.43 679.5 3417.56 635.586 3417.56 635.586C3411.75 665.61 3398.39 673.656 3398.39 673.656C3398.53 685.476 3397.9 705.018 3393.27 721.44C3386.09 746.874 3407.82 792.564 3430.52 808.77C3436.08 812.742 3443.6 814.608 3452.07 814.968C3452.07 814.98 3452.07 814.992 3452.07 815.004C3452.07 815.01 3452.4 817.95 3452.49 822.78C3452.47 822.786 3395.65 839.778 3358.34 854.364C3323.89 836.622 3319.97 808.32 3319.97 808.32C3346.32 803.436 3371.69 759.522 3369.74 683.382" fill="#100F0D"/>
<path d="M3112.49 1072.34C3112.49 1072.34 3086.97 1033.29 3074.37 1024.76C3061.77 1016.23 3049.48 1020.92 3036.83 1015.19C3024.18 1009.45 3013.08 1000.2 2987.71 1002.13C2962.34 1004.07 2952.77 1007.24 2938.91 1001.38C2925.05 995.526 2920.8 998.706 2925.14 1005.87C2929.47 1013.03 2947.22 1020.26 2947.22 1020.26C2947.22 1020.26 2919.62 1009.41 2922.63 1017.71C2925.96 1026.92 2950.24 1046.96 2950.24 1046.96C2950.24 1046.96 2940.32 1043.35 2927.31 1036.85C2914.3 1030.36 2899.21 1021.6 2902.33 1032.4C2905.45 1043.18 2912.66 1044.01 2928.42 1052.42C2944.19 1060.82 2962.8 1067.05 2972.45 1064.53C2972.45 1064.53 2987.36 1073.57 2993.04 1069.03C2993.04 1069.03 3006.09 1073.65 3012.32 1069.3C3012.32 1069.3 3022.19 1069.68 3030.89 1062.77C3030.89 1062.77 3042.78 1059.17 3047.21 1061.68C3051.63 1064.19 3076.62 1106.5 3076.62 1106.5L3112.49 1072.34" fill="#F9AE7D"/>
<path d="M2950.61 1046.5L2972.81 1064.07C2973.07 1064.27 2973.11 1064.64 2972.91 1064.9C2972.75 1065.1 2972.48 1065.17 2972.25 1065.09C2972.19 1065.07 2972.13 1065.04 2972.08 1064.99L2949.87 1047.43C2949.62 1047.23 2949.58 1046.86 2949.78 1046.6C2949.98 1046.35 2950.35 1046.3 2950.61 1046.5" fill="#F14A53"/>
<path d="M2946.03 1019.32C2951.78 1016.14 2960.67 1017.76 2968.82 1023.43C2971.12 1020.5 2973.93 1018.99 2977.19 1018.99C2982.44 1018.97 2991.68 1022.99 3005.82 1042.21C3009.98 1047.86 3019.17 1049.37 3019.27 1049.38C3019.58 1049.44 3019.81 1049.74 3019.76 1050.06C3019.71 1050.38 3019.41 1050.6 3019.09 1050.55C3018.91 1050.52 3016.9 1050.19 3014.34 1049.29C3011.23 1048.18 3007.31 1046.23 3004.88 1042.91C2991.02 1024.09 2982.17 1020.15 2977.19 1020.16C2974.32 1020.17 2971.83 1021.51 2969.77 1024.12C2975.76 1028.67 2983.42 1039.03 2989.05 1046.66C2991.65 1050.17 2993.89 1053.2 2995.42 1054.95C3000.36 1060.57 3012.52 1068.73 3012.65 1068.82C3012.92 1069 3012.99 1069.36 3012.81 1069.63C3012.63 1069.9 3012.26 1069.97 3011.99 1069.79C3011.49 1069.46 2999.57 1061.47 2994.54 1055.73C2992.97 1053.94 2990.72 1050.89 2988.11 1047.36C2982.36 1039.58 2974.5 1028.93 2968.59 1024.7C2960.81 1019.12 2951.97 1017.38 2946.6 1020.35C2946.52 1020.4 2946.47 1020.46 2946.45 1020.61C2945.95 1025.31 2974.27 1051.87 2993.43 1068.58C2993.67 1068.8 2993.7 1069.17 2993.48 1069.41C2993.32 1069.6 2993.06 1069.66 2992.85 1069.58C2992.77 1069.56 2992.71 1069.52 2992.65 1069.47C2987.73 1065.17 2944.55 1027.3 2945.28 1020.49C2945.33 1019.96 2945.6 1019.56 2946.03 1019.32" fill="#F14A53"/>
<path d="M3045.56 1060.48C3057.84 1062.91 3080.87 1051.01 3081.11 1050.89C3081.39 1050.74 3081.75 1050.85 3081.9 1051.13C3082.05 1051.42 3081.93 1051.78 3081.65 1051.93C3080.69 1052.43 3058.02 1064.15 3045.33 1061.63C3045.3 1061.63 3045.27 1061.62 3045.24 1061.61C3044.97 1061.51 3044.81 1061.23 3044.86 1060.94C3044.93 1060.62 3045.24 1060.42 3045.56 1060.48" fill="#F14A53"/>
<path d="M3016.52 1045.12C3016.4 1045.4 3016.08 1045.53 3015.79 1045.43C3015.77 1045.42 3015.76 1045.42 3015.74 1045.41C3015.45 1045.28 3015.32 1044.93 3015.45 1044.63C3017.33 1040.44 3022.23 1040.36 3023.67 1040.44C3028.79 1031.57 3046.13 1022.07 3046.88 1021.67C3047.16 1021.51 3047.52 1021.62 3047.68 1021.9C3047.84 1022.19 3047.73 1022.55 3047.44 1022.7C3047.26 1022.8 3029.21 1032.68 3024.53 1041.34C3024.41 1041.55 3024.18 1041.67 3023.94 1041.64C3023.88 1041.64 3018.34 1041.05 3016.52 1045.12" fill="#F14A53"/>
<path d="M3555.5 815.082C3555.5 815.082 3651.84 854.286 3676.55 871.578C3701.25 888.87 3763.34 1250.56 3763.34 1269.08C3763.34 1287.61 3721.02 1342.23 3698.78 1336.06C3676.55 1329.88 3650.6 1327.14 3650.6 1327.14L3661.24 1403.96C3662.15 1410.5 3657.06 1416.35 3650.45 1416.35H3307.77C3301.45 1416.35 3296.45 1410.98 3296.9 1404.68L3310.89 1208.36C3310.89 1208.36 3267.81 1303.42 3239.39 1291.06C3210.98 1278.71 3015.66 1082.81 3015.66 1082.81L3092.99 1021.6L3235.07 1117.98C3235.07 1117.98 3313.37 882.696 3328.19 869.106C3343.01 855.522 3452.49 822.78 3452.49 822.78C3452.49 822.78 3458.51 917.286 3461.6 924.078C3464.69 930.87 3555.5 815.082 3555.5 815.082" fill="#FFDDB4"/>
<path d="M3637.37 1150.12L3637.13 924.078L3664.46 1168.42L3690.8 1215.99L3538.48 1103.45L3637.37 1150.12Z" fill="#E7CA82"/>
<path d="M3343.39 913.71L3310.89 1208.36L3285.68 1254.53L3343.39 913.71Z" fill="#E7CA82"/>
<path d="M3650.6 1327.14L3658.54 1384.44L3632.25 1329.44L3501.97 1188.91L3428.39 1166.47L3510.78 1178.74L3650.6 1327.14Z" fill="#E7CA82"/>
<path d="M3555.53 815.094C3555.53 815.094 3585.92 984.684 3461.6 924.078C3461.6 924.078 3546.63 857.49 3555.53 815.094Z" fill="#E7CA82"/>
<path d="M3461.6 924.078C3461.6 924.078 3388.37 944.1 3452.49 822.78C3452.49 822.78 3439.77 901.266 3461.6 924.078Z" fill="#E7CA82"/>
<path d="M3461.6 924.078L3555.53 815.094C3587.97 956.406 3461.6 924.078 3461.6 924.078Z" fill="white"/>
<path d="M3452.49 822.78L3461.6 924.078C3461.6 924.078 3377.15 923.118 3452.49 822.78Z" fill="white"/>
<path d="M3446.85 1105.95C3440.47 1103.75 3418.04 1095.2 3395.96 1077.22C3369.87 1055.98 3450.68 1088.72 3478.84 1100.72C3507 1112.73 3503.64 1091.3 3496.19 1076.15C3488.73 1060.99 3477.54 1038.26 3517.2 1076.84C3526.98 1086.35 3533.77 1095.32 3538.48 1103.45L3510.78 1178.74C3474.05 1186.31 3422.66 1166.06 3407.99 1156.66C3386.36 1142.78 3436.32 1148.58 3436.32 1148.58C3436.32 1148.58 3389.88 1127.84 3376.81 1115.07C3366.35 1104.84 3413.96 1116.99 3433.32 1122.23C3419.84 1118.23 3391.97 1108.67 3373.48 1093.44C3350.33 1074.37 3433.49 1101.52 3446.85 1105.95" fill="#F9AE7D"/>
<path d="M3617.54 1433.31C3617.53 1433.37 3617.55 1433.42 3617.55 1433.49C3610.98 1489.66 3645.06 1512.49 3646.51 1513.43C3647.87 1514.31 3648.26 1516.12 3647.37 1517.48C3646.82 1518.34 3645.87 1518.82 3644.91 1518.82C3644.37 1518.82 3643.83 1518.67 3643.34 1518.35C3641.76 1517.33 3604.81 1492.8 3611.72 1432.99L3313.37 1416.35H3650.45L3649.53 1435.09L3617.54 1433.31Z" fill="#251F4F"/>
<path d="M3623.47 1891.54L3667.38 2226.27L3597.12 1887.15L3634.92 1691.07L3623.47 1891.54" fill="#251F4F"/>
<path d="M680.848 1539H479.752C468.094 1539 458.644 1548.45 458.644 1560.11C458.644 1571.77 468.094 1581.22 479.752 1581.22H680.848C692.5 1581.22 701.95 1571.77 701.95 1560.11C701.95 1548.45 692.5 1539 680.848 1539Z" fill="#9A4EAD"/>
<path d="M585.952 1539H342.646V1581.22H585.952V1539Z" fill="#FF8F06"/>
<path d="M683.002 1572H342.022V1552.08H683.002V1572Z" fill="#F4EAF6"/>
<path d="M585.952 1572H342.022V1552.08H585.952V1572Z" fill="#FF8F06"/>
<path d="M705.844 1497.72H504.754C493.096 1497.72 483.646 1507.17 483.646 1518.83C483.646 1530.49 493.096 1539.94 504.754 1539.94H705.844C717.502 1539.94 726.952 1530.49 726.952 1518.83C726.952 1507.17 717.502 1497.72 705.844 1497.72" fill="#FCD0E5"/>
<path d="M610.954 1497.72H367.648V1539.94H610.954V1497.72Z" fill="#F8A1C6"/>
<path d="M707.998 1530.72H367.018V1510.8H707.998V1530.72Z" fill="#F4EAF6"/>
<path d="M610.954 1530.72H367.018V1510.8H610.954V1530.72Z" fill="#FF8F06"/>
<path d="M186.039 1491.38C186.039 1506.68 173.634 1519.09 158.334 1519.09C143.032 1519.09 130.628 1506.68 130.628 1491.38C130.628 1476.08 143.032 1463.68 158.334 1463.68C173.634 1463.68 186.039 1476.08 186.039 1491.38Z" fill="#F4EAF6"/>
<path d="M307.18 500.286C307.18 522.378 289.27 540.288 267.175 540.288C245.083 540.288 227.172 522.378 227.172 500.286C227.172 478.194 245.083 460.284 267.175 460.284C289.27 460.284 307.18 478.194 307.18 500.286Z" stroke="#F4EAF6" stroke-width="1.33333" stroke-miterlimit="10"/>
<path d="M3084.83 1963.26C3084.83 1997.36 3057.18 2025 3023.09 2025C2988.99 2025 2961.35 1997.36 2961.35 1963.26C2961.35 1929.16 2988.99 1901.51 3023.09 1901.51C3057.18 1901.51 3084.83 1929.16 3084.83 1963.26Z" stroke="#F4EAF6" stroke-width="1.33333" stroke-miterlimit="10"/>
<path d="M2329.28 202.638C2329.28 213.486 2320.49 222.282 2309.64 222.282C2298.8 222.282 2290 213.486 2290 202.638C2290 191.796 2298.8 183 2309.64 183C2320.49 183 2329.28 191.796 2329.28 202.638Z" fill="#F4EAF6"/>
<path d="M1784.01 33.1863C1784.01 51.5103 1769.15 66.3662 1750.82 66.3662C1732.5 66.3662 1717.64 51.5103 1717.64 33.1863C1717.64 14.8563 1732.5 0.000296924 1750.82 0.000296924C1769.15 0.000296924 1784.01 14.8563 1784.01 33.1863Z" fill="#F4EAF6"/>
<path d="M3747.88 559.218C3747.88 576.87 3733.58 591.174 3715.93 591.174C3698.28 591.174 3683.97 576.87 3683.97 559.218C3683.97 541.572 3698.28 527.262 3715.93 527.262C3733.58 527.262 3747.88 541.572 3747.88 559.218Z" fill="#F4EAF6"/>
<path d="M3816.01 1832.34C3816.01 1846.88 3804.22 1858.67 3789.67 1858.67C3775.13 1858.67 3763.34 1846.88 3763.34 1832.34C3763.34 1817.79 3775.13 1806 3789.67 1806C3804.22 1806 3816.01 1817.79 3816.01 1832.34Z" fill="#F4EAF6"/>
<path d="M368.626 2001.84C365.836 2000.03 362.128 2000.83 360.328 2003.61C328.522 2052.65 313.108 2095.44 305.806 2128.07C290.968 2069.84 255.86 2014.58 254.052 2011.76C252.262 2008.97 248.554 2008.15 245.763 2009.95C242.971 2011.73 242.16 2015.45 243.951 2018.24C244.471 2019.05 295.846 2099.89 300.052 2166.35C298.846 2183.62 300.214 2193.74 300.382 2194.88C300.826 2197.86 303.382 2200 306.31 2200C306.598 2200 306.892 2199.98 307.186 2199.93C310.462 2199.45 312.73 2196.41 312.256 2193.13C312.148 2192.38 302.056 2115.52 370.39 2010.13C372.196 2007.36 371.404 2003.64 368.626 2001.84" fill="#4E2985"/>
<path d="M365.23 1932.1C305.974 1879.74 283.348 1896.35 285.214 1842.5C287.086 1788.67 256.649 1747.01 227.177 1739.27C197.704 1731.53 163.197 1732.92 149.536 1673.62C135.874 1614.32 82.5413 1607.94 57.7985 1620.32C33.0557 1632.69 6.18473 1679.2 45.4421 1725.7C84.7001 1772.19 62.8937 1798.97 51.4121 1827.2C39.9323 1855.42 55.0073 1904.75 99.2129 1935.55C143.416 1966.34 116.557 1974.49 122.917 2053.31C129.276 2132.13 293.818 2092.15 293.818 2092.15C293.818 2092.15 424.492 1984.46 365.23 1932.1" fill="#FF8F06"/>
<path d="M281.728 1901.04L230.301 1965.17L199.41 1903.42L177.377 1859.37L210.454 1777.75L172.256 1849.13L137.685 1780.02L67.063 1638.83L131.514 1775.61L70.9354 1741.94L133.973 1780.83L192.18 1904.35L85.0378 1874.62L199.863 1920.66L256.792 2044.72L158.873 2022.23L266.16 2061.35L283.18 2097.47L293.818 2092.15L236.702 1977.97L281.728 1901.04" fill="#4E2985"/>
<path d="M257.486 1904C316.744 1851.64 339.37 1868.25 337.504 1814.41C335.632 1760.57 366.07 1718.92 395.542 1711.18C425.014 1703.44 459.52 1704.83 473.182 1645.53C486.844 1586.23 540.178 1579.84 564.916 1592.22C589.66 1604.6 616.534 1651.1 577.276 1697.6C538.018 1744.09 559.822 1770.87 571.306 1799.1C582.784 1827.33 567.712 1876.66 523.504 1907.45C479.302 1938.25 506.164 1946.39 499.804 2025.21C493.444 2104.03 328.9 2064.05 328.9 2064.05C328.9 2064.05 198.226 1956.36 257.486 1904Z" fill="#FF8F06"/>
<path d="M340.99 1872.94L392.416 1937.07L423.304 1875.32L445.342 1831.27L412.264 1749.65L450.46 1821.03L485.032 1751.92L555.658 1610.74L491.206 1747.52L551.782 1713.84L488.746 1752.73L430.54 1876.25L537.682 1846.52L422.854 1892.56L365.926 2016.62L463.846 1994.14L356.56 2033.25L339.538 2069.37L328.9 2064.05L386.014 1949.87L340.99 1872.94" fill="#4E2985"/>
<path d="M436.678 2286.4C436.678 2255.63 419.518 2228.12 392.548 2209.61C392.2 2196.25 381.31 2185.5 367.858 2185.5H254.857C241.406 2185.5 230.514 2196.25 230.172 2209.61C203.198 2228.12 186.039 2255.63 186.039 2286.4C186.039 2317.16 203.198 2344.67 230.172 2363.17C230.514 2376.54 241.406 2387.29 254.857 2387.29H367.858C381.31 2387.29 392.2 2376.54 392.548 2363.17C419.518 2344.67 436.678 2317.16 436.678 2286.4" fill="white"/>
<path d="M230.172 2212.62H392.548C394.204 2212.62 395.548 2211.28 395.548 2209.62C395.548 2207.96 394.204 2206.62 392.548 2206.62H230.172C228.513 2206.62 227.172 2207.96 227.172 2209.62C227.172 2211.28 228.513 2212.62 230.172 2212.62Z" fill="#A363B8"/>
<path d="M392.548 2360.17H230.172C228.513 2360.17 227.172 2361.52 227.172 2363.17C227.172 2364.83 228.513 2366.17 230.172 2366.17H392.548C394.204 2366.17 395.548 2364.83 395.548 2363.17C395.548 2361.52 394.204 2360.17 392.548 2360.17Z" fill="#A363B8"/>
</svg>
